<?xml version="1.0" encoding="UTF-8" standalone="no"?>
<svg
   xmlns:dc="http://purl.org/dc/elements/1.1/"
   xmlns:cc="http://creativecommons.org/ns#"
   xmlns:rdf="http://www.w3.org/1999/02/22-rdf-syntax-ns#"
   xmlns:svg="http://www.w3.org/2000/svg"
   xmlns="http://www.w3.org/2000/svg"
   xmlns:sodipodi="http://sodipodi.sourceforge.net/DTD/sodipodi-0.dtd"
   xmlns:inkscape="http://www.inkscape.org/namespaces/inkscape"
   width="71.427658mm"
   height="33.327423mm"
   viewBox="0 0 71.427658 33.327423"
   version="1.1"
   id="svg208"
   inkscape:version="1.0.1 (3bc2e813f5, 2020-09-07)"
   sodipodi:docname="l2.svg">
  <defs
     id="defs202">
    <clipPath
       clipPathUnits="userSpaceOnUse"
       id="clipPath1214-5-2">
      <path
         id="path1216-8-1"
         style="fill:#ff0000;fill-opacity:1;fill-rule:nonzero;stroke:none;stroke-width:0.264683"
         d="m -589.75348,544.88118 0.1682,3.382 c 0.0151,-0.0483 0.0319,-0.0959 0.0403,-0.14585 -0.007,0.0391 -0.0136,0.078 -0.0206,0.11716 -0.008,0.0478 -0.0102,0.0833 -0.015,0.12435 l 0.0124,0.24872 c 0.0185,-0.0276 0.0361,-0.055 0.0573,-0.0834 0.0831,-0.11063 0.1896,-0.20139 0.28421,-0.30217 v 0 c 0.41407,-0.44105 0.84145,-0.6096 1.19342,-0.58942 0.0882,0.005 0.17076,0.023 0.24799,0.0506 0.15546,-0.0737 0.35294,-0.1213 0.59849,-0.12399 0.0587,-6.4e-4 0.11762,-0.005 0.17634,-0.008 0.0587,-0.003 0.11723,-0.004 0.17592,0.004 0.36641,0.0409 0.54218,0.0936 0.83236,0.33858 0.0586,0.0496 0.19667,0.17614 0.18141,0.2086 0.0271,0.0113 0.0542,0.0225 0.0813,0.0338 0.0309,0.0992 0.17155,0.36685 0.0928,0.29753 -0.18677,-0.16471 -0.27423,-0.26559 -0.3179,-0.33438 -0.23094,-0.0176 -0.41688,-0.0342 -0.55805,-0.0503 0.0543,0.10225 0.14216,0.22921 0.23549,0.36065 0.11204,0.046 0.22868,0.10677 0.35073,0.19381 0.087,0.0621 0.17164,0.12748 0.26094,0.186 0.0901,0.007 0.17984,0.0174 0.24311,0.077 0.0498,0.047 0.12003,0.11946 0.19229,0.19865 0.0993,0.0688 0.20308,0.15156 0.30169,0.25747 0.006,0.007 0.008,0.0163 0.0131,0.0242 0.0741,-0.005 0.14415,-0.004 0.21037,8.8e-4 l 0.31613,-0.003 c 0.0386,-0.0588 0.0759,-0.10936 0.0798,-0.0992 -3.4e-4,-0.009 -6.1e-4,-0.0111 -0.003,-0.0507 -9.5e-4,-0.0185 -10e-4,-0.0268 -0.002,-0.0388 -0.0147,-0.002 -0.0226,-0.002 -0.0483,-0.004 -0.0543,-0.0297 -0.0905,-0.0577 -0.11912,-0.0882 -0.035,-0.0131 -0.0927,-0.0532 -0.23945,-0.13863 -0.0193,-0.0112 9.9e-4,-0.0439 0.002,-0.0657 0.009,-0.0253 0.0173,-0.0506 0.0262,-0.0758 4.4e-4,0.009 -0.003,0.037 0.001,0.0279 0.0106,-0.0263 0.0108,-0.0595 0.0223,-0.0841 -0.0182,0.0111 -0.0365,0.0221 -0.0546,0.0332 -0.0128,0.003 -0.0257,0.004 -0.0385,0.005 0.0159,-0.01 0.0309,-0.0202 0.0395,-0.0362 -1.1e-4,-0.003 0.002,-0.005 0.002,-0.007 -0.0135,0.01 -0.0277,0.0191 -0.0342,0.0189 -0.003,0.008 -0.006,0.0162 -0.008,0.0245 -0.005,0.017 -0.0107,0.0344 -0.0171,0.0509 -0.0448,0.005 -0.0749,0.0106 -0.10056,0.0146 -0.0154,0.0208 -0.0309,0.0412 -0.0466,0.0615 l 0.003,-3e-5 c -0.20915,0.27114 -0.47236,0.0702 -0.28575,-0.21728 0.12419,-0.19136 0.28732,-0.32952 0.4762,-0.45278 0.003,-0.003 0.005,-0.003 0.008,-0.005 0.005,-0.007 0.009,-0.0155 0.0139,-0.0229 0.0499,-0.0807 0.12157,-0.0965 0.19174,-0.0828 0.0629,-0.0335 0.12813,-0.0619 0.19578,-0.0849 0.005,-0.004 0.007,-0.005 0.0115,-0.009 -1.5e-4,-0.003 -2.9e-4,-0.006 0.002,-0.007 0.003,-0.005 0.0132,-0.0105 0.0188,-0.0158 0.002,-0.008 0.002,-0.0167 0.004,-0.0249 0.0413,-0.0161 0.0824,-0.033 0.12423,-0.0479 0.003,-3e-5 -0.002,0.004 -0.003,0.005 -0.003,0.003 -0.007,0.007 -0.01,0.0104 0.003,-5e-5 0.005,-10e-5 0.007,-7e-5 0.0111,-0.0221 0.0235,-0.0435 0.035,-0.0651 0.0327,-2.5e-4 0.0723,-0.0185 0.10318,-0.0141 l -0.002,0.004 c 0.0105,0.003 0.0199,0.006 0.0275,0.0137 0.0218,0.0228 0.0634,0.0796 0.0902,0.1408 0.003,-0.003 0.003,-0.007 0.005,-0.01 0.0139,-0.0187 0.0132,0.0475 0.0102,0.0718 0.009,0.045 0.008,0.088 -0.0288,0.11621 -0.005,0.004 -0.0111,0.006 -0.0159,0.01 -0.0316,0.0516 -0.0774,0.0909 -0.1441,0.0952 1.4e-4,0.003 -0.002,0.005 -0.003,0.007 -0.005,0.003 -0.0106,0.006 -0.016,0.009 0.014,-0.006 0.0283,-0.0112 0.0443,-0.0129 0.0365,-0.004 0.0774,0.002 0.12257,0.0225 -0.008,0.16015 0.004,0.24283 0.0209,0.27658 0.004,-0.003 0.004,-0.003 0.008,-0.004 0.0167,-0.01 4e-5,-0.0524 0.0183,-0.0566 0.0139,-0.003 -0.0102,0.0401 -0.0212,0.0732 0.0189,0.0228 0.0431,-0.006 0.0591,-0.07 -2e-4,-0.004 -0.003,-0.0132 -5.7e-4,-0.0114 0.0195,0.0133 0.0214,0.0417 0.0316,0.0633 0.0115,0.0451 0.027,0.0968 0.029,0.1466 0.0169,0.0267 0.0269,0.0518 0.0322,0.0768 0.0439,0.0379 0.0727,0.10273 0.0853,0.14496 0.003,0.008 8.4e-4,0.0169 0.001,0.0254 0.0321,0.0282 0.0731,0.0986 0.0386,0.12067 -0.022,0.0143 -0.0459,0.0249 -0.0707,0.0334 0.0158,0.01 0.0335,0.0203 0.0387,0.0306 1.2e-4,0.003 1.9e-4,0.003 2.4e-4,0.005 -0.0188,-0.0101 -0.0367,-0.0213 -0.0553,-0.0315 -0.0159,0.005 -0.0324,0.009 -0.049,0.0119 0.009,0.009 0.0173,0.0178 0.0272,0.0262 0.004,-4e-5 0.008,-0.003 0.0112,-0.003 0.0125,0.0121 0.0188,0.0264 0.0294,0.039 0.0174,0.0146 0.0327,0.0304 0.0478,0.0466 0.002,-0.0304 0.002,-0.0597 -0.01,-0.0868 0.0106,0.006 0.0199,0.0117 0.0303,0.0172 0.003,-4e-5 0.009,3e-5 0.0116,0.005 0.0352,0.0422 0.0748,0.0823 0.10007,0.13083 l 0.91163,-0.01 -0.22472,-4.51862 z m 3.22854,2.92266 c -0.003,6e-5 -0.004,0.003 -0.006,0.003 0.17672,0.0733 0.35308,0.14697 0.52981,0.2203 -0.0248,-0.1259 0.2732,0.0118 -0.19659,-0.15981 -0.16587,-0.0606 -0.26952,-0.0784 -0.32666,-0.0637 z m 2.31034,0.14029 c -0.003,2.4e-4 -0.006,0.003 -0.009,0.003 0.004,-7e-5 0.008,-9e-5 0.0123,-0.003 -3e-5,-1.4e-4 -0.003,2e-5 -0.003,2e-5 z m -0.0304,0.0122 c -0.0217,0.0103 -0.0403,0.0267 -0.0568,0.0425 1.4e-4,0.003 1.8e-4,0.003 2.6e-4,0.005 0.0185,-0.0164 0.0421,-0.0397 0.0576,-0.0477 z m 0.0493,0.0135 c -0.0136,0.004 -0.0271,0.009 -0.0323,0.0162 -0.003,0.005 -0.004,0.0106 -0.007,0.0157 5e-5,0 -0.003,0.003 -0.002,0.004 0.004,0.007 0.007,0.0142 0.0108,0.0211 0.0107,-0.0192 0.0209,-0.0378 0.0308,-0.0572 z m -0.0678,0.0282 c -0.01,0.003 -0.0201,0.006 -0.0301,0.009 1.4e-4,0.003 -0.002,0.005 -0.003,0.007 l -0.003,3e-5 v 0 c 1.4e-4,0.003 -0.003,0.003 -0.002,0.005 0.0123,-0.007 0.0242,-0.0138 0.0362,-0.0211 z m -0.039,0.006 c -0.007,0.006 -0.0123,0.009 -0.0193,0.0158 0,0 -0.002,0.004 -0.002,0.005 0.003,-4e-5 0.006,-0.003 0.01,-0.004 l -1.5e-4,-0.003 c 0.003,-4e-5 0.004,-0.003 0.0102,-0.003 -2e-4,-0.004 -3.2e-4,-0.007 0.002,-0.0109 z m 0.004,0.01 c -0.003,3e-5 -0.003,0.003 -0.006,0.003 v 0 c 0.003,-0.003 0.003,-0.003 0.005,-0.003 z m -0.006,0.004 c -0.003,6e-5 -0.006,0.003 -0.009,0.004 -0.003,0.003 -0.002,0.006 -0.004,0.007 0,0 0.003,-0.003 0.003,-2e-5 0.004,-0.003 0.007,-0.004 0.0111,-0.006 -1.2e-4,-0.003 -1.6e-4,-0.003 -2.7e-4,-0.005 z m -0.0129,0.011 c 0,0 0,0 0,0 v 0 c -3e-5,1.1e-4 0.003,-2e-5 0,0 z m 0,0 c 8e-5,0 -0.005,0.003 -0.006,0.003 0,0 1.3e-4,0.003 1.8e-4,0.004 0.003,-0.003 0.005,-0.003 0.006,-0.004 z m 0.0141,0.003 c -0.003,0.006 -0.006,0.0117 -0.009,0.0176 0.003,-0.003 0.005,-0.004 0.007,-0.006 -2.3e-4,-0.004 0.002,-0.008 0.002,-0.0119 z m -0.0389,0.007 c -0.0203,0.0116 -0.0448,0.0262 -0.0583,0.0327 -0.002,0.007 -0.002,0.0154 -0.003,0.0228 0,0 0.003,-0.003 0.004,-0.003 0,0 0,0 0,0 0,0 0,0 0,0 0.002,-0.004 0.004,-0.009 0.008,-0.0125 0.004,-0.004 0.0127,-0.006 0.0207,-0.01 -0.0102,0.007 -0.0191,0.0148 -0.0283,0.0226 0.0139,-0.009 0.0258,-0.0191 0.0394,-0.0279 -0.004,2e-5 -0.006,0.003 -0.0101,0.004 0.005,-0.003 0.008,-0.006 0.012,-0.009 0.002,-0.003 0.002,-0.007 0.004,-0.009 0.006,-0.005 0.007,-0.005 0.012,-0.009 z m -0.0319,0.0542 c -0.007,1.5e-4 -0.0178,0.004 -0.0305,0.0101 2.5e-4,0.005 -0.002,0.0101 -0.002,0.0151 0.0112,-0.008 0.0219,-0.0167 0.0329,-0.0247 z m 0.27745,0.0611 c -0.007,0.0144 -0.0114,0.0305 -0.0168,0.0457 0.004,0.004 0.006,0.009 0.01,0.0129 0.003,0.003 0.004,4e-5 0.006,0.003 0.012,-0.0237 0.0105,-0.0805 10e-4,-0.0616 z m 0.0659,0.0365 c -0.003,0.003 -0.002,0.004 -0.004,0.006 0.003,-0.003 0.003,-0.003 0.005,-0.005 z m -0.11843,0.14358 c 0,0 0,0 -0.003,3e-5 -10e-6,-2.4e-4 -10e-6,-2.7e-4 0.003,-3e-5 z m -0.003,3e-5 c -0.007,0.004 -0.0133,0.009 -0.0206,0.0121 -0.008,0.004 -0.0177,0.006 -0.0264,0.009 -0.003,4e-5 -0.003,0.003 -0.005,0.003 0,0 -0.002,0.004 -0.002,0.005 -0.003,0.003 -0.005,0.003 -0.007,0.004 -0.007,0.0101 -0.0124,0.0213 -0.0218,0.0292 -0.008,0.0102 -0.0135,0.0216 -0.0223,0.0303 -0.003,0.003 -0.0106,0.005 -0.0161,0.007 0.0117,0.006 0.0238,0.0101 0.0351,0.0192 0.0185,-0.0492 0.0482,-0.0909 0.0871,-0.11892 z m -0.0551,0.0244 -0.003,0.003 c 0.003,-6e-5 0.003,-0.003 0.005,-0.003 z m -0.0882,0.0351 c -0.003,0 -0.004,0.003 -0.006,0.003 0,0 2.1e-4,0.003 -0.003,0.003 0.003,-0.003 0.005,-0.004 0.008,-0.005 z m -0.59761,0.007 c -0.006,0.003 -0.0118,0.007 -0.0159,0.01 0,0 3.1e-4,0.003 -0.002,0.003 0.006,-0.004 0.006,-0.005 0.0136,-0.009 0.003,-3e-5 0.005,-0.005 0.004,-0.004 z m 0.40138,0.20412 c 0,0 1.3e-4,0.003 -0.003,0.003 0,0 0.003,-3e-5 0.003,-3e-5 z m -0.003,0.003 c 0,0 -0.003,2e-5 -0.003,2e-5 -0.004,0.005 -0.008,0.009 -0.0118,0.0136 0.003,-2.7e-4 0.005,-0.003 0.008,-0.003 0.002,-0.003 0.004,-0.007 0.006,-0.0104 z m -0.1591,0.0224 c -0.009,0.006 -0.0177,0.0113 -0.0266,0.0167 0.006,-0.003 0.0128,-0.003 0.0194,-0.004 0.003,-0.003 0.003,-0.003 0.005,-0.004 -1.5e-4,-0.003 0.002,-0.007 0.002,-0.009 z m -0.0567,0.0131 c -0.006,0.004 -0.0112,0.008 -0.0169,0.0121 -0.006,0.0107 -0.0105,0.0224 -0.0147,0.0338 0.009,-1.2e-4 0.0162,-0.004 0.024,-0.006 0.004,-0.0162 0.007,-0.028 0.008,-0.0394 z m -0.0424,0.0294 c -0.005,0.004 -0.008,0.009 -0.0128,0.0142 1.1e-4,0.003 0.004,0.003 0.009,0.003 0.002,-0.006 0.002,-0.0114 0.004,-0.017 z m -0.0252,0.0955 c -0.009,3.6e-4 -0.0173,0.003 -0.0258,0.003 0.006,0.003 0.0127,-3e-4 0.0165,0.003 0.003,-0.003 0.006,-0.004 0.009,-0.006 z m -0.91654,0.0462 v 0 c -1.1e-4,-1.1e-4 0.003,8e-5 0.003,-3e-5 -8e-5,-8e-5 -0.003,3e-5 -0.003,3e-5 z m 0.003,-3e-5 c 0.01,0.007 0.0693,0.0305 0.15498,0.0713 -0.0111,-0.0158 -0.0205,-0.0342 -0.0324,-0.0488 -0.0201,-0.005 -0.0435,-0.0109 -0.0685,-0.0173 -0.0163,-0.002 -0.0554,-0.008 -0.054,-0.005 z m 0.0928,0.005 v 0 c 0.0132,0.004 0.0154,0.006 0.0242,0.008 -0.003,-0.003 -0.003,-0.005 -0.005,-0.007 -0.0155,-0.002 -0.007,-1.7e-4 -0.0197,-0.002 z m 1.28276,0.42783 c -0.006,0.0215 -0.0344,0.0317 -0.0455,0.0517 -0.007,0.0123 -0.007,0.0277 -0.008,0.0425 l 0.009,-1.1e-4 c 0.0151,-0.0271 0.0302,-0.054 0.045,-0.0812 -9e-5,-0.004 -5.6e-4,-0.0103 -6.4e-4,-0.013 z" />
    </clipPath>
    <clipPath
       clipPathUnits="userSpaceOnUse"
       id="clipPath1334-2-9-6">
      <path
         id="path1336-0-0"
         style="fill:#ff0000;fill-opacity:1;fill-rule:nonzero;stroke:none;stroke-width:0.264583"
         d="m -640.39551,708.3024 -8.8102,2.69022 v 9.90906 c 0.30573,-0.5093 0.38407,-0.63889 0.59208,-0.6968 0.0781,-0.0213 0.17642,-0.0367 0.31556,-0.0638 0.11254,0.0135 0.22583,0.0258 0.33779,0.0408 0.008,8.2e-4 -0.0161,-10e-4 -0.0244,6.4e-4 -0.0897,0.0153 -0.35667,0.053 -0.26947,0.0492 0.58763,-0.0256 0.33615,-0.12399 0.40502,0.0203 0.0754,0.004 0.15094,0.0131 0.18814,0.0322 0.0656,0.0342 0.11298,0.088 0.15723,0.1451 -0.0358,-0.002 -0.0739,0.002 -0.11223,0.006 0.0475,0.007 0.0934,0.0162 0.13827,0.0268 -0.008,-0.0112 -0.0164,-0.0222 -0.025,-0.0327 0.0323,9.9e-4 0.0638,0.005 0.0927,0.0146 0.10796,0.034 0.25123,0.33387 0.16048,0.27612 -0.0664,-0.0423 -0.11448,-0.10408 -0.16048,-0.16776 0.0325,0.0736 0.0666,0.15003 0.0267,0.12189 -0.0345,-0.0239 -0.05,-0.0386 -0.0797,-0.0604 0.0535,0.0525 0.10416,0.1076 0.15671,0.16101 -0.0551,0.0269 -0.10946,0.0576 -0.16376,0.0913 0.12242,0.0369 0.21986,0.0873 0.30742,0.14064 0.008,-0.002 0.0158,-5.4e-4 0.0239,-0.002 0,-0.0202 0.003,-0.0408 0.003,-0.0517 -0.0547,-0.0604 -0.11145,-0.11896 -0.16861,-0.1771 0.006,-0.002 0.0114,-0.007 0.0169,-0.01 0.0302,-0.014 0.0524,-0.005 0.0634,8.3e-4 -0.0186,-0.0255 -0.006,-0.004 -0.0314,-0.0436 -0.004,-0.007 0.0172,0.0172 0.0267,0.0254 0.015,0.0261 0.0147,0.0233 0.006,0.0179 0.10221,0.14128 0.10288,0.10817 0.0884,0.1863 0.0139,0.0157 0.0287,0.0303 0.0428,0.0455 0.089,-0.009 0.18533,-10e-4 0.32044,0.0254 -0.003,-0.0187 -0.003,-0.0177 -0.007,-0.0432 -0.036,-0.02 -0.14546,-0.0782 -0.1079,-0.0602 0.0837,0.04 0.16165,0.0825 0.23641,0.12785 0.0103,0.002 0.0153,0.003 0.0261,0.005 0.0694,0.0153 0.24382,0.0885 0.16376,0.11012 -0.009,0.003 -0.0158,3e-5 -0.0239,4.7e-4 v 0 l 0.003,0.002 c 0.004,0.005 0.007,0.0102 0.0108,0.0144 0.0228,0.0201 0.0471,0.039 0.0678,0.0611 0.0737,0.0359 0.14483,0.0811 0.20929,0.13809 0.0181,3e-4 0.0362,-0.003 0.0542,-9e-4 0.0408,0.005 0.10255,0.0226 0.16701,0.0436 0.14715,-0.0603 0.29454,-0.10977 0.45055,-0.12131 0,0.003 0.003,0.002 0.003,0.004 0.0158,-0.005 0.0314,-0.01 0.0472,-0.0169 0.0735,-0.0224 0.14663,-0.0447 0.22014,-0.0671 0.32752,-0.0972 0.5765,-0.10111 0.75636,-0.05 0.2272,-0.018 0.39409,0.0238 0.50641,0.10212 0.003,-0.0771 0.006,-0.1568 0.007,-0.17006 0.004,-0.0241 0.006,0.0726 0.009,0.18206 0.004,0.003 0.009,0.005 0.0136,0.009 0.275,-0.23098 0.9578,0.44957 0.95969,0.55388 0.0264,1.19433 -0.54128,1.85487 -1.1343,1.23897 -0.19047,0.0581 -0.39914,0.0387 -0.59966,-0.0953 0.0111,0.0278 0.0167,0.0529 0.0331,0.083 0.009,0.0169 -0.15568,-0.0948 -0.31935,-0.23749 -0.17109,-0.0409 -0.30704,-0.038 -0.0477,-0.045 -0.0395,-0.0361 -0.0797,-0.0726 -0.1144,-0.10989 -0.28926,0.0928 -0.49791,0.14937 -0.70542,0.093 -0.18497,0.12272 -0.47996,0.20131 -0.62026,0.24734 -0.64113,0.0524 -0.40067,0.0779 -0.83282,-0.008 -0.0286,-0.006 -0.057,-0.012 -0.0857,-0.0177 -0.0332,0.0101 -0.0631,0.0142 -0.096,0.0215 0.0656,0.0819 0.12781,0.16678 0.1941,0.24811 -0.003,0.11829 -0.003,0.23499 -0.006,0.35303 -0.0203,1.33568 -1.58774,-1.08989 -1.4531,0.19309 0.003,0.0309 0.006,0.0615 0.0103,0.0924 0.18927,0.0224 0.37871,0.0454 0.55521,0.0921 0.0357,0.01 -0.0828,0.0421 -0.1247,0.0587 -0.0742,0.0302 -0.16848,0.0663 -0.2635,0.0953 0.0255,0.0211 0.0513,0.0422 0.077,0.0632 -0.096,0.0129 -0.18777,0.0204 -0.24777,-0.0254 0,0 6e-5,-0.003 -0.003,-0.002 -0.0749,0.009 -0.14516,0.009 -0.19466,-0.0189 -0.0559,-0.0318 -0.0979,-0.0778 -0.13608,-0.1279 -0.0388,-0.0143 -0.0622,-0.0277 -0.0954,-0.0413 v 2.71576 l 8.81291,-2.68853 z m -6.08835,12.86179 c -0.003,-0.003 -0.009,-0.005 -0.013,-0.007 0.003,0.002 0.005,0.004 0.007,0.006 0.003,-8.6e-4 0.004,10e-4 0.006,10e-4 z m 2.04082,-9.47471 v 0.003 0.003 0.005 l -0.003,10e-4 0.004,0.001 0.004,-0.001 c 0.0617,-0.0213 0.12314,-0.0403 0.18436,-0.0499 0.38223,-0.0739 0.56404,-0.0775 0.85558,0.07 0.0589,0.0298 0.19718,0.10955 0.17947,0.1457 0.0278,0.003 0.0557,0.005 0.0835,0.008 0.0272,0.0864 0.16042,0.30198 0.0819,0.25921 -0.18733,-0.10159 -0.27394,-0.17213 -0.31611,-0.22518 -0.24141,0.0545 -0.43559,0.096 -0.58286,0.12412 0.0516,0.0821 0.13733,0.17732 0.22827,0.27561 0.11515,0.01 0.23436,0.0326 0.35784,0.079 0.088,0.0331 0.17345,0.0702 0.26406,0.0992 0.0941,-0.0209 0.18791,-0.0389 0.25104,-7.3e-4 0.0498,0.03 0.1197,0.0784 0.19138,0.13271 0.10055,0.0358 0.20512,0.0838 0.30309,0.15578 0.006,0.005 0.008,0.0132 0.0125,0.0194 0.19938,-0.0704 0.36877,-0.0974 0.5091,-0.0933 0.0474,-0.0825 0.11754,-0.19114 0.13178,-0.19732 v -0.0419 c -5e-5,-0.0176 0,-0.0254 0,-0.0369 -0.0153,0.002 -0.0236,0.005 -0.0504,0.0109 -0.0554,-0.012 -0.0919,-0.0278 -0.12037,-0.0485 -0.036,-0.002 -0.0945,-0.0223 -0.24399,-0.0595 -0.0197,-0.005 0.004,-0.0435 0.006,-0.0649 0.0105,-0.0272 0.0203,-0.054 0.0309,-0.0814 0,0.009 -0.005,0.0368 0,0.0266 0.0122,-0.0284 0.015,-0.0606 0.0282,-0.0879 -0.0203,0.0168 -0.0401,0.0342 -0.0602,0.0509 -0.0128,0.006 -0.0255,0.0106 -0.0385,0.0158 0.0167,-0.0142 0.0325,-0.0283 0.0423,-0.0459 0,-0.003 0.003,-0.006 0.003,-0.008 -0.015,0.0136 -0.0305,0.0277 -0.0374,0.0296 -0.003,0.008 -0.006,0.0157 -0.009,0.024 0,1.3e-4 -0.003,8.5e-4 -0.003,8.5e-4 0,0.003 -0.003,0.005 -0.003,0.008 -0.008,0.002 -0.0164,0.008 -0.0255,0.0108 0.006,6.6e-4 0.0133,-0.004 0.0169,-0.002 0.003,-0.003 0.005,-0.005 0.008,-0.008 -0.006,0.0147 -0.0106,0.0297 -0.0158,0.0437 -0.0472,0.0184 -0.0791,0.0335 -0.10626,0.0453 -0.0172,0.0249 -0.0343,0.0496 -0.0521,0.074 l 0.003,-8.5e-4 c -0.23355,0.32718 -0.49869,0.21356 -0.2879,-0.12248 0.1403,-0.22363 0.3181,-0.40719 0.52267,-0.58499 0.003,-0.003 0.006,-0.004 0.009,-0.007 0.005,-0.009 0.0103,-0.0178 0.0158,-0.0265 0.0566,-0.0935 0.13314,-0.13173 0.20604,-0.1402 0.0678,-0.0519 0.13713,-0.0994 0.20928,-0.14265 0.005,-0.006 0.009,-0.007 0.0131,-0.0123 0,-0.003 0,-0.006 0.003,-0.008 0.003,-0.006 0.0144,-0.0147 0.0205,-0.0217 0.003,-0.009 0.004,-0.0172 0.007,-0.0258 0.0442,-0.0284 0.0881,-0.0569 0.13283,-0.0844 0.003,-9.6e-4 -0.003,0.005 -0.003,0.007 -0.004,0.004 -0.006,0.009 -0.0103,0.013 0.003,-9.8e-4 0.004,-10e-4 0.006,-0.002 0.0128,-0.0248 0.0269,-0.0493 0.0401,-0.0738 0.0343,-0.0103 0.0768,-0.0418 0.10899,-0.0471 0.0108,-7.8e-4 0.0205,5.5e-4 0.0282,0.005 0.0217,0.0153 0.0623,0.0574 0.0873,0.10833 0.003,-0.004 0.004,-0.008 0.006,-0.0121 0.0155,-0.0224 0.0111,0.042 0.006,0.0666 0.007,0.0409 0.004,0.083 -0.0358,0.12127 -0.006,0.005 -0.0114,0.01 -0.0169,0.015 -0.0358,0.0597 -0.0859,0.11199 -0.15615,0.13678 0,0.003 -0.003,0.005 -0.004,0.007 -0.005,0.004 -0.0103,0.008 -0.0158,0.0122 0.0147,-0.01 0.0295,-0.0193 0.0461,-0.0259 0.0385,-0.0153 0.0811,-0.0217 0.12742,-0.0162 -0.0169,0.15763 -0.009,0.23382 0.007,0.2614 0.004,-0.004 0.004,-0.004 0.009,-0.007 0.018,-0.0146 0.003,-0.0511 0.0216,-0.0608 0.0147,-0.007 -0.0133,0.0422 -0.0266,0.0776 0.0186,0.0163 0.0454,-0.0194 0.0656,-0.086 0,-0.004 -0.003,-0.0117 0,-0.0108 0.0197,0.007 0.0203,0.0342 0.0298,0.052 0.01,0.0401 0.0233,0.0848 0.0228,0.13245 0.0164,0.0206 0.0255,0.0419 0.0298,0.0643 0.044,0.0231 0.0714,0.0767 0.0824,0.11375 0.003,0.007 0,0.0169 0,0.0252 0.0322,0.0174 0.0708,0.073 0.0336,0.10499 -0.0239,0.0206 -0.049,0.0376 -0.0754,0.0535 0.0158,0.005 0.0335,0.009 0.0385,0.0173 v 0.004 c 0.0108,0.002 0.0205,0.005 0.0309,0.007 0.003,-9.5e-4 0.009,-0.003 0.0119,6.5e-4 0.0352,0.0304 0.0759,0.0564 0.0998,0.0966 0.006,0.01 0.007,0.0333 0.008,0.0543 -0.006,-0.012 -0.0139,-0.0282 -0.0114,-0.0212 0.004,0.0124 0.009,0.0244 0.0153,0.0357 -2e-4,-0.004 -2.5e-4,-0.009 -0.003,-0.0123 l 0.003,-10e-4 c 0,0.003 0.003,0.003 0.003,0.004 0,0.0108 3e-5,0.0116 0,0.0149 0.008,0.0165 0.0153,0.0336 0.0205,0.0514 0.007,0.0242 0.004,0.0556 0,0.0857 0.004,0.003 0.007,0.007 0.0103,0.0122 0.01,0.0184 0.0203,0.0366 0.0278,0.0571 0.015,0.0509 0.007,0.0648 -0.003,0.12249 -0.003,0.006 3e-5,2e-4 -0.003,0.006 0.003,-10e-4 0.003,0.0118 0.003,0.0151 v 0.029 c -1.4e-4,0.0347 0,0.0692 0,0.10392 0.0119,0.11871 -0.0128,0.24225 -0.0564,0.37085 -0.0293,-0.23842 -0.0133,-0.12417 -0.0282,0.0205 -0.0244,0.0393 -0.0445,0.0807 -0.0656,0.12149 -0.003,0.0123 -0.004,0.0226 -0.006,0.0357 -0.0314,0.10621 -0.088,0.17691 -0.1475,0.21935 0.0293,0.30839 -0.14666,0.28998 -0.79215,1.00753 -0.0105,0.012 0.0283,-0.0112 0.0423,-0.0159 0.0292,-0.017 0.11326,-0.0729 0.0873,-0.0513 -0.0688,0.0584 -0.15277,0.098 -0.23261,0.12906 -0.44997,0.1762 -0.46196,0.17159 -0.90005,0.0268 -0.0568,-0.0187 -0.0817,-0.0773 -0.12254,-0.11579 -0.0169,-0.041 -0.0351,-0.0813 -0.0515,-0.12268 -0.003,-0.003 -0.007,-0.005 -0.0103,-0.008 -0.006,0.002 -0.0164,0.002 -0.0217,0.003 -0.0275,-0.0313 -0.0547,-0.0624 -0.0824,-0.0936 0.003,-9.9e-4 0.006,-0.002 0.006,10e-4 -0.0108,-0.0128 -0.0217,-0.0257 -0.032,-0.039 -0.004,-10e-4 -0.009,-0.002 -0.0131,-0.002 0.0119,0.0132 0.0239,0.0268 0.0358,0.0403 -0.0383,5.9e-4 -0.0751,-2.9e-4 -0.1079,-0.0114 -0.0836,-0.0272 -0.19044,-0.20358 -0.19899,-0.26979 -0.004,-10e-4 -0.008,-8.3e-4 -0.0114,-0.002 -0.0329,-0.009 -0.05,-0.034 -0.0629,-0.0641 -0.0125,10e-4 -0.0258,0.004 -0.0385,0.005 -0.0233,-0.0253 -0.0436,-0.0535 -0.0656,-0.08 -0.009,-0.002 -0.0242,-0.002 -0.0309,-0.005 -0.0414,-0.0181 -0.0785,-0.041 -0.11548,-0.0648 -0.0722,-0.0113 -0.13428,-0.0285 -0.18381,-0.0518 -0.10893,0.0221 -0.21209,0.0204 -0.29279,-0.0358 -0.0136,-0.009 -0.0239,-0.0214 -0.0358,-0.0324 -0.0421,0.0128 -0.0843,0.0258 -0.12634,0.0345 -0.0167,0.005 -0.0341,0.0105 -0.0504,0.0108 -0.0128,8.7e-4 0.0125,-0.0136 0.0374,-0.0268 -0.23128,0.11801 -0.42299,0.21964 -0.66964,0.21159 -0.0445,-0.0129 -0.089,-0.0252 -0.13336,-0.0381 -0.006,0.0653 -0.0183,0.12317 -0.0499,0.15706 -0.45389,0.37432 -0.85766,0.84489 -1.36255,1.12293 -0.1805,0.0995 -0.37046,-0.007 -0.48689,-0.10464 -0.48939,-0.40984 -0.4686,-0.85302 -0.13447,-1.43408 0.0128,-0.0782 0.0233,-0.1561 0.0407,-0.23502 0.0353,-0.16058 0.12123,-0.32419 0.15723,-0.48483 -0.009,0.0399 -0.0172,0.0793 -0.0278,0.11977 -0.0425,0.18576 -0.0557,0.31482 -0.0455,0.39758 0.0294,-0.0447 0.0554,-0.0878 0.0878,-0.13417 0.093,-0.13282 0.2094,-0.25364 0.31395,-0.38045 0.45744,-0.5551 0.91465,-0.85055 1.28284,-0.94003 0.0858,-0.0209 0.16526,-0.028 0.24019,-0.027 0.16864,-0.12274 0.38284,-0.23348 0.64629,-0.3139 0.0614,-0.0188 0.12337,-0.0409 0.18491,-0.0615 z m 0.50316,0.10409 c -0.003,10e-4 -0.004,0.004 -0.007,0.005 0.18158,0.0162 0.36278,0.033 0.54439,0.0492 -0.0194,-0.11418 0.28601,-0.0731 -0.19791,-0.0938 -0.17086,-0.007 -0.27871,0.008 -0.33943,0.0395 z m 2.41659,-0.57911 c -0.003,10e-4 -0.007,0.005 -0.01,0.006 0.004,-9.5e-4 0.009,-0.003 0.0131,-0.007 0,-1.3e-4 -0.003,8.9e-4 -0.003,10e-4 z m -0.0325,0.0213 c -0.0233,0.0167 -0.0437,0.0388 -0.0618,0.0593 v 0.005 c 0.0203,-0.0216 0.0462,-0.0514 0.0629,-0.064 z m 0.0493,-1.7e-4 v 0.003 l 0.003,-0.001 z m 0,0.004 c -0.0142,0.008 -0.0285,0.0165 -0.0342,0.0261 -0.003,0.006 -0.005,0.0119 -0.007,0.0175 8e-5,-5e-5 -0.003,0.004 -0.003,0.004 0.004,0.005 0.006,0.0118 0.0103,0.0176 0.0119,-0.0213 0.0236,-0.0424 0.0347,-0.0638 z m -0.11441,0.0605 v 0.003 l 0.003,-10e-4 z m 0.0445,-0.0136 c 0,0 -0.003,8.5e-4 -0.003,0.004 0,-2.5e-4 0.003,-8.5e-4 0.003,-8.5e-4 z m -0.004,0.005 c -0.009,0.005 -0.0189,0.0105 -0.0282,0.0154 0,0.003 -0.003,0.005 -0.004,0.007 0,0.003 -0.003,0.004 -0.003,0.006 0.0119,-0.01 0.0236,-0.019 0.0352,-0.0284 z m -0.039,0.0154 c -0.006,0.007 -0.0125,0.0131 -0.02,0.0217 0,0 -0.003,0.006 -0.003,0.007 0.004,-9.9e-4 0.007,-0.005 0.0103,-0.007 v -0.004 c 0.003,-10e-4 0.004,-0.004 0.0103,-0.006 0,-0.004 0,-0.007 0.003,-0.0119 z m 0,0.0144 c -0.004,9.6e-4 -0.006,0.005 -0.0103,0.007 -0.003,0.003 -0.003,0.006 -0.004,0.009 0,0 0.003,-0.004 0.003,-0.001 0.004,-0.004 0.008,-0.006 0.0119,-0.009 v -0.006 z m -0.0158,0.0162 c 0.003,-0.003 -0.006,0.004 -0.007,0.005 v 0.005 c 0.003,-0.003 0.004,-0.004 0.006,-0.005 z m 0.0136,6.4e-4 c -0.003,0.006 -0.006,0.0112 -0.009,0.0172 l 0.007,-0.009 c 0,-0.003 0,-0.005 0.003,-0.008 z m -0.0428,0.0181 c 0,0 -0.003,8.1e-4 -0.003,0.004 l 0.003,-10e-4 z m -0.003,0.004 c -0.0208,0.0167 -0.045,0.0364 -0.0586,0.0464 -0.003,0.008 -0.003,0.0152 -0.004,0.0229 l 0.004,-0.004 c 0,0 0,0 0,0 0,0 0,0 0,0 0.003,-0.005 0.003,-0.0102 0.006,-0.0143 0.004,-0.005 0.0136,-0.009 0.0222,-0.0146 -0.0105,0.01 -0.0194,0.0193 -0.0287,0.0289 0.0139,-0.0123 0.0258,-0.026 0.0401,-0.0378 -0.004,10e-4 -0.007,0.005 -0.0103,0.007 0.005,-0.004 0.009,-0.008 0.0142,-0.0131 0.003,-0.004 0.003,-0.007 0.004,-0.01 0.005,-0.005 0.007,-0.007 0.0103,-0.0104 z m -0.0342,0.0602 c -0.007,0.002 -0.0175,0.0101 -0.0304,0.0176 0,0.005 -0.003,0.0104 -0.003,0.0152 0.0117,-0.0106 0.0214,-0.0216 0.0331,-0.0328 z m 0.29604,-0.0322 c 0,-0.003 -0.003,-0.002 -0.006,0.004 -0.009,0.0166 -0.0136,0.0336 -0.02,0.0504 0.004,0.002 0.006,0.007 0.0103,0.009 0.003,0.002 0.004,-10e-4 0.006,10e-4 0.0103,-0.02 0.0136,-0.0556 0.0103,-0.0632 z m 0.0618,0.0191 c -0.003,0.003 -0.003,0.005 -0.004,0.007 0.003,-0.003 0.003,-0.004 0.004,-0.006 z m -0.14641,0.18553 c -0.003,8.8e-4 -0.003,0.004 -0.004,0.005 0.003,-8.6e-4 0.004,-0.004 0.006,-0.005 z m -0.004,0.005 c -0.003,8.8e-4 -0.004,0.004 -0.006,0.005 -0.009,0.006 -0.0189,0.0103 -0.0282,0.0154 -0.003,8.8e-4 -0.003,0.004 -0.006,0.004 l -0.003,10e-4 -0.003,0.005 c -0.003,9.1e-4 -0.004,0.001 -0.006,0.004 -0.008,0.0115 -0.0142,0.0245 -0.0244,0.035 -0.009,0.0124 -0.0153,0.0251 -0.025,0.0362 -0.003,0.003 -0.0114,0.007 -0.0172,0.0115 0.0122,0.002 0.0241,0.002 0.0358,0.008 0.0192,-0.0462 0.0474,-0.0874 0.0819,-0.12348 z m -0.13827,0.0885 c -0.003,9.3e-4 -0.004,0.004 -0.005,0.005 0.003,-9.6e-4 0.004,-0.004 0.006,-0.005 z m -0.62895,0.19439 c -0.005,0.004 -0.01,0.009 -0.0141,0.0111 0,0 -2.5e-4,0.003 -0.003,0.005 0.007,-0.006 0.007,-0.006 0.0153,-0.013 0.003,-6.7e-4 0.003,-8.5e-4 0.003,-0.003 z m 0.41261,0.0701 c 0,0 0,0.003 -0.003,0.004 l 0.003,-10e-4 z m -0.003,0.004 -0.003,8.4e-4 c -0.004,0.006 -0.009,0.0113 -0.013,0.0168 0.003,-10e-4 0.006,-0.004 0.008,-0.005 0.003,-0.004 0.005,-0.008 0.007,-0.0109 z m -0.16862,0.0706 c -0.009,0.008 -0.0189,0.0174 -0.0282,0.0242 0.007,-0.005 0.013,-0.007 0.02,-0.0106 l 0.006,-0.006 c 0,-0.003 0.003,-0.006 0.003,-0.008 z m -0.0597,0.0306 c -0.006,0.005 -0.0111,0.0109 -0.0169,0.0165 -0.006,0.012 -0.0119,0.0253 -0.0172,0.0378 0.009,-0.003 0.0172,-0.009 0.0255,-0.0133 0.005,-0.0169 0.009,-0.0287 0.0103,-0.0406 z m -0.0461,0.0416 c -0.005,0.005 -0.009,0.012 -0.0147,0.0184 0,0.003 0.004,0.002 0.0103,9e-4 0.003,-0.006 0.003,-0.0128 0.006,-0.0179 z m -0.98733,0.42827 c 0.0117,0.004 0.0689,0.008 0.15507,0.0212 -0.0108,-0.0118 -0.0192,-0.0265 -0.0309,-0.0369 -0.0208,0.002 -0.0446,0.003 -0.0705,0.005 -0.0164,0.002 -0.052,0.009 -0.0537,0.0108 z m 0.0998,-0.0249 v 0 c 0.0103,-1e-4 0.0139,3.1e-4 0.0222,4e-5 -0.003,-0.002 -0.003,-0.004 -0.004,-0.004 -0.0144,0.002 -0.0103,0.003 -0.0178,0.003 z m 1.93347,-0.26035 c -0.0164,0.009 -0.0333,0.0182 -0.0504,0.0262 0.009,0.005 0.0169,0.0105 0.0261,0.0152 0.004,-9.6e-4 0.008,-0.005 0.0114,-0.007 0.0125,0.008 0.0183,0.0202 0.0287,0.0292 0.0175,0.009 0.0322,0.019 0.0472,0.0299 0.003,-0.0299 0.004,-0.0583 -0.006,-0.081 -0.0192,-0.004 -0.0374,-0.009 -0.0564,-0.0129 z m -0.6192,0.27855 c -0.008,0.0226 -0.0373,0.0408 -0.0499,0.0635 -0.0128,0.0223 -0.0147,0.0468 -0.0169,0.0687 0.0228,-0.0393 0.0448,-0.0792 0.0667,-0.11887 1.1e-4,-0.004 -5e-5,-0.0106 0,-0.0134 z m 0.8274,-0.0914 c 0.003,0.0104 0.003,0.0134 0.003,0.006 0,-0.003 -0.003,-0.004 -0.003,-0.006 z m -3.60238,1.26494 c -0.0316,0.0172 -0.0515,0.0286 -0.17078,0.0964 0.0216,0.0191 0.10815,0.0114 0.25048,-0.0188 -0.0178,-0.0245 -0.032,-0.0523 -0.0461,-0.08 -0.0117,10e-4 -0.0222,0.002 -0.0336,0.003 z m 3.65496,-0.9254 c -0.003,0.0125 -0.0255,0.0739 0.003,-0.001 0,2e-4 0,-0.004 -0.003,0.001 z m -2.85032,1.01338 c 0.004,0.003 0.006,0.006 0.0103,0.009 0,-0.003 -0.003,-0.007 -0.006,-0.01 -0.003,8.9e-4 -0.003,0.001 -0.004,0.001 z m 0.0553,0.18209 c 0.006,0.0193 0.0133,0.0378 0.0172,0.0588 0.004,0.003 0.009,0.008 0.0131,0.0117 0.01,-2e-5 0.0205,-4.6e-4 0.0309,-0.002 0.0155,0.0182 0.0314,0.0368 0.0472,0.0551 0.0206,-0.003 0.0407,-0.006 0.0613,-0.009 -0.0108,-0.0164 -0.0222,-0.0323 -0.0331,-0.0485 -0.003,-0.002 -0.006,-7.4e-4 -0.006,-0.003 -0.0236,0.003 -0.0461,0.004 -0.07,0.005 -0.02,-0.0229 -0.0409,-0.0447 -0.0602,-0.0678 z m 0.0169,0.0712 c 0.005,0.0232 0.0136,0.0429 0.0222,0.0627 0.0197,-0.002 0.0403,-0.006 0.0602,-0.008 -0.0236,-0.0186 -0.0478,-0.0367 -0.0721,-0.0548 -0.003,10e-4 -0.007,0.002 -0.0103,10e-5 z m 0.15507,0.0428 c 0.009,0.0122 0.0169,0.0247 0.0255,0.037 0.0194,-8.8e-4 0.0394,-0.01 0.0607,-0.0127 -0.0186,-0.011 -0.0329,-0.0199 -0.0488,-0.0294 -0.0119,8.6e-4 -0.0253,0.002 -0.0374,0.005 z m 2.5505,-0.76723 c 0.003,0.004 -0.004,0.0534 0,0.0286 -0.003,0.007 -0.004,0.0128 -0.006,0.0179 v 0.003 c -2e-5,0.005 0,0.0113 -0.003,0.0165 -0.003,0.0166 -0.0186,0.0402 -0.0358,0.0454 -0.0164,0.005 0.0236,-0.0291 0.032,-0.0447 0.003,-0.006 0.004,-0.011 0.006,-0.0172 2.3e-4,-6e-5 0,-0.004 0,-0.004 0.003,-0.0151 0.004,-0.0292 0.005,-0.0439 z m -2.59711,0.79734 c 0.0191,0.0217 0.0373,0.0441 0.0564,0.0655 0.003,0.002 0.004,0.004 0.007,0.005 -0.003,-0.002 -0.003,-0.003 -0.004,-0.004 0.0161,8.9e-4 0.033,7.9e-4 0.0499,4.2e-4 -0.0125,-0.0186 -0.0261,-0.0364 -0.0385,-0.0552 -0.0308,8.2e-4 -0.0562,-0.002 -0.071,-0.0118 z m 0.1388,-0.0371 c 0.0117,0.0103 0.0217,0.0179 0.0336,0.0272 0.0801,-0.0179 0.14921,-0.0405 0.10191,-0.0399 -0.0437,-3e-5 -0.0898,0.007 -0.135,0.0126 z m -0.0743,0.10588 v 0.003 c 0.0464,0.0523 0.0911,0.10546 0.13772,0.15745 -0.004,-0.0139 -0.004,-0.0205 -0.006,-0.0312 0.0264,0.0332 0.0538,0.0653 0.0797,0.0988 0.0153,0.003 0.0307,0.005 0.0461,0.008 -0.0318,-0.0405 -0.0619,-0.0792 -0.084,-0.11276 -0.0103,0.003 -0.0264,0.004 -0.0352,0.006 -0.005,-0.006 -0.009,-0.0149 -0.0142,-0.0213 0.003,0.004 0.004,0.01 0.006,0.0159 -0.0373,-0.0471 -0.0802,-0.0883 -0.12795,-0.124 z m 1.70684,-0.42217 c 0,0 -0.003,9.4e-4 -0.004,0.004 0.01,0.0472 0.003,-0.0104 0.004,-0.004 z m -1.46882,0.5318 c -0.004,9.5e-4 -0.005,0.002 -0.008,0.002 2.2e-4,0.0226 0.0117,0.0735 0.0293,0.12308 0.0119,0.002 0.0241,0.004 0.0363,0.006 -0.0178,-0.0434 -0.0336,-0.088 -0.0542,-0.12974 0,-0.003 0,-0.003 -0.003,-0.002 z m 0.0287,0.13899 c 0,0 -5e-5,0.003 0.003,0.002 v -0.003 z m 0.003,0.004 -0.003,8.5e-4 c 0,0 -5e-5,0.003 0.003,0.002 z m 0,0.005 c 0,0.003 0.003,0.005 0.003,0.007 0.003,-10e-4 0.004,-10e-4 0.006,0.003 -0.003,-0.003 -0.005,-0.006 -0.007,-0.009 z m -4.49106,6.00175 0.006,0.006 c 0.008,7e-5 0.0153,-0.002 0.0228,-10e-4 -0.01,-0.002 -0.0192,-0.003 -0.0288,-0.005 z m -0.0352,0.0133 c 0.0529,0.0466 0.133,0.10576 0.2185,0.16827 -0.0589,-0.0579 -0.11762,-0.11605 -0.17622,-0.17428 -0.0139,0.002 -0.0281,0.004 -0.0423,0.006 z m 0.78293,0.64524 c 0.003,0.005 0.072,0.0162 0.14205,0.0305 -0.003,-0.0107 -0.005,-0.0296 -0.007,-0.0432 -0.0502,0.004 -0.13705,0.009 -0.135,0.0126 z m 0.14585,0.052 c -0.0144,0.008 -0.0239,0.0189 -0.0189,0.0348 0.004,0.0132 0.0119,0.0241 0.0164,0.0369 0.005,-0.002 0.01,-0.003 0.0147,-0.002 -0.003,-0.02 -0.008,-0.0521 -0.0108,-0.0691 z m 0.35678,0.21227 v 0 c 0.0108,0.0131 0.02,0.0281 0.0303,0.042 -0.005,-0.0154 -0.0125,-0.0286 -0.0178,-0.0438 -0.004,9.4e-4 -0.009,-6e-5 -0.0125,7.9e-4 z m -2.68606,2.25416 c 0.003,0.0175 0.0158,0.0952 0.0428,0.26422 0.0197,0.003 0.0397,0.005 0.0596,0.007 -0.0652,-0.15538 -0.10519,-0.30053 -0.10247,-0.27115 z m -0.1247,0.2912 v 0.0818 c 0.0175,-10e-4 0.0346,-0.002 0.0521,-0.003 -0.0175,-0.0262 -0.0348,-0.0522 -0.0521,-0.0787 z m 4.56965,-1.37488 c -0.0789,0.0636 -0.13103,0.14202 -0.14097,0.24101 0.20851,-0.0384 0.22186,-0.12619 0.14097,-0.24101 z m -3.89299,1.68999 c 0.0792,-0.0108 0.16113,-0.0249 0.22934,-0.0143 0.0603,0.009 -0.13339,0.0195 -0.2006,0.0326 -0.003,9.1e-4 0,0.005 0,0.006 -0.01,-0.008 -0.0194,-0.0163 -0.0287,-0.0242 z" />
    </clipPath>
  </defs>
  <sodipodi:namedview
     id="base"
     pagecolor="#ffffff"
     bordercolor="#666666"
     borderopacity="1.0"
     inkscape:pageopacity="0.0"
     inkscape:pageshadow="2"
     inkscape:zoom="1.3422939"
     inkscape:cx="159.25668"
     inkscape:cy="95.767762"
     inkscape:document-units="mm"
     inkscape:current-layer="layer1"
     inkscape:document-rotation="0"
     showgrid="false"
     inkscape:window-width="1366"
     inkscape:window-height="705"
     inkscape:window-x="-8"
     inkscape:window-y="-8"
     inkscape:window-maximized="1" />
  <metadata
     id="metadata205">
    <rdf:RDF>
      <cc:Work
         rdf:about="">
        <dc:format>image/svg+xml</dc:format>
        <dc:type
           rdf:resource="http://purl.org/dc/dcmitype/StillImage" />
        <dc:title></dc:title>
      </cc:Work>
    </rdf:RDF>
  </metadata>
  <g
     inkscape:label="Layer 1"
     inkscape:groupmode="layer"
     id="layer1"
     transform="translate(-51.220693,-95.973191)">
    <path
       style="fill:none;fill-opacity:1;stroke:#d40000;stroke-width:0.817123;stroke-linecap:round;stroke-linejoin:bevel;stroke-miterlimit:4;stroke-dasharray:none;stroke-opacity:1"
       d="m 76.876794,110.8778 h -6.552682 l 0.03879,8.42778 8.147774,0.0448"
       id="e4"
       sodipodi:nodetypes="cccc" />
    <path
       style="fill:none;fill-opacity:1;stroke:#d40000;stroke-width:0.817123;stroke-linecap:round;stroke-linejoin:bevel;stroke-miterlimit:4;stroke-dasharray:none;stroke-opacity:1"
       d="m 71.226043,99.608349 7.355137,-0.072 v 0"
       id="e1" />
    <path
       style="fill:none;fill-opacity:1;stroke:#d40000;stroke-width:0.817123;stroke-linecap:round;stroke-linejoin:bevel;stroke-miterlimit:4;stroke-dasharray:none;stroke-opacity:1"
       d="m 78.302589,101.27047 -6.647302,-0.0257 -0.009,5.23263"
       id="e3"
       sodipodi:nodetypes="ccc" />
    <path
       style="fill:none;fill-opacity:1;stroke:#d40000;stroke-width:0.817123;stroke-linecap:round;stroke-linejoin:bevel;stroke-miterlimit:4;stroke-dasharray:none;stroke-opacity:1"
       d="m 71.736803,112.15857 v 5.79268 l 6.004838,0.0448"
       id="e5"
       sodipodi:nodetypes="ccc" />
    <path
       style="fill:none;fill-opacity:1;stroke:#d40000;stroke-width:0.817123;stroke-linecap:round;stroke-linejoin:bevel;stroke-miterlimit:4;stroke-dasharray:none;stroke-opacity:1"
       d="m 118.2428,97.636419 -0.0667,9.654331 3.81542,-0.005 -0.0495,7.11354 v 0 0"
       id="i2"
       sodipodi:nodetypes="cccccc" />
    <path
       style="fill:none;fill-opacity:1;stroke:#d40000;stroke-width:0.817123;stroke-linecap:round;stroke-linejoin:bevel;stroke-miterlimit:4;stroke-dasharray:none;stroke-opacity:1"
       d="m 120.82258,99.084669 -0.038,6.453861"
       id="i1"
       sodipodi:nodetypes="cc" />
    <path
       style="fill:none;fill-opacity:1;stroke:#d40000;stroke-width:0.817123;stroke-linecap:round;stroke-linejoin:bevel;stroke-miterlimit:4;stroke-dasharray:none;stroke-opacity:1"
       d="m 119.35632,108.88649 v 8.13695"
       id="i3" />
    <path
       style="opacity:1;fill:none;fill-opacity:1;stroke:#d40000;stroke-width:0.817123;stroke-linecap:round;stroke-linejoin:bevel;stroke-miterlimit:4;stroke-dasharray:none;stroke-opacity:1;paint-order:markers fill stroke"
       id="r1"
       sodipodi:type="arc"
       sodipodi:cx="90.501785"
       sodipodi:cy="103.1497"
       sodipodi:rx="4.2052536"
       sodipodi:ry="4.9776545"
       sodipodi:start="4.712389"
       sodipodi:end="1.5780045"
       sodipodi:arc-type="arc"
       d="m 90.501785,98.172042 a 4.2052536,4.9776545 0 0 1 3.646898,2.499188 4.2052536,4.9776545 0 0 1 -0.01519,4.98798 4.2052536,4.9776545 0 0 1 -3.662023,2.46801"
       sodipodi:open="true" />
    <path
       style="opacity:1;fill:none;fill-opacity:1;stroke:#d40000;stroke-width:0.817123;stroke-linecap:round;stroke-linejoin:bevel;stroke-miterlimit:4;stroke-dasharray:none;stroke-opacity:1;paint-order:markers fill stroke"
       id="r2"
       sodipodi:type="arc"
       sodipodi:cx="89.358055"
       sodipodi:cy="103.332"
       sodipodi:rx="4.0635123"
       sodipodi:ry="3.4898362"
       sodipodi:start="4.712389"
       sodipodi:end="1.5780045"
       sodipodi:arc-type="arc"
       d="m 89.358055,99.842165 a 4.0635123,3.4898362 0 0 1 3.523977,1.752185 4.0635123,3.4898362 0 0 1 -0.01468,3.49707 4.0635123,3.4898362 0 0 1 -3.538591,1.73033"
       sodipodi:open="true" />
    <path
       style="fill:none;fill-opacity:1;stroke:#d40000;stroke-width:0.817123;stroke-linecap:round;stroke-linejoin:bevel;stroke-miterlimit:4;stroke-dasharray:none;stroke-opacity:1;paint-order:markers fill stroke"
       d="m 85.971339,117.87436 -0.06757,-18.006981 3.564363,-0.0181"
       id="r4"
       sodipodi:nodetypes="ccc" />
    <path
       style="fill:none;fill-opacity:1;stroke:#d40000;stroke-width:0.817123;stroke-linecap:round;stroke-linejoin:bevel;stroke-miterlimit:4;stroke-dasharray:none;stroke-opacity:1;paint-order:markers fill stroke"
       d="m 90.549644,108.16427 4.780227,9.71009"
       id="r7"
       sodipodi:nodetypes="cc" />
    <path
       style="fill:none;fill-opacity:1;stroke:#d40000;stroke-width:0.817123;stroke-linecap:round;stroke-linejoin:bevel;stroke-miterlimit:4;stroke-dasharray:none;stroke-opacity:1;paint-order:markers fill stroke"
       d="m 87.116416,109.71319 0.06757,8.11452"
       id="r5"
       sodipodi:nodetypes="cc" />
    <path
       style="fill:none;fill-opacity:1;stroke:#d40000;stroke-width:0.817123;stroke-linecap:round;stroke-linejoin:bevel;stroke-miterlimit:4;stroke-dasharray:none;stroke-opacity:1;paint-order:markers fill stroke"
       d="m 90.549644,98.180669 -2.723264,0.0431"
       id="r3"
       sodipodi:nodetypes="cc" />
    <path
       style="fill:none;fill-opacity:1;stroke:#d40000;stroke-width:0.817123;stroke-linecap:round;stroke-linejoin:bevel;stroke-miterlimit:4;stroke-dasharray:none;stroke-opacity:1;paint-order:markers fill stroke"
       d="m 89.572625,109.42937 3.902125,7.92034"
       id="r6" />
    <path
       style="fill:none;fill-opacity:1;stroke:#d40000;stroke-width:0.817123;stroke-linecap:round;stroke-linejoin:bevel;stroke-miterlimit:4;stroke-dasharray:none;stroke-opacity:1"
       d="m 70.197267,99.513839 v 9.927491 l 6.703766,-0.0885"
       id="e2"
       sodipodi:nodetypes="ccc" />
    <path
       style="fill:none;fill-opacity:1;stroke:#d40000;stroke-width:0.817123;stroke-linecap:round;stroke-linejoin:bevel;stroke-miterlimit:4;stroke-dasharray:none;stroke-opacity:1"
       d="m 55.264711,103.70427 3.739586,13.97975 4.432168,-18.038381"
       id="v2" />
    <path
       style="fill:none;fill-opacity:1;stroke:#d40000;stroke-width:0.81703335;stroke-linecap:round;stroke-linejoin:bevel;stroke-miterlimit:4;stroke-dasharray:none;stroke-opacity:1;stroke-dashoffset:0"
       d="M 57.736344,117.79677 52.910116,99.758379"
       id="v1"
       sodipodi:nodetypes="cc" />
    <path
       style="fill:none;fill-opacity:1;stroke:#d40000;stroke-width:0.81712299;stroke-linecap:round;stroke-linejoin:bevel;stroke-miterlimit:4;stroke-dasharray:none;stroke-opacity:1;opacity:0.9"
       d="m 59.261036,111.97531 2.390949,-9.43027"
       id="v3"
       sodipodi:nodetypes="cc" />
    <path
       style="opacity:1;fill:none;fill-opacity:1;stroke:#d40000;stroke-width:0.572074;stroke-linecap:round;stroke-linejoin:bevel;stroke-miterlimit:4;stroke-dasharray:none;stroke-opacity:1;paint-order:markers fill stroke"
       id="s3"
       sodipodi:type="arc"
       sodipodi:cx="-589.30804"
       sodipodi:cy="548.90472"
       sodipodi:rx="6.2367706"
       sodipodi:ry="3.6040423"
       sodipodi:start="4.712389"
       sodipodi:end="0"
       sodipodi:open="true"
       sodipodi:arc-type="arc"
       d="m -589.30804,545.30068 a 6.2367706,3.6040423 0 0 1 6.23677,3.60404"
       transform="matrix(1.5622109,-0.21187482,-0.07769299,1.3165074,1065.8865,-744.67466)"
       clip-path="url(#clipPath1214-5-2)" />
    <path
       style="opacity:1;fill:none;fill-opacity:1;stroke:#d40000;stroke-width:0.830673;stroke-linecap:round;stroke-linejoin:bevel;stroke-miterlimit:4;stroke-dasharray:none;stroke-opacity:1;paint-order:markers fill stroke"
       id="s2"
       sodipodi:type="arc"
       sodipodi:cx="-133.87889"
       sodipodi:cy="-126.98624"
       sodipodi:rx="11.5886"
       sodipodi:ry="4.3599768"
       sodipodi:start="4.712389"
       sodipodi:end="0"
       sodipodi:open="true"
       sodipodi:arc-type="arc"
       d="m -133.87889,-131.34621 a 11.5886,4.3599768 0 0 1 11.5886,4.35997"
       transform="matrix(-0.99757064,0.06966217,0.18428187,-0.98287344,0,0)" />
    <text
       xml:space="preserve"
       style="font-style:normal;font-weight:normal;font-size:26.1316px;line-height:1.25;font-family:sans-serif;fill:none;fill-opacity:1;stroke:#d40000;stroke-width:0.571858;stroke-linecap:round;stroke-dashed:bevel;stroke-miterlimit:4;stroke-dasharray:none;stroke-opacity:1"
       x="-649.89679"
       y="723.57568"
       id="s1"
       transform="matrix(1.4890149,0.20274547,0,1.3712013,1065.8865,-744.67466)"
       inkscape:transform-center-x="2.4004023"
       inkscape:transform-center-y="-12.466298"
       clip-path="url(#clipPath1334-2-9-6)"><tspan
         sodipodi:role="line"
         id="tspan1259-2"
         x="-649.89679"
         y="723.57568"
         style="font-style:normal;font-variant:normal;font-weight:normal;font-stretch:normal;font-family:Calibri;-inkscape-font-specification:Calibri;fill:none;fill-opacity:1;stroke:#d40000;stroke-width:0.571858;stroke-linecap:round;stroke-linejoin:bevel;stroke-miterlimit:4;stroke-dasharray:none;stroke-opacity:1">s</tspan></text>
    <ellipse
       style="fill:none;fill-opacity:1;stroke:#d40000;stroke-width:0.817123;stroke-linecap:round;stroke-linejoin:bevel;stroke-miterlimit:4;stroke-dasharray:none;stroke-opacity:1"
       id="ellipse1277-5"
       cx="86.734322"
       cy="98.146446"
       rx="0.81632078"
       ry="1.1632622" />
    <ellipse
       style="fill:none;fill-opacity:1;stroke:#d40000;stroke-width:0.817123;stroke-linecap:round;stroke-linejoin:bevel;stroke-miterlimit:4;stroke-dasharray:none;stroke-opacity:1"
       id="cc1"
       cx="52.501991"
       cy="98.212364"
       rx="0.87273633"
       ry="1.2177861" />
    <ellipse
       style="fill:none;fill-opacity:1;stroke:#d40000;stroke-width:0.817123;stroke-linecap:round;stroke-linejoin:bevel;stroke-miterlimit:4;stroke-dasharray:none;stroke-opacity:1"
       id="cc3"
       cx="59.033154"
       cy="119.28699"
       rx="0.87273633"
       ry="1.2177861" />
    <ellipse
       style="fill:none;fill-opacity:1;stroke:#d40000;stroke-width:0.817123;stroke-linecap:round;stroke-linejoin:bevel;stroke-miterlimit:4;stroke-dasharray:none;stroke-opacity:1"
       id="cc2"
       cx="63.523243"
       cy="98.131042"
       rx="0.87273633"
       ry="1.2177861" />
    <ellipse
       style="fill:none;fill-opacity:1;stroke:#d40000;stroke-width:0.817123;stroke-linecap:round;stroke-linejoin:bevel;stroke-miterlimit:4;stroke-dasharray:none;stroke-opacity:1"
       id="cc9"
       cx="86.734322"
       cy="98.146446"
       rx="0.81632078"
       ry="1.1632622" />
    <ellipse
       style="fill:none;fill-opacity:1;stroke:#d40000;stroke-width:0.817123;stroke-linecap:round;stroke-linejoin:bevel;stroke-miterlimit:4;stroke-dasharray:none;stroke-opacity:1"
       id="ellipse1289-8"
       cx="85.930748"
       cy="119.06207"
       rx="0.57473308"
       ry="0.83426505" />
    <ellipse
       style="fill:none;fill-opacity:1;stroke:#d40000;stroke-width:0.817123;stroke-linecap:round;stroke-linejoin:bevel;stroke-miterlimit:4;stroke-dasharray:none;stroke-opacity:1"
       id="cc10"
       cx="85.930748"
       cy="119.06207"
       rx="0.57473308"
       ry="0.83426505" />
    <ellipse
       style="fill:none;fill-opacity:1;stroke:#d40000;stroke-width:0.817123;stroke-linecap:round;stroke-linejoin:bevel;stroke-miterlimit:4;stroke-dasharray:none;stroke-opacity:1"
       id="ellipse1293-6"
       cx="95.583672"
       cy="119.39791"
       rx="0.81632078"
       ry="1.1632622" />
    <ellipse
       style="fill:none;fill-opacity:1;stroke:#d40000;stroke-width:0.817123;stroke-linecap:round;stroke-linejoin:bevel;stroke-miterlimit:4;stroke-dasharray:none;stroke-opacity:1"
       id="cc12"
       cx="95.583672"
       cy="119.39791"
       rx="0.81632078"
       ry="1.1632622" />
    <ellipse
       style="fill:none;fill-opacity:1;stroke:#d40000;stroke-width:0.817123;stroke-linecap:round;stroke-linejoin:bevel;stroke-miterlimit:4;stroke-dasharray:none;stroke-opacity:1"
       id="ellipse1297-9"
       cx="87.280724"
       cy="119.06207"
       rx="0.57473308"
       ry="0.83426505" />
    <ellipse
       style="fill:none;fill-opacity:1;stroke:#d40000;stroke-width:0.817123;stroke-linecap:round;stroke-linejoin:bevel;stroke-miterlimit:4;stroke-dasharray:none;stroke-opacity:1"
       id="cc11"
       cx="87.280724"
       cy="119.06207"
       rx="0.57473308"
       ry="0.83426505" />
    <ellipse
       style="fill:none;fill-opacity:1;stroke:#d40000;stroke-width:0.849413;stroke-linecap:round;stroke-linejoin:bevel;stroke-miterlimit:4;stroke-dasharray:none;stroke-opacity:1"
       id="r8"
       cx="45.489849"
       cy="127.80455"
       rx="0.061685681"
       ry="0.47657093"
       transform="matrix(1,0,0.3789521,0.92541629,0,0)"
       inkscape:transform-center-x="0.15662975"
       inkscape:transform-center-y="0.024328449" />
    <ellipse
       style="fill:none;fill-opacity:1;stroke:#d40000;stroke-width:0.817123;stroke-linecap:round;stroke-linejoin:bevel;stroke-miterlimit:4;stroke-dasharray:none;stroke-opacity:1"
       id="ellipse1303-7"
       cx="119.31882"
       cy="118.62199"
       rx="1.2351235"
       ry="1.1118004" />
    <ellipse
       style="fill:none;fill-opacity:1;stroke:#d40000;stroke-width:0.817123;stroke-linecap:round;stroke-linejoin:bevel;stroke-miterlimit:4;stroke-dasharray:none;stroke-opacity:1"
       id="cc18"
       cx="119.31882"
       cy="118.62199"
       rx="1.2351235"
       ry="1.1118004" />
    <ellipse
       style="fill:none;fill-opacity:1;stroke:#d40000;stroke-width:0.817123;stroke-linecap:round;stroke-linejoin:bevel;stroke-miterlimit:4;stroke-dasharray:none;stroke-opacity:1"
       id="ellipse1307-4"
       cx="121.00467"
       cy="97.493553"
       rx="1.2351235"
       ry="1.1118004" />
    <ellipse
       style="fill:none;fill-opacity:1;stroke:#d40000;stroke-width:0.817123;stroke-linecap:round;stroke-linejoin:bevel;stroke-miterlimit:4;stroke-dasharray:none;stroke-opacity:1"
       id="cc17"
       cx="121.00467"
       cy="97.493553"
       rx="1.2351235"
       ry="1.1118004" />
    <ellipse
       style="fill:none;fill-opacity:1;stroke:#d40000;stroke-width:0.817123;stroke-linecap:round;stroke-linejoin:bevel;stroke-miterlimit:4;stroke-dasharray:none;stroke-opacity:1"
       id="i4"
       cx="121.99308"
       cy="115.86286"
       rx="0.022924364"
       ry="0.61906326" />
    <ellipse
       style="fill:none;fill-opacity:1;stroke:#d40000;stroke-width:0.817123;stroke-linecap:round;stroke-linejoin:bevel;stroke-miterlimit:4;stroke-dasharray:none;stroke-opacity:1"
       id="ellipse1313-8"
       cx="101.77538"
       cy="98.203606"
       rx="0.77390277"
       ry="0.91580194" />
    <ellipse
       style="fill:none;fill-opacity:1;stroke:#d40000;stroke-width:0.817123;stroke-linecap:round;stroke-linejoin:bevel;stroke-miterlimit:4;stroke-dasharray:none;stroke-opacity:1"
       id="cc13"
       cx="101.77538"
       cy="98.203606"
       rx="0.77390277"
       ry="0.91580194" />
    <ellipse
       style="fill:none;fill-opacity:1;stroke:#d40000;stroke-width:0.817123;stroke-linecap:round;stroke-linejoin:bevel;stroke-miterlimit:4;stroke-dasharray:none;stroke-opacity:1"
       id="ellipse1317-1"
       cx="112.221"
       cy="102.7542"
       rx="0.77390277"
       ry="0.91580194" />
    <ellipse
       style="fill:none;fill-opacity:1;stroke:#d40000;stroke-width:0.817123;stroke-linecap:round;stroke-linejoin:bevel;stroke-miterlimit:4;stroke-dasharray:none;stroke-opacity:1"
       id="cc14"
       cx="112.221"
       cy="102.7542"
       rx="0.77390277"
       ry="0.91580194" />
    <ellipse
       style="fill:none;fill-opacity:1;stroke:#d40000;stroke-width:0.817123;stroke-linecap:round;stroke-linejoin:bevel;stroke-miterlimit:4;stroke-dasharray:none;stroke-opacity:1"
       id="ellipse1321-1"
       cx="110.42572"
       cy="119.67654"
       rx="0.77390277"
       ry="0.91580194" />
    <ellipse
       style="fill:none;fill-opacity:1;stroke:#d40000;stroke-width:0.817123;stroke-linecap:round;stroke-linejoin:bevel;stroke-miterlimit:4;stroke-dasharray:none;stroke-opacity:1"
       id="cc15"
       cx="110.42572"
       cy="119.67654"
       rx="0.77390277"
       ry="0.91580194" />
    <ellipse
       style="fill:none;fill-opacity:1;stroke:#d40000;stroke-width:0.817123;stroke-linecap:round;stroke-linejoin:bevel;stroke-miterlimit:4;stroke-dasharray:none;stroke-opacity:1"
       id="ellipse1325-4"
       cx="98.633484"
       cy="115.12595"
       rx="0.77390277"
       ry="0.91580194" />
    <ellipse
       style="fill:none;fill-opacity:1;stroke:#d40000;stroke-width:0.817123;stroke-linecap:round;stroke-linejoin:bevel;stroke-miterlimit:4;stroke-dasharray:none;stroke-opacity:1"
       id="cc16"
       cx="98.633484"
       cy="115.12595"
       rx="0.77390277"
       ry="0.91580194" />
    <ellipse
       style="fill:none;fill-opacity:1;stroke:#d40000;stroke-width:0.994429;stroke-linecap:round;stroke-linejoin:bevel;stroke-miterlimit:4;stroke-dasharray:none;stroke-opacity:1"
       id="s4"
       cx="-25.595541"
       cy="171.58246"
       rx="0.12241069"
       ry="0.50897855"
       transform="matrix(1,0,0.73763725,0.67519722,0,0)"
       inkscape:transform-center-x="0.24478369"
       inkscape:transform-center-y="0.28442006" />
    <ellipse
       style="fill:none;fill-opacity:1;stroke:#d40000;stroke-width:0.817123;stroke-linecap:round;stroke-linejoin:bevel;stroke-miterlimit:4;stroke-dasharray:none;stroke-opacity:1"
       id="cc4"
       cx="70.174637"
       cy="98.085213"
       rx="0.92704725"
       ry="1.0533442" />
    <ellipse
       style="fill:none;fill-opacity:1;stroke:#d40000;stroke-width:0.817123;stroke-linecap:round;stroke-linejoin:bevel;stroke-miterlimit:4;stroke-dasharray:none;stroke-opacity:1"
       id="cc5"
       cx="79.826355"
       cy="99.236794"
       rx="0.92704725"
       ry="1.0533442" />
    <ellipse
       style="fill:none;fill-opacity:1;stroke:#d40000;stroke-width:0.817123;stroke-linecap:round;stroke-linejoin:bevel;stroke-miterlimit:4;stroke-dasharray:none;stroke-opacity:1"
       id="cc6"
       cx="77.806183"
       cy="109.42442"
       rx="0.53670239"
       ry="0.59117007" />
    <ellipse
       style="fill:none;fill-opacity:1;stroke:#d40000;stroke-width:0.817123;stroke-linecap:round;stroke-linejoin:bevel;stroke-miterlimit:4;stroke-dasharray:none;stroke-opacity:1"
       id="cc8"
       cx="79.826355"
       cy="119.34626"
       rx="0.92704725"
       ry="1.0533442" />
    <ellipse
       style="fill:none;fill-opacity:1;stroke:#d40000;stroke-width:0.817123;stroke-linecap:round;stroke-linejoin:bevel;stroke-miterlimit:4;stroke-dasharray:none;stroke-opacity:1"
       id="cc7"
       cx="77.806183"
       cy="111.01898"
       rx="0.53670239"
       ry="0.59117007" />
    <text
       xml:space="preserve"
       style="font-style:normal;font-variant:normal;font-weight:normal;font-stretch:normal;font-size:5.51016px;line-height:1.25;font-family:Arial;-inkscape-font-specification:Arial;fill:#ff0000;fill-opacity:0.998246;stroke:#d40000;stroke-width:0.340127;stroke-miterlimit:4;stroke-dasharray:none;stroke-opacity:1"
       x="80.686707"
       y="112.17342"
       id="text1"
       transform="scale(0.86920318,1.150479)"><tspan
         sodipodi:role="line"
         id="tspan1391-5"
         x="80.686707"
         y="112.17342"
         style="font-style:normal;font-variant:normal;font-weight:normal;font-stretch:normal;font-family:Arial;-inkscape-font-specification:Arial;fill:#ff0000;fill-opacity:0.998246;stroke:#d40000;stroke-width:0.340127;stroke-miterlimit:4;stroke-dasharray:none;stroke-opacity:1"><tspan
   style="font-weight:bold;fill:#ff0000;fill-opacity:0.998246;stroke:#d40000;stroke-width:0.340127;stroke-miterlimit:4;stroke-dasharray:none;stroke-opacity:1"
   id="tspan1387-0">IDE</tspan> FOR YOUR <tspan
   style="font-weight:bold;fill:#ff0000;fill-opacity:0.998246;stroke:#d40000;stroke-width:0.340127;stroke-miterlimit:4;stroke-dasharray:none;stroke-opacity:1"
   id="tspan1389-9">CODE</tspan></tspan></text>
  </g>
</svg>
