<?xml version="1.0" encoding="UTF-8" standalone="no"?>
<svg
   xmlns:dc="http://purl.org/dc/elements/1.1/"
   xmlns:cc="http://creativecommons.org/ns#"
   xmlns:rdf="http://www.w3.org/1999/02/22-rdf-syntax-ns#"
   xmlns:svg="http://www.w3.org/2000/svg"
   xmlns="http://www.w3.org/2000/svg"
   xmlns:sodipodi="http://sodipodi.sourceforge.net/DTD/sodipodi-0.dtd"
   xmlns:inkscape="http://www.inkscape.org/namespaces/inkscape"
   width="132.29167mm"
   height="52.916664mm"
   viewBox="0 0 132.29167 52.916664"
   version="1.1"
   id="svg225"
   inkscape:version="1.0.1 (3bc2e813f5, 2020-09-07)"
   sodipodi:docname="logo light.svg">
  <defs
     id="defs219">
    <clipPath
       clipPathUnits="userSpaceOnUse"
       id="clipPath2072-4-4">
      <path
         id="path2074-1-0"
         style="fill:#ff0000;fill-opacity:1;fill-rule:nonzero;stroke:none;stroke-width:0.264583"
         d="m 103.97608,1347.0868 c -0.092,0.038 -0.1844,0.074 -0.2806,0.1 -0.1154,0.03 -0.23448,0.043 -0.35347,0.056 v 96.5445 h 96.70004 v -96.7 z" />
    </clipPath>
    <clipPath
       clipPathUnits="userSpaceOnUse"
       id="clipPath2062-7-3">
      <path
         id="path2064-4-8"
         style="fill:#ff0000;fill-opacity:1;fill-rule:nonzero;stroke:none;stroke-width:0.264583"
         d="m 213.71718,1333.7356 h -105.6013 c 0.006,0.05 0.012,0.1 0.01,0.1499 -0.004,0.087 -0.0379,0.1713 -0.0419,0.2583 -0.008,0.1761 0.0476,0.3514 0.0233,0.5282 -0.13327,0.8946 0.002,-0.3443 0.0656,0.4873 0.006,0.081 -0.0612,0.1536 -0.0692,0.2346 -0.0218,0.2273 0.0969,0.4695 0.0899,0.6971 -0.003,0.1718 -0.0216,0.3967 0.0351,0.5638 0.0401,0.1183 0.14127,0.2126 0.17157,0.3338 0.0318,0.1272 -0.007,0.2634 0.0103,0.3933 0.1177,0.8596 0.15086,0.074 0.0543,0.9472 0.0401,0.3075 0.10674,0.7378 0.10594,1.0496 -5.3e-4,0.1832 -0.0323,0.3648 -0.0403,0.5477 -0.007,0.166 0.0165,0.3339 -0.005,0.4987 -0.0367,0.2874 -0.17532,0.5553 -0.18862,0.848 -0.0151,0.1267 -0.0375,0.253 -0.0455,0.3804 -0.0799,1.2442 0.0785,-0.5754 5.2e-4,0.6909 -0.006,0.1001 -0.0313,0.1976 -0.0413,0.2976 -0.009,0.099 5.3e-4,0.1992 -0.016,0.2972 -0.0128,0.076 -0.0476,0.1472 -0.0713,0.2212 -0.0222,0.078 -0.0445,0.1555 -0.0667,0.2335 -0.002,0.056 0.009,0.114 -0.004,0.168 -0.0163,0.068 -0.0711,0.1232 -0.0827,0.1912 -0.0107,0.064 0.0305,0.1292 0.0176,0.1922 -0.0294,0.144 -0.14393,0.262 -0.15193,0.4139 -0.15736,0.2277 -0.33457,0.4494 -0.48472,0.6806 -0.0498,0.077 -0.074,0.1708 -0.13436,0.2398 -0.0502,0.057 -0.12613,0.085 -0.18913,0.1277 -0.24695,0.1956 -0.47322,0.429 -0.73536,0.6041 -0.35308,0.2359 -0.7737,0.3644 -1.09089,0.6578 -0.41649,0.1196 -0.58533,0.1604 -0.98547,0.3038 -0.18824,0.068 -0.36724,0.162 -0.56069,0.2129 -0.19048,0.05 -0.39132,0.048 -0.58446,0.086 -0.47725,0.094 -0.9404,0.2523 -1.42368,0.3203 -0.2831,-0.012 -0.56572,-0.037 -0.84905,-0.037 -0.915816,-0.015 -1.854137,0.068 -2.761068,-0.1116 -0.339524,-0.067 -0.657659,-0.2234 -0.997355,-0.2894 -0.288353,-0.056 -0.585306,-0.051 -0.877982,-0.077 -0.22991,-0.059 -0.460635,-0.1182 -0.691431,-0.1783 -0.958072,0.3038 -2.064565,0.619 -3.023589,0.7266 -1.463792,0.1644 -2.051386,0.044 -3.469556,-0.085 v 110.895 H 213.71721 Z m -124.699874,0 v 12.2127 c 0.08876,0.01 0.177892,0.011 0.266133,0.021 0.497187,0.07 0.989831,0.2105 1.491899,0.2098 0.531566,0 1.052962,-0.1475 1.580266,-0.2145 0.189912,-0.024 0.303125,-0.035 0.453718,-0.053 -0.275733,-0.1093 -0.718651,-0.2805 -0.881084,-0.3431 -0.117673,-0.1054 -0.22072,-0.2298 -0.352949,-0.3158 -0.09382,-0.061 -0.221292,-0.057 -0.314192,-0.1199 -0.210492,-0.142 -0.406138,-0.3075 -0.585494,-0.4873 -0.117692,-0.1179 -0.335415,-0.5433 -0.257866,-0.6842 -0.01439,-0.077 0.01302,-0.1744 -0.0052,-0.2454 -0.0093,-0.035 -0.05564,-0.058 -0.05685,-0.095 -0.01008,-0.324 0.142928,0.1139 0.0057,-0.2119 -0.01429,-0.1642 0.0011,-0.082 -0.04806,-0.246 -0.02619,-0.2177 0.04335,-0.4461 0.03255,-0.664 -0.10341,-0.3169 -0.145473,-0.7192 -0.08733,-1.0521 0.01818,-0.104 0.07609,-0.199 0.09198,-0.3034 0.01281,-0.084 -0.0045,-0.1698 -0.0067,-0.2547 0.226298,-0.4349 0.07963,-0.024 0.05168,-0.49 -0.0053,-0.089 0.02894,-0.1755 0.03824,-0.2645 0.024,-0.2279 0.01087,-0.4555 -0.03359,-0.6801 0.150429,-0.5374 0.0084,0.078 0.04031,-0.4625 0.0051,-0.087 0.05235,-0.1693 0.05271,-0.2563 2.65e-4,-0.089 -0.04874,-0.1725 -0.05064,-0.2615 -0.0038,-0.1799 0.08491,-0.355 0.04806,-0.538 0.02167,-0.09 0.04862,-0.1792 0.06511,-0.2713 0.0136,-0.075 5.3e-5,-0.1564 0.02532,-0.2283 0.02695,-0.077 0.110918,-0.1298 0.12764,-0.2099 0.01648,-0.079 -0.02811,-0.1592 -0.03411,-0.2392 -0.03946,-0.5296 0.0464,-0.01 -0.05168,-0.5137 0.02437,-0.09 0.06638,-0.1757 0.07338,-0.2687 0.01532,-0.2018 -0.05894,-0.4011 -0.07028,-0.6031 -0.02764,-0.4926 -0.0021,-0.9794 -0.203605,-1.4484 -0.01095,-0.2767 -0.01257,-0.3173 -0.01654,-0.4181 z m 4.496366,0 c -0.06188,0.2176 -0.126773,0.4361 -0.177768,0.6108 0.0337,0.4994 -0.228476,0.9221 -0.321427,1.3958 -0.02535,0.1291 -0.02011,0.2633 -0.04857,0.3917 -0.170748,0.7703 -0.0723,-0.098 -0.13281,0.5984 -0.193098,0.5065 -0.01876,-0.029 -0.09508,0.461 -0.09542,0.6127 -0.04064,-0.2694 -0.117822,0.4893 -0.01714,0.1691 -0.003,0.3399 -0.01085,0.5096 -0.01035,0.237 0.02611,0.4782 -0.02273,0.7131 -0.01593,0.077 -0.05699,0.1468 -0.0708,0.2238 -0.02487,0.1388 -0.01889,0.2819 -0.04186,0.4211 0.008,0.065 0.02877,0.1299 0.02379,0.1949 -0.0056,0.074 -0.0455,0.1419 -0.0553,0.2149 -0.04637,0.3465 0.05172,0.7186 0.106455,1.0573 -0.04878,0.097 -0.139263,0.1814 -0.146762,0.2894 -0.0075,0.1083 0.09345,0.2009 0.104902,0.309 0.01021,0.096 -0.03214,0.1904 -0.04134,0.2874 -0.0085,0.089 0.005,0.1812 -0.01138,0.2692 -0.105386,0.3015 -0.07096,0.1524 -0.110069,0.446 -0.01135,0.061 -0.02811,0.1209 -0.03411,0.1829 -0.0053,0.054 0.0065,0.1103 0,0.1643 -0.0049,0.041 -0.02008,0.079 -0.03617,0.1179 0.120393,-0.011 0.240823,-0.022 0.361219,-0.032 1.495873,0.4792 -0.684204,-0.157 1.195793,0.139 0.228774,0.036 0.426037,0.1946 0.654224,0.2346 0.264891,0.046 0.539168,-0.013 0.806151,0.019 0.06054,0.01 1.564286,0.3414 1.596284,0.3514 0.269465,0.062 0.533903,0.1555 0.808736,0.1855 1.24327,0.1358 0.686459,-0.044 1.056783,-0.038 1.352109,-0.704 0.179184,-0.062 1.933219,-1.1622 0.31859,-0.2 0.66863,-0.3512 0.97152,-0.5741 0.7098,-0.5225 1.21485,-1.2594 1.71152,-1.9705 0.39232,-0.7228 0.2726,-0.4165 0.4992,-1.1306 0.0579,-0.1825 0.14576,-0.3589 0.16846,-0.5488 0.0236,-0.1981 -0.0201,-0.3979 -0.032,-0.5969 -0.0529,-0.8821 0.0114,-0.4607 -0.26923,-1.3989 -0.0783,-0.3097 -0.1211,-0.6312 -0.23513,-0.9297 -0.15696,-0.4107 -0.71741,-1.4059 -1.00407,-1.8954 z m 10.701678,0 c 0.0395,0.077 0.0773,0.1559 0.11833,0.2326 0.20858,0.3901 0.45781,0.7592 0.64286,1.1611 0.1499,0.3256 0.23911,0.6756 0.35863,1.0134 0.18008,0.9613 0.345,1.7652 0.20257,2.7461 -0.0361,0.2489 -0.11837,0.4888 -0.18397,0.7317 -0.0782,0.2894 -0.12271,0.592 -0.24753,0.8646 -0.11328,0.2474 -0.30519,0.4506 -0.45785,0.6759 -0.6324,0.7718 -1.3063,1.6751 -2.10116,2.2851 -0.3215,0.2466 -0.69097,0.4243 -1.03611,0.6367 -0.32746,0.2014 -0.31802,0.1949 -0.48576,0.2992 0.007,0 0.0184,0 0.0253,0 0.22661,0.011 0.44914,-0.062 0.67386,-0.093 0.97546,0.2937 0.25473,0.1509 1.14101,0.1628 0.52324,0.01 0.39982,0.089 0.88057,-0.01 0.57886,-0.119 0.13589,-0.1507 0.68368,-0.047 0.23532,0 0.34007,-0.2395 0.5333,-0.3095 0.10269,-0.038 0.22312,0.01 0.32659,-0.028 0.0747,-0.025 0.11754,-0.1073 0.18604,-0.1463 0.0669,-0.038 0.3138,-0.1098 0.39171,-0.1338 0.20122,0.059 0.10293,-0.1519 0.17983,-0.1959 0.0385,-0.022 0.0928,0.019 0.13332,0 0.1057,-0.047 -0.18776,-0.034 0.0594,-0.061 -0.14714,-0.14 -0.10093,-0.095 -0.0491,-0.046 -5.3e-4,-2e-4 -5.3e-4,0 -0.001,0 -0.0199,-0.011 -0.0375,-0.024 -0.0434,-0.045 -0.009,-0.033 0.0488,-0.048 0.0677,-0.077 0.0999,-0.1516 0.06,-0.1079 -0.0501,-0.2796 -0.0483,-0.2444 -0.0184,-0.5087 -0.0672,-0.7514 -0.0234,-0.1164 -0.0898,-0.2221 -0.108,-0.3395 -0.0173,-0.1109 0.005,-0.2246 0.003,-0.3369 -0.002,-0.1253 -0.009,-0.2504 -0.0129,-0.3757 0.004,-0.1212 0.0314,-0.2443 0.0114,-0.3638 -0.0277,-0.1656 -0.13515,-0.3126 -0.15245,-0.4795 -0.0171,-0.1658 0.0547,-0.3307 0.0517,-0.4972 -0.003,-0.1837 -0.0587,-0.3632 -0.0677,-0.5467 -0.008,-0.1748 0.0159,-0.3496 0.0165,-0.5245 7.9e-4,-0.1747 -0.009,-0.3494 -0.0129,-0.524 0.0606,-0.4006 0.0532,-0.809 0.12867,-1.2077 0.0208,-0.11 0.0701,-0.215 0.0791,-0.3266 0.007,-0.093 -0.0203,-0.185 -0.0305,-0.278 0.0153,-0.097 0.0307,-0.1945 0.046,-0.2915 -0.0515,-0.5063 -0.0518,-1.0103 -0.13539,-1.5141 0.15483,-0.5932 0.0233,0.069 0.0129,-0.5452 -0.002,-0.089 0.044,-0.1735 0.047,-0.2625 0.002,-0.059 -0.0111,-0.1168 -0.0212,-0.1752 z m 1.97558,9.7426 c 0.0658,0.061 0.14621,0.1322 0.0703,0.046 -0.0177,-0.02 -0.0458,-0.032 -0.0703,-0.046 z" />
    </clipPath>
    <clipPath
       clipPathUnits="userSpaceOnUse"
       id="clipPath1334-2-9-6">
      <path
         id="path1336-0-0"
         style="fill:#ff0000;fill-opacity:1;fill-rule:nonzero;stroke:none;stroke-width:0.264583"
         d="m -640.39551,708.3024 -8.8102,2.69022 v 9.90906 c 0.30573,-0.5093 0.38407,-0.63889 0.59208,-0.6968 0.0781,-0.0213 0.17642,-0.0367 0.31556,-0.0638 0.11254,0.0135 0.22583,0.0258 0.33779,0.0408 0.008,8.2e-4 -0.0161,-10e-4 -0.0244,6.4e-4 -0.0897,0.0153 -0.35667,0.053 -0.26947,0.0492 0.58763,-0.0256 0.33615,-0.12399 0.40502,0.0203 0.0754,0.004 0.15094,0.0131 0.18814,0.0322 0.0656,0.0342 0.11298,0.088 0.15723,0.1451 -0.0358,-0.002 -0.0739,0.002 -0.11223,0.006 0.0475,0.007 0.0934,0.0162 0.13827,0.0268 -0.008,-0.0112 -0.0164,-0.0222 -0.025,-0.0327 0.0323,9.9e-4 0.0638,0.005 0.0927,0.0146 0.10796,0.034 0.25123,0.33387 0.16048,0.27612 -0.0664,-0.0423 -0.11448,-0.10408 -0.16048,-0.16776 0.0325,0.0736 0.0666,0.15003 0.0267,0.12189 -0.0345,-0.0239 -0.05,-0.0386 -0.0797,-0.0604 0.0535,0.0525 0.10416,0.1076 0.15671,0.16101 -0.0551,0.0269 -0.10946,0.0576 -0.16376,0.0913 0.12242,0.0369 0.21986,0.0873 0.30742,0.14064 0.008,-0.002 0.0158,-5.4e-4 0.0239,-0.002 0,-0.0202 0.003,-0.0408 0.003,-0.0517 -0.0547,-0.0604 -0.11145,-0.11896 -0.16861,-0.1771 0.006,-0.002 0.0114,-0.007 0.0169,-0.01 0.0302,-0.014 0.0524,-0.005 0.0634,8.3e-4 -0.0186,-0.0255 -0.006,-0.004 -0.0314,-0.0436 -0.004,-0.007 0.0172,0.0172 0.0267,0.0254 0.015,0.0261 0.0147,0.0233 0.006,0.0179 0.10221,0.14128 0.10288,0.10817 0.0884,0.1863 0.0139,0.0157 0.0287,0.0303 0.0428,0.0455 0.089,-0.009 0.18533,-10e-4 0.32044,0.0254 -0.003,-0.0187 -0.003,-0.0177 -0.007,-0.0432 -0.036,-0.02 -0.14546,-0.0782 -0.1079,-0.0602 0.0837,0.04 0.16165,0.0825 0.23641,0.12785 0.0103,0.002 0.0153,0.003 0.0261,0.005 0.0694,0.0153 0.24382,0.0885 0.16376,0.11012 -0.009,0.003 -0.0158,3e-5 -0.0239,4.7e-4 v 0 l 0.003,0.002 c 0.004,0.005 0.007,0.0102 0.0108,0.0144 0.0228,0.0201 0.0471,0.039 0.0678,0.0611 0.0737,0.0359 0.14483,0.0811 0.20929,0.13809 0.0181,3e-4 0.0362,-0.003 0.0542,-9e-4 0.0408,0.005 0.10255,0.0226 0.16701,0.0436 0.14715,-0.0603 0.29454,-0.10977 0.45055,-0.12131 0,0.003 0.003,0.002 0.003,0.004 0.0158,-0.005 0.0314,-0.01 0.0472,-0.0169 0.0735,-0.0224 0.14663,-0.0447 0.22014,-0.0671 0.32752,-0.0972 0.5765,-0.10111 0.75636,-0.05 0.2272,-0.018 0.39409,0.0238 0.50641,0.10212 0.003,-0.0771 0.006,-0.1568 0.007,-0.17006 0.004,-0.0241 0.006,0.0726 0.009,0.18206 0.004,0.003 0.009,0.005 0.0136,0.009 0.275,-0.23098 0.9578,0.44957 0.95969,0.55388 0.0264,1.19433 -0.54128,1.85487 -1.1343,1.23897 -0.19047,0.0581 -0.39914,0.0387 -0.59966,-0.0953 0.0111,0.0278 0.0167,0.0529 0.0331,0.083 0.009,0.0169 -0.15568,-0.0948 -0.31935,-0.23749 -0.17109,-0.0409 -0.30704,-0.038 -0.0477,-0.045 -0.0395,-0.0361 -0.0797,-0.0726 -0.1144,-0.10989 -0.28926,0.0928 -0.49791,0.14937 -0.70542,0.093 -0.18497,0.12272 -0.47996,0.20131 -0.62026,0.24734 -0.64113,0.0524 -0.40067,0.0779 -0.83282,-0.008 -0.0286,-0.006 -0.057,-0.012 -0.0857,-0.0177 -0.0332,0.0101 -0.0631,0.0142 -0.096,0.0215 0.0656,0.0819 0.12781,0.16678 0.1941,0.24811 -0.003,0.11829 -0.003,0.23499 -0.006,0.35303 -0.0203,1.33568 -1.58774,-1.08989 -1.4531,0.19309 0.003,0.0309 0.006,0.0615 0.0103,0.0924 0.18927,0.0224 0.37871,0.0454 0.55521,0.0921 0.0357,0.01 -0.0828,0.0421 -0.1247,0.0587 -0.0742,0.0302 -0.16848,0.0663 -0.2635,0.0953 0.0255,0.0211 0.0513,0.0422 0.077,0.0632 -0.096,0.0129 -0.18777,0.0204 -0.24777,-0.0254 0,0 6e-5,-0.003 -0.003,-0.002 -0.0749,0.009 -0.14516,0.009 -0.19466,-0.0189 -0.0559,-0.0318 -0.0979,-0.0778 -0.13608,-0.1279 -0.0388,-0.0143 -0.0622,-0.0277 -0.0954,-0.0413 v 2.71576 l 8.81291,-2.68853 z m -6.08835,12.86179 c -0.003,-0.003 -0.009,-0.005 -0.013,-0.007 0.003,0.002 0.005,0.004 0.007,0.006 0.003,-8.6e-4 0.004,10e-4 0.006,10e-4 z m 2.04082,-9.47471 v 0.003 0.003 0.005 l -0.003,10e-4 0.004,0.001 0.004,-0.001 c 0.0617,-0.0213 0.12314,-0.0403 0.18436,-0.0499 0.38223,-0.0739 0.56404,-0.0775 0.85558,0.07 0.0589,0.0298 0.19718,0.10955 0.17947,0.1457 0.0278,0.003 0.0557,0.005 0.0835,0.008 0.0272,0.0864 0.16042,0.30198 0.0819,0.25921 -0.18733,-0.10159 -0.27394,-0.17213 -0.31611,-0.22518 -0.24141,0.0545 -0.43559,0.096 -0.58286,0.12412 0.0516,0.0821 0.13733,0.17732 0.22827,0.27561 0.11515,0.01 0.23436,0.0326 0.35784,0.079 0.088,0.0331 0.17345,0.0702 0.26406,0.0992 0.0941,-0.0209 0.18791,-0.0389 0.25104,-7.3e-4 0.0498,0.03 0.1197,0.0784 0.19138,0.13271 0.10055,0.0358 0.20512,0.0838 0.30309,0.15578 0.006,0.005 0.008,0.0132 0.0125,0.0194 0.19938,-0.0704 0.36877,-0.0974 0.5091,-0.0933 0.0474,-0.0825 0.11754,-0.19114 0.13178,-0.19732 v -0.0419 c -5e-5,-0.0176 0,-0.0254 0,-0.0369 -0.0153,0.002 -0.0236,0.005 -0.0504,0.0109 -0.0554,-0.012 -0.0919,-0.0278 -0.12037,-0.0485 -0.036,-0.002 -0.0945,-0.0223 -0.24399,-0.0595 -0.0197,-0.005 0.004,-0.0435 0.006,-0.0649 0.0105,-0.0272 0.0203,-0.054 0.0309,-0.0814 0,0.009 -0.005,0.0368 0,0.0266 0.0122,-0.0284 0.015,-0.0606 0.0282,-0.0879 -0.0203,0.0168 -0.0401,0.0342 -0.0602,0.0509 -0.0128,0.006 -0.0255,0.0106 -0.0385,0.0158 0.0167,-0.0142 0.0325,-0.0283 0.0423,-0.0459 0,-0.003 0.003,-0.006 0.003,-0.008 -0.015,0.0136 -0.0305,0.0277 -0.0374,0.0296 -0.003,0.008 -0.006,0.0157 -0.009,0.024 0,1.3e-4 -0.003,8.5e-4 -0.003,8.5e-4 0,0.003 -0.003,0.005 -0.003,0.008 -0.008,0.002 -0.0164,0.008 -0.0255,0.0108 0.006,6.6e-4 0.0133,-0.004 0.0169,-0.002 0.003,-0.003 0.005,-0.005 0.008,-0.008 -0.006,0.0147 -0.0106,0.0297 -0.0158,0.0437 -0.0472,0.0184 -0.0791,0.0335 -0.10626,0.0453 -0.0172,0.0249 -0.0343,0.0496 -0.0521,0.074 l 0.003,-8.5e-4 c -0.23355,0.32718 -0.49869,0.21356 -0.2879,-0.12248 0.1403,-0.22363 0.3181,-0.40719 0.52267,-0.58499 0.003,-0.003 0.006,-0.004 0.009,-0.007 0.005,-0.009 0.0103,-0.0178 0.0158,-0.0265 0.0566,-0.0935 0.13314,-0.13173 0.20604,-0.1402 0.0678,-0.0519 0.13713,-0.0994 0.20928,-0.14265 0.005,-0.006 0.009,-0.007 0.0131,-0.0123 0,-0.003 0,-0.006 0.003,-0.008 0.003,-0.006 0.0144,-0.0147 0.0205,-0.0217 0.003,-0.009 0.004,-0.0172 0.007,-0.0258 0.0442,-0.0284 0.0881,-0.0569 0.13283,-0.0844 0.003,-9.6e-4 -0.003,0.005 -0.003,0.007 -0.004,0.004 -0.006,0.009 -0.0103,0.013 0.003,-9.8e-4 0.004,-10e-4 0.006,-0.002 0.0128,-0.0248 0.0269,-0.0493 0.0401,-0.0738 0.0343,-0.0103 0.0768,-0.0418 0.10899,-0.0471 0.0108,-7.8e-4 0.0205,5.5e-4 0.0282,0.005 0.0217,0.0153 0.0623,0.0574 0.0873,0.10833 0.003,-0.004 0.004,-0.008 0.006,-0.0121 0.0155,-0.0224 0.0111,0.042 0.006,0.0666 0.007,0.0409 0.004,0.083 -0.0358,0.12127 -0.006,0.005 -0.0114,0.01 -0.0169,0.015 -0.0358,0.0597 -0.0859,0.11199 -0.15615,0.13678 0,0.003 -0.003,0.005 -0.004,0.007 -0.005,0.004 -0.0103,0.008 -0.0158,0.0122 0.0147,-0.01 0.0295,-0.0193 0.0461,-0.0259 0.0385,-0.0153 0.0811,-0.0217 0.12742,-0.0162 -0.0169,0.15763 -0.009,0.23382 0.007,0.2614 0.004,-0.004 0.004,-0.004 0.009,-0.007 0.018,-0.0146 0.003,-0.0511 0.0216,-0.0608 0.0147,-0.007 -0.0133,0.0422 -0.0266,0.0776 0.0186,0.0163 0.0454,-0.0194 0.0656,-0.086 0,-0.004 -0.003,-0.0117 0,-0.0108 0.0197,0.007 0.0203,0.0342 0.0298,0.052 0.01,0.0401 0.0233,0.0848 0.0228,0.13245 0.0164,0.0206 0.0255,0.0419 0.0298,0.0643 0.044,0.0231 0.0714,0.0767 0.0824,0.11375 0.003,0.007 0,0.0169 0,0.0252 0.0322,0.0174 0.0708,0.073 0.0336,0.10499 -0.0239,0.0206 -0.049,0.0376 -0.0754,0.0535 0.0158,0.005 0.0335,0.009 0.0385,0.0173 v 0.004 c 0.0108,0.002 0.0205,0.005 0.0309,0.007 0.003,-9.5e-4 0.009,-0.003 0.0119,6.5e-4 0.0352,0.0304 0.0759,0.0564 0.0998,0.0966 0.006,0.01 0.007,0.0333 0.008,0.0543 -0.006,-0.012 -0.0139,-0.0282 -0.0114,-0.0212 0.004,0.0124 0.009,0.0244 0.0153,0.0357 -2e-4,-0.004 -2.5e-4,-0.009 -0.003,-0.0123 l 0.003,-10e-4 c 0,0.003 0.003,0.003 0.003,0.004 0,0.0108 3e-5,0.0116 0,0.0149 0.008,0.0165 0.0153,0.0336 0.0205,0.0514 0.007,0.0242 0.004,0.0556 0,0.0857 0.004,0.003 0.007,0.007 0.0103,0.0122 0.01,0.0184 0.0203,0.0366 0.0278,0.0571 0.015,0.0509 0.007,0.0648 -0.003,0.12249 -0.003,0.006 3e-5,2e-4 -0.003,0.006 0.003,-10e-4 0.003,0.0118 0.003,0.0151 v 0.029 c -1.4e-4,0.0347 0,0.0692 0,0.10392 0.0119,0.11871 -0.0128,0.24225 -0.0564,0.37085 -0.0293,-0.23842 -0.0133,-0.12417 -0.0282,0.0205 -0.0244,0.0393 -0.0445,0.0807 -0.0656,0.12149 -0.003,0.0123 -0.004,0.0226 -0.006,0.0357 -0.0314,0.10621 -0.088,0.17691 -0.1475,0.21935 0.0293,0.30839 -0.14666,0.28998 -0.79215,1.00753 -0.0105,0.012 0.0283,-0.0112 0.0423,-0.0159 0.0292,-0.017 0.11326,-0.0729 0.0873,-0.0513 -0.0688,0.0584 -0.15277,0.098 -0.23261,0.12906 -0.44997,0.1762 -0.46196,0.17159 -0.90005,0.0268 -0.0568,-0.0187 -0.0817,-0.0773 -0.12254,-0.11579 -0.0169,-0.041 -0.0351,-0.0813 -0.0515,-0.12268 -0.003,-0.003 -0.007,-0.005 -0.0103,-0.008 -0.006,0.002 -0.0164,0.002 -0.0217,0.003 -0.0275,-0.0313 -0.0547,-0.0624 -0.0824,-0.0936 0.003,-9.9e-4 0.006,-0.002 0.006,10e-4 -0.0108,-0.0128 -0.0217,-0.0257 -0.032,-0.039 -0.004,-10e-4 -0.009,-0.002 -0.0131,-0.002 0.0119,0.0132 0.0239,0.0268 0.0358,0.0403 -0.0383,5.9e-4 -0.0751,-2.9e-4 -0.1079,-0.0114 -0.0836,-0.0272 -0.19044,-0.20358 -0.19899,-0.26979 -0.004,-10e-4 -0.008,-8.3e-4 -0.0114,-0.002 -0.0329,-0.009 -0.05,-0.034 -0.0629,-0.0641 -0.0125,10e-4 -0.0258,0.004 -0.0385,0.005 -0.0233,-0.0253 -0.0436,-0.0535 -0.0656,-0.08 -0.009,-0.002 -0.0242,-0.002 -0.0309,-0.005 -0.0414,-0.0181 -0.0785,-0.041 -0.11548,-0.0648 -0.0722,-0.0113 -0.13428,-0.0285 -0.18381,-0.0518 -0.10893,0.0221 -0.21209,0.0204 -0.29279,-0.0358 -0.0136,-0.009 -0.0239,-0.0214 -0.0358,-0.0324 -0.0421,0.0128 -0.0843,0.0258 -0.12634,0.0345 -0.0167,0.005 -0.0341,0.0105 -0.0504,0.0108 -0.0128,8.7e-4 0.0125,-0.0136 0.0374,-0.0268 -0.23128,0.11801 -0.42299,0.21964 -0.66964,0.21159 -0.0445,-0.0129 -0.089,-0.0252 -0.13336,-0.0381 -0.006,0.0653 -0.0183,0.12317 -0.0499,0.15706 -0.45389,0.37432 -0.85766,0.84489 -1.36255,1.12293 -0.1805,0.0995 -0.37046,-0.007 -0.48689,-0.10464 -0.48939,-0.40984 -0.4686,-0.85302 -0.13447,-1.43408 0.0128,-0.0782 0.0233,-0.1561 0.0407,-0.23502 0.0353,-0.16058 0.12123,-0.32419 0.15723,-0.48483 -0.009,0.0399 -0.0172,0.0793 -0.0278,0.11977 -0.0425,0.18576 -0.0557,0.31482 -0.0455,0.39758 0.0294,-0.0447 0.0554,-0.0878 0.0878,-0.13417 0.093,-0.13282 0.2094,-0.25364 0.31395,-0.38045 0.45744,-0.5551 0.91465,-0.85055 1.28284,-0.94003 0.0858,-0.0209 0.16526,-0.028 0.24019,-0.027 0.16864,-0.12274 0.38284,-0.23348 0.64629,-0.3139 0.0614,-0.0188 0.12337,-0.0409 0.18491,-0.0615 z m 0.50316,0.10409 c -0.003,10e-4 -0.004,0.004 -0.007,0.005 0.18158,0.0162 0.36278,0.033 0.54439,0.0492 -0.0194,-0.11418 0.28601,-0.0731 -0.19791,-0.0938 -0.17086,-0.007 -0.27871,0.008 -0.33943,0.0395 z m 2.41659,-0.57911 c -0.003,10e-4 -0.007,0.005 -0.01,0.006 0.004,-9.5e-4 0.009,-0.003 0.0131,-0.007 0,-1.3e-4 -0.003,8.9e-4 -0.003,10e-4 z m -0.0325,0.0213 c -0.0233,0.0167 -0.0437,0.0388 -0.0618,0.0593 v 0.005 c 0.0203,-0.0216 0.0462,-0.0514 0.0629,-0.064 z m 0.0493,-1.7e-4 v 0.003 l 0.003,-0.001 z m 0,0.004 c -0.0142,0.008 -0.0285,0.0165 -0.0342,0.0261 -0.003,0.006 -0.005,0.0119 -0.007,0.0175 8e-5,-5e-5 -0.003,0.004 -0.003,0.004 0.004,0.005 0.006,0.0118 0.0103,0.0176 0.0119,-0.0213 0.0236,-0.0424 0.0347,-0.0638 z m -0.11441,0.0605 v 0.003 l 0.003,-10e-4 z m 0.0445,-0.0136 c 0,0 -0.003,8.5e-4 -0.003,0.004 0,-2.5e-4 0.003,-8.5e-4 0.003,-8.5e-4 z m -0.004,0.005 c -0.009,0.005 -0.0189,0.0105 -0.0282,0.0154 0,0.003 -0.003,0.005 -0.004,0.007 0,0.003 -0.003,0.004 -0.003,0.006 0.0119,-0.01 0.0236,-0.019 0.0352,-0.0284 z m -0.039,0.0154 c -0.006,0.007 -0.0125,0.0131 -0.02,0.0217 0,0 -0.003,0.006 -0.003,0.007 0.004,-9.9e-4 0.007,-0.005 0.0103,-0.007 v -0.004 c 0.003,-10e-4 0.004,-0.004 0.0103,-0.006 0,-0.004 0,-0.007 0.003,-0.0119 z m 0,0.0144 c -0.004,9.6e-4 -0.006,0.005 -0.0103,0.007 -0.003,0.003 -0.003,0.006 -0.004,0.009 0,0 0.003,-0.004 0.003,-0.001 0.004,-0.004 0.008,-0.006 0.0119,-0.009 v -0.006 z m -0.0158,0.0162 c 0.003,-0.003 -0.006,0.004 -0.007,0.005 v 0.005 c 0.003,-0.003 0.004,-0.004 0.006,-0.005 z m 0.0136,6.4e-4 c -0.003,0.006 -0.006,0.0112 -0.009,0.0172 l 0.007,-0.009 c 0,-0.003 0,-0.005 0.003,-0.008 z m -0.0428,0.0181 c 0,0 -0.003,8.1e-4 -0.003,0.004 l 0.003,-10e-4 z m -0.003,0.004 c -0.0208,0.0167 -0.045,0.0364 -0.0586,0.0464 -0.003,0.008 -0.003,0.0152 -0.004,0.0229 l 0.004,-0.004 c 0,0 0,0 0,0 0,0 0,0 0,0 0.003,-0.005 0.003,-0.0102 0.006,-0.0143 0.004,-0.005 0.0136,-0.009 0.0222,-0.0146 -0.0105,0.01 -0.0194,0.0193 -0.0287,0.0289 0.0139,-0.0123 0.0258,-0.026 0.0401,-0.0378 -0.004,10e-4 -0.007,0.005 -0.0103,0.007 0.005,-0.004 0.009,-0.008 0.0142,-0.0131 0.003,-0.004 0.003,-0.007 0.004,-0.01 0.005,-0.005 0.007,-0.007 0.0103,-0.0104 z m -0.0342,0.0602 c -0.007,0.002 -0.0175,0.0101 -0.0304,0.0176 0,0.005 -0.003,0.0104 -0.003,0.0152 0.0117,-0.0106 0.0214,-0.0216 0.0331,-0.0328 z m 0.29604,-0.0322 c 0,-0.003 -0.003,-0.002 -0.006,0.004 -0.009,0.0166 -0.0136,0.0336 -0.02,0.0504 0.004,0.002 0.006,0.007 0.0103,0.009 0.003,0.002 0.004,-10e-4 0.006,10e-4 0.0103,-0.02 0.0136,-0.0556 0.0103,-0.0632 z m 0.0618,0.0191 c -0.003,0.003 -0.003,0.005 -0.004,0.007 0.003,-0.003 0.003,-0.004 0.004,-0.006 z m -0.14641,0.18553 c -0.003,8.8e-4 -0.003,0.004 -0.004,0.005 0.003,-8.6e-4 0.004,-0.004 0.006,-0.005 z m -0.004,0.005 c -0.003,8.8e-4 -0.004,0.004 -0.006,0.005 -0.009,0.006 -0.0189,0.0103 -0.0282,0.0154 -0.003,8.8e-4 -0.003,0.004 -0.006,0.004 l -0.003,10e-4 -0.003,0.005 c -0.003,9.1e-4 -0.004,0.001 -0.006,0.004 -0.008,0.0115 -0.0142,0.0245 -0.0244,0.035 -0.009,0.0124 -0.0153,0.0251 -0.025,0.0362 -0.003,0.003 -0.0114,0.007 -0.0172,0.0115 0.0122,0.002 0.0241,0.002 0.0358,0.008 0.0192,-0.0462 0.0474,-0.0874 0.0819,-0.12348 z m -0.13827,0.0885 c -0.003,9.3e-4 -0.004,0.004 -0.005,0.005 0.003,-9.6e-4 0.004,-0.004 0.006,-0.005 z m -0.62895,0.19439 c -0.005,0.004 -0.01,0.009 -0.0141,0.0111 0,0 -2.5e-4,0.003 -0.003,0.005 0.007,-0.006 0.007,-0.006 0.0153,-0.013 0.003,-6.7e-4 0.003,-8.5e-4 0.003,-0.003 z m 0.41261,0.0701 c 0,0 0,0.003 -0.003,0.004 l 0.003,-10e-4 z m -0.003,0.004 -0.003,8.4e-4 c -0.004,0.006 -0.009,0.0113 -0.013,0.0168 0.003,-10e-4 0.006,-0.004 0.008,-0.005 0.003,-0.004 0.005,-0.008 0.007,-0.0109 z m -0.16862,0.0706 c -0.009,0.008 -0.0189,0.0174 -0.0282,0.0242 0.007,-0.005 0.013,-0.007 0.02,-0.0106 l 0.006,-0.006 c 0,-0.003 0.003,-0.006 0.003,-0.008 z m -0.0597,0.0306 c -0.006,0.005 -0.0111,0.0109 -0.0169,0.0165 -0.006,0.012 -0.0119,0.0253 -0.0172,0.0378 0.009,-0.003 0.0172,-0.009 0.0255,-0.0133 0.005,-0.0169 0.009,-0.0287 0.0103,-0.0406 z m -0.0461,0.0416 c -0.005,0.005 -0.009,0.012 -0.0147,0.0184 0,0.003 0.004,0.002 0.0103,9e-4 0.003,-0.006 0.003,-0.0128 0.006,-0.0179 z m -0.98733,0.42827 c 0.0117,0.004 0.0689,0.008 0.15507,0.0212 -0.0108,-0.0118 -0.0192,-0.0265 -0.0309,-0.0369 -0.0208,0.002 -0.0446,0.003 -0.0705,0.005 -0.0164,0.002 -0.052,0.009 -0.0537,0.0108 z m 0.0998,-0.0249 v 0 c 0.0103,-1e-4 0.0139,3.1e-4 0.0222,4e-5 -0.003,-0.002 -0.003,-0.004 -0.004,-0.004 -0.0144,0.002 -0.0103,0.003 -0.0178,0.003 z m 1.93347,-0.26035 c -0.0164,0.009 -0.0333,0.0182 -0.0504,0.0262 0.009,0.005 0.0169,0.0105 0.0261,0.0152 0.004,-9.6e-4 0.008,-0.005 0.0114,-0.007 0.0125,0.008 0.0183,0.0202 0.0287,0.0292 0.0175,0.009 0.0322,0.019 0.0472,0.0299 0.003,-0.0299 0.004,-0.0583 -0.006,-0.081 -0.0192,-0.004 -0.0374,-0.009 -0.0564,-0.0129 z m -0.6192,0.27855 c -0.008,0.0226 -0.0373,0.0408 -0.0499,0.0635 -0.0128,0.0223 -0.0147,0.0468 -0.0169,0.0687 0.0228,-0.0393 0.0448,-0.0792 0.0667,-0.11887 1.1e-4,-0.004 -5e-5,-0.0106 0,-0.0134 z m 0.8274,-0.0914 c 0.003,0.0104 0.003,0.0134 0.003,0.006 0,-0.003 -0.003,-0.004 -0.003,-0.006 z m -3.60238,1.26494 c -0.0316,0.0172 -0.0515,0.0286 -0.17078,0.0964 0.0216,0.0191 0.10815,0.0114 0.25048,-0.0188 -0.0178,-0.0245 -0.032,-0.0523 -0.0461,-0.08 -0.0117,10e-4 -0.0222,0.002 -0.0336,0.003 z m 3.65496,-0.9254 c -0.003,0.0125 -0.0255,0.0739 0.003,-0.001 0,2e-4 0,-0.004 -0.003,0.001 z m -2.85032,1.01338 c 0.004,0.003 0.006,0.006 0.0103,0.009 0,-0.003 -0.003,-0.007 -0.006,-0.01 -0.003,8.9e-4 -0.003,0.001 -0.004,0.001 z m 0.0553,0.18209 c 0.006,0.0193 0.0133,0.0378 0.0172,0.0588 0.004,0.003 0.009,0.008 0.0131,0.0117 0.01,-2e-5 0.0205,-4.6e-4 0.0309,-0.002 0.0155,0.0182 0.0314,0.0368 0.0472,0.0551 0.0206,-0.003 0.0407,-0.006 0.0613,-0.009 -0.0108,-0.0164 -0.0222,-0.0323 -0.0331,-0.0485 -0.003,-0.002 -0.006,-7.4e-4 -0.006,-0.003 -0.0236,0.003 -0.0461,0.004 -0.07,0.005 -0.02,-0.0229 -0.0409,-0.0447 -0.0602,-0.0678 z m 0.0169,0.0712 c 0.005,0.0232 0.0136,0.0429 0.0222,0.0627 0.0197,-0.002 0.0403,-0.006 0.0602,-0.008 -0.0236,-0.0186 -0.0478,-0.0367 -0.0721,-0.0548 -0.003,10e-4 -0.007,0.002 -0.0103,10e-5 z m 0.15507,0.0428 c 0.009,0.0122 0.0169,0.0247 0.0255,0.037 0.0194,-8.8e-4 0.0394,-0.01 0.0607,-0.0127 -0.0186,-0.011 -0.0329,-0.0199 -0.0488,-0.0294 -0.0119,8.6e-4 -0.0253,0.002 -0.0374,0.005 z m 2.5505,-0.76723 c 0.003,0.004 -0.004,0.0534 0,0.0286 -0.003,0.007 -0.004,0.0128 -0.006,0.0179 v 0.003 c -2e-5,0.005 0,0.0113 -0.003,0.0165 -0.003,0.0166 -0.0186,0.0402 -0.0358,0.0454 -0.0164,0.005 0.0236,-0.0291 0.032,-0.0447 0.003,-0.006 0.004,-0.011 0.006,-0.0172 2.3e-4,-6e-5 0,-0.004 0,-0.004 0.003,-0.0151 0.004,-0.0292 0.005,-0.0439 z m -2.59711,0.79734 c 0.0191,0.0217 0.0373,0.0441 0.0564,0.0655 0.003,0.002 0.004,0.004 0.007,0.005 -0.003,-0.002 -0.003,-0.003 -0.004,-0.004 0.0161,8.9e-4 0.033,7.9e-4 0.0499,4.2e-4 -0.0125,-0.0186 -0.0261,-0.0364 -0.0385,-0.0552 -0.0308,8.2e-4 -0.0562,-0.002 -0.071,-0.0118 z m 0.1388,-0.0371 c 0.0117,0.0103 0.0217,0.0179 0.0336,0.0272 0.0801,-0.0179 0.14921,-0.0405 0.10191,-0.0399 -0.0437,-3e-5 -0.0898,0.007 -0.135,0.0126 z m -0.0743,0.10588 v 0.003 c 0.0464,0.0523 0.0911,0.10546 0.13772,0.15745 -0.004,-0.0139 -0.004,-0.0205 -0.006,-0.0312 0.0264,0.0332 0.0538,0.0653 0.0797,0.0988 0.0153,0.003 0.0307,0.005 0.0461,0.008 -0.0318,-0.0405 -0.0619,-0.0792 -0.084,-0.11276 -0.0103,0.003 -0.0264,0.004 -0.0352,0.006 -0.005,-0.006 -0.009,-0.0149 -0.0142,-0.0213 0.003,0.004 0.004,0.01 0.006,0.0159 -0.0373,-0.0471 -0.0802,-0.0883 -0.12795,-0.124 z m 1.70684,-0.42217 c 0,0 -0.003,9.4e-4 -0.004,0.004 0.01,0.0472 0.003,-0.0104 0.004,-0.004 z m -1.46882,0.5318 c -0.004,9.5e-4 -0.005,0.002 -0.008,0.002 2.2e-4,0.0226 0.0117,0.0735 0.0293,0.12308 0.0119,0.002 0.0241,0.004 0.0363,0.006 -0.0178,-0.0434 -0.0336,-0.088 -0.0542,-0.12974 0,-0.003 0,-0.003 -0.003,-0.002 z m 0.0287,0.13899 c 0,0 -5e-5,0.003 0.003,0.002 v -0.003 z m 0.003,0.004 -0.003,8.5e-4 c 0,0 -5e-5,0.003 0.003,0.002 z m 0,0.005 c 0,0.003 0.003,0.005 0.003,0.007 0.003,-10e-4 0.004,-10e-4 0.006,0.003 -0.003,-0.003 -0.005,-0.006 -0.007,-0.009 z m -4.49106,6.00175 0.006,0.006 c 0.008,7e-5 0.0153,-0.002 0.0228,-10e-4 -0.01,-0.002 -0.0192,-0.003 -0.0288,-0.005 z m -0.0352,0.0133 c 0.0529,0.0466 0.133,0.10576 0.2185,0.16827 -0.0589,-0.0579 -0.11762,-0.11605 -0.17622,-0.17428 -0.0139,0.002 -0.0281,0.004 -0.0423,0.006 z m 0.78293,0.64524 c 0.003,0.005 0.072,0.0162 0.14205,0.0305 -0.003,-0.0107 -0.005,-0.0296 -0.007,-0.0432 -0.0502,0.004 -0.13705,0.009 -0.135,0.0126 z m 0.14585,0.052 c -0.0144,0.008 -0.0239,0.0189 -0.0189,0.0348 0.004,0.0132 0.0119,0.0241 0.0164,0.0369 0.005,-0.002 0.01,-0.003 0.0147,-0.002 -0.003,-0.02 -0.008,-0.0521 -0.0108,-0.0691 z m 0.35678,0.21227 v 0 c 0.0108,0.0131 0.02,0.0281 0.0303,0.042 -0.005,-0.0154 -0.0125,-0.0286 -0.0178,-0.0438 -0.004,9.4e-4 -0.009,-6e-5 -0.0125,7.9e-4 z m -2.68606,2.25416 c 0.003,0.0175 0.0158,0.0952 0.0428,0.26422 0.0197,0.003 0.0397,0.005 0.0596,0.007 -0.0652,-0.15538 -0.10519,-0.30053 -0.10247,-0.27115 z m -0.1247,0.2912 v 0.0818 c 0.0175,-10e-4 0.0346,-0.002 0.0521,-0.003 -0.0175,-0.0262 -0.0348,-0.0522 -0.0521,-0.0787 z m 4.56965,-1.37488 c -0.0789,0.0636 -0.13103,0.14202 -0.14097,0.24101 0.20851,-0.0384 0.22186,-0.12619 0.14097,-0.24101 z m -3.89299,1.68999 c 0.0792,-0.0108 0.16113,-0.0249 0.22934,-0.0143 0.0603,0.009 -0.13339,0.0195 -0.2006,0.0326 -0.003,9.1e-4 0,0.005 0,0.006 -0.01,-0.008 -0.0194,-0.0163 -0.0287,-0.0242 z" />
    </clipPath>
    <clipPath
       clipPathUnits="userSpaceOnUse"
       id="clipPath1214-5-2">
      <path
         id="path1216-8-1"
         style="fill:#ff0000;fill-opacity:1;fill-rule:nonzero;stroke:none;stroke-width:0.264683"
         d="m -589.75348,544.88118 0.1682,3.382 c 0.0151,-0.0483 0.0319,-0.0959 0.0403,-0.14585 -0.007,0.0391 -0.0136,0.078 -0.0206,0.11716 -0.008,0.0478 -0.0102,0.0833 -0.015,0.12435 l 0.0124,0.24872 c 0.0185,-0.0276 0.0361,-0.055 0.0573,-0.0834 0.0831,-0.11063 0.1896,-0.20139 0.28421,-0.30217 v 0 c 0.41407,-0.44105 0.84145,-0.6096 1.19342,-0.58942 0.0882,0.005 0.17076,0.023 0.24799,0.0506 0.15546,-0.0737 0.35294,-0.1213 0.59849,-0.12399 0.0587,-6.4e-4 0.11762,-0.005 0.17634,-0.008 0.0587,-0.003 0.11723,-0.004 0.17592,0.004 0.36641,0.0409 0.54218,0.0936 0.83236,0.33858 0.0586,0.0496 0.19667,0.17614 0.18141,0.2086 0.0271,0.0113 0.0542,0.0225 0.0813,0.0338 0.0309,0.0992 0.17155,0.36685 0.0928,0.29753 -0.18677,-0.16471 -0.27423,-0.26559 -0.3179,-0.33438 -0.23094,-0.0176 -0.41688,-0.0342 -0.55805,-0.0503 0.0543,0.10225 0.14216,0.22921 0.23549,0.36065 0.11204,0.046 0.22868,0.10677 0.35073,0.19381 0.087,0.0621 0.17164,0.12748 0.26094,0.186 0.0901,0.007 0.17984,0.0174 0.24311,0.077 0.0498,0.047 0.12003,0.11946 0.19229,0.19865 0.0993,0.0688 0.20308,0.15156 0.30169,0.25747 0.006,0.007 0.008,0.0163 0.0131,0.0242 0.0741,-0.005 0.14415,-0.004 0.21037,8.8e-4 l 0.31613,-0.003 c 0.0386,-0.0588 0.0759,-0.10936 0.0798,-0.0992 -3.4e-4,-0.009 -6.1e-4,-0.0111 -0.003,-0.0507 -9.5e-4,-0.0185 -10e-4,-0.0268 -0.002,-0.0388 -0.0147,-0.002 -0.0226,-0.002 -0.0483,-0.004 -0.0543,-0.0297 -0.0905,-0.0577 -0.11912,-0.0882 -0.035,-0.0131 -0.0927,-0.0532 -0.23945,-0.13863 -0.0193,-0.0112 9.9e-4,-0.0439 0.002,-0.0657 0.009,-0.0253 0.0173,-0.0506 0.0262,-0.0758 4.4e-4,0.009 -0.003,0.037 0.001,0.0279 0.0106,-0.0263 0.0108,-0.0595 0.0223,-0.0841 -0.0182,0.0111 -0.0365,0.0221 -0.0546,0.0332 -0.0128,0.003 -0.0257,0.004 -0.0385,0.005 0.0159,-0.01 0.0309,-0.0202 0.0395,-0.0362 -1.1e-4,-0.003 0.002,-0.005 0.002,-0.007 -0.0135,0.01 -0.0277,0.0191 -0.0342,0.0189 -0.003,0.008 -0.006,0.0162 -0.008,0.0245 -0.005,0.017 -0.0107,0.0344 -0.0171,0.0509 -0.0448,0.005 -0.0749,0.0106 -0.10056,0.0146 -0.0154,0.0208 -0.0309,0.0412 -0.0466,0.0615 l 0.003,-3e-5 c -0.20915,0.27114 -0.47236,0.0702 -0.28575,-0.21728 0.12419,-0.19136 0.28732,-0.32952 0.4762,-0.45278 0.003,-0.003 0.005,-0.003 0.008,-0.005 0.005,-0.007 0.009,-0.0155 0.0139,-0.0229 0.0499,-0.0807 0.12157,-0.0965 0.19174,-0.0828 0.0629,-0.0335 0.12813,-0.0619 0.19578,-0.0849 0.005,-0.004 0.007,-0.005 0.0115,-0.009 -1.5e-4,-0.003 -2.9e-4,-0.006 0.002,-0.007 0.003,-0.005 0.0132,-0.0105 0.0188,-0.0158 0.002,-0.008 0.002,-0.0167 0.004,-0.0249 0.0413,-0.0161 0.0824,-0.033 0.12423,-0.0479 0.003,-3e-5 -0.002,0.004 -0.003,0.005 -0.003,0.003 -0.007,0.007 -0.01,0.0104 0.003,-5e-5 0.005,-10e-5 0.007,-7e-5 0.0111,-0.0221 0.0235,-0.0435 0.035,-0.0651 0.0327,-2.5e-4 0.0723,-0.0185 0.10318,-0.0141 l -0.002,0.004 c 0.0105,0.003 0.0199,0.006 0.0275,0.0137 0.0218,0.0228 0.0634,0.0796 0.0902,0.1408 0.003,-0.003 0.003,-0.007 0.005,-0.01 0.0139,-0.0187 0.0132,0.0475 0.0102,0.0718 0.009,0.045 0.008,0.088 -0.0288,0.11621 -0.005,0.004 -0.0111,0.006 -0.0159,0.01 -0.0316,0.0516 -0.0774,0.0909 -0.1441,0.0952 1.4e-4,0.003 -0.002,0.005 -0.003,0.007 -0.005,0.003 -0.0106,0.006 -0.016,0.009 0.014,-0.006 0.0283,-0.0112 0.0443,-0.0129 0.0365,-0.004 0.0774,0.002 0.12257,0.0225 -0.008,0.16015 0.004,0.24283 0.0209,0.27658 0.004,-0.003 0.004,-0.003 0.008,-0.004 0.0167,-0.01 4e-5,-0.0524 0.0183,-0.0566 0.0139,-0.003 -0.0102,0.0401 -0.0212,0.0732 0.0189,0.0228 0.0431,-0.006 0.0591,-0.07 -2e-4,-0.004 -0.003,-0.0132 -5.7e-4,-0.0114 0.0195,0.0133 0.0214,0.0417 0.0316,0.0633 0.0115,0.0451 0.027,0.0968 0.029,0.1466 0.0169,0.0267 0.0269,0.0518 0.0322,0.0768 0.0439,0.0379 0.0727,0.10273 0.0853,0.14496 0.003,0.008 8.4e-4,0.0169 0.001,0.0254 0.0321,0.0282 0.0731,0.0986 0.0386,0.12067 -0.022,0.0143 -0.0459,0.0249 -0.0707,0.0334 0.0158,0.01 0.0335,0.0203 0.0387,0.0306 1.2e-4,0.003 1.9e-4,0.003 2.4e-4,0.005 -0.0188,-0.0101 -0.0367,-0.0213 -0.0553,-0.0315 -0.0159,0.005 -0.0324,0.009 -0.049,0.0119 0.009,0.009 0.0173,0.0178 0.0272,0.0262 0.004,-4e-5 0.008,-0.003 0.0112,-0.003 0.0125,0.0121 0.0188,0.0264 0.0294,0.039 0.0174,0.0146 0.0327,0.0304 0.0478,0.0466 0.002,-0.0304 0.002,-0.0597 -0.01,-0.0868 0.0106,0.006 0.0199,0.0117 0.0303,0.0172 0.003,-4e-5 0.009,3e-5 0.0116,0.005 0.0352,0.0422 0.0748,0.0823 0.10007,0.13083 l 0.91163,-0.01 -0.22472,-4.51862 z m 3.22854,2.92266 c -0.003,6e-5 -0.004,0.003 -0.006,0.003 0.17672,0.0733 0.35308,0.14697 0.52981,0.2203 -0.0248,-0.1259 0.2732,0.0118 -0.19659,-0.15981 -0.16587,-0.0606 -0.26952,-0.0784 -0.32666,-0.0637 z m 2.31034,0.14029 c -0.003,2.4e-4 -0.006,0.003 -0.009,0.003 0.004,-7e-5 0.008,-9e-5 0.0123,-0.003 -3e-5,-1.4e-4 -0.003,2e-5 -0.003,2e-5 z m -0.0304,0.0122 c -0.0217,0.0103 -0.0403,0.0267 -0.0568,0.0425 1.4e-4,0.003 1.8e-4,0.003 2.6e-4,0.005 0.0185,-0.0164 0.0421,-0.0397 0.0576,-0.0477 z m 0.0493,0.0135 c -0.0136,0.004 -0.0271,0.009 -0.0323,0.0162 -0.003,0.005 -0.004,0.0106 -0.007,0.0157 5e-5,0 -0.003,0.003 -0.002,0.004 0.004,0.007 0.007,0.0142 0.0108,0.0211 0.0107,-0.0192 0.0209,-0.0378 0.0308,-0.0572 z m -0.0678,0.0282 c -0.01,0.003 -0.0201,0.006 -0.0301,0.009 1.4e-4,0.003 -0.002,0.005 -0.003,0.007 l -0.003,3e-5 v 0 c 1.4e-4,0.003 -0.003,0.003 -0.002,0.005 0.0123,-0.007 0.0242,-0.0138 0.0362,-0.0211 z m -0.039,0.006 c -0.007,0.006 -0.0123,0.009 -0.0193,0.0158 0,0 -0.002,0.004 -0.002,0.005 0.003,-4e-5 0.006,-0.003 0.01,-0.004 l -1.5e-4,-0.003 c 0.003,-4e-5 0.004,-0.003 0.0102,-0.003 -2e-4,-0.004 -3.2e-4,-0.007 0.002,-0.0109 z m 0.004,0.01 c -0.003,3e-5 -0.003,0.003 -0.006,0.003 v 0 c 0.003,-0.003 0.003,-0.003 0.005,-0.003 z m -0.006,0.004 c -0.003,6e-5 -0.006,0.003 -0.009,0.004 -0.003,0.003 -0.002,0.006 -0.004,0.007 0,0 0.003,-0.003 0.003,-2e-5 0.004,-0.003 0.007,-0.004 0.0111,-0.006 -1.2e-4,-0.003 -1.6e-4,-0.003 -2.7e-4,-0.005 z m -0.0129,0.011 c 0,0 0,0 0,0 v 0 c -3e-5,1.1e-4 0.003,-2e-5 0,0 z m 0,0 c 8e-5,0 -0.005,0.003 -0.006,0.003 0,0 1.3e-4,0.003 1.8e-4,0.004 0.003,-0.003 0.005,-0.003 0.006,-0.004 z m 0.0141,0.003 c -0.003,0.006 -0.006,0.0117 -0.009,0.0176 0.003,-0.003 0.005,-0.004 0.007,-0.006 -2.3e-4,-0.004 0.002,-0.008 0.002,-0.0119 z m -0.0389,0.007 c -0.0203,0.0116 -0.0448,0.0262 -0.0583,0.0327 -0.002,0.007 -0.002,0.0154 -0.003,0.0228 0,0 0.003,-0.003 0.004,-0.003 0,0 0,0 0,0 0,0 0,0 0,0 0.002,-0.004 0.004,-0.009 0.008,-0.0125 0.004,-0.004 0.0127,-0.006 0.0207,-0.01 -0.0102,0.007 -0.0191,0.0148 -0.0283,0.0226 0.0139,-0.009 0.0258,-0.0191 0.0394,-0.0279 -0.004,2e-5 -0.006,0.003 -0.0101,0.004 0.005,-0.003 0.008,-0.006 0.012,-0.009 0.002,-0.003 0.002,-0.007 0.004,-0.009 0.006,-0.005 0.007,-0.005 0.012,-0.009 z m -0.0319,0.0542 c -0.007,1.5e-4 -0.0178,0.004 -0.0305,0.0101 2.5e-4,0.005 -0.002,0.0101 -0.002,0.0151 0.0112,-0.008 0.0219,-0.0167 0.0329,-0.0247 z m 0.27745,0.0611 c -0.007,0.0144 -0.0114,0.0305 -0.0168,0.0457 0.004,0.004 0.006,0.009 0.01,0.0129 0.003,0.003 0.004,4e-5 0.006,0.003 0.012,-0.0237 0.0105,-0.0805 10e-4,-0.0616 z m 0.0659,0.0365 c -0.003,0.003 -0.002,0.004 -0.004,0.006 0.003,-0.003 0.003,-0.003 0.005,-0.005 z m -0.11843,0.14358 c 0,0 0,0 -0.003,3e-5 -10e-6,-2.4e-4 -10e-6,-2.7e-4 0.003,-3e-5 z m -0.003,3e-5 c -0.007,0.004 -0.0133,0.009 -0.0206,0.0121 -0.008,0.004 -0.0177,0.006 -0.0264,0.009 -0.003,4e-5 -0.003,0.003 -0.005,0.003 0,0 -0.002,0.004 -0.002,0.005 -0.003,0.003 -0.005,0.003 -0.007,0.004 -0.007,0.0101 -0.0124,0.0213 -0.0218,0.0292 -0.008,0.0102 -0.0135,0.0216 -0.0223,0.0303 -0.003,0.003 -0.0106,0.005 -0.0161,0.007 0.0117,0.006 0.0238,0.0101 0.0351,0.0192 0.0185,-0.0492 0.0482,-0.0909 0.0871,-0.11892 z m -0.0551,0.0244 -0.003,0.003 c 0.003,-6e-5 0.003,-0.003 0.005,-0.003 z m -0.0882,0.0351 c -0.003,0 -0.004,0.003 -0.006,0.003 0,0 2.1e-4,0.003 -0.003,0.003 0.003,-0.003 0.005,-0.004 0.008,-0.005 z m -0.59761,0.007 c -0.006,0.003 -0.0118,0.007 -0.0159,0.01 0,0 3.1e-4,0.003 -0.002,0.003 0.006,-0.004 0.006,-0.005 0.0136,-0.009 0.003,-3e-5 0.005,-0.005 0.004,-0.004 z m 0.40138,0.20412 c 0,0 1.3e-4,0.003 -0.003,0.003 0,0 0.003,-3e-5 0.003,-3e-5 z m -0.003,0.003 c 0,0 -0.003,2e-5 -0.003,2e-5 -0.004,0.005 -0.008,0.009 -0.0118,0.0136 0.003,-2.7e-4 0.005,-0.003 0.008,-0.003 0.002,-0.003 0.004,-0.007 0.006,-0.0104 z m -0.1591,0.0224 c -0.009,0.006 -0.0177,0.0113 -0.0266,0.0167 0.006,-0.003 0.0128,-0.003 0.0194,-0.004 0.003,-0.003 0.003,-0.003 0.005,-0.004 -1.5e-4,-0.003 0.002,-0.007 0.002,-0.009 z m -0.0567,0.0131 c -0.006,0.004 -0.0112,0.008 -0.0169,0.0121 -0.006,0.0107 -0.0105,0.0224 -0.0147,0.0338 0.009,-1.2e-4 0.0162,-0.004 0.024,-0.006 0.004,-0.0162 0.007,-0.028 0.008,-0.0394 z m -0.0424,0.0294 c -0.005,0.004 -0.008,0.009 -0.0128,0.0142 1.1e-4,0.003 0.004,0.003 0.009,0.003 0.002,-0.006 0.002,-0.0114 0.004,-0.017 z m -0.0252,0.0955 c -0.009,3.6e-4 -0.0173,0.003 -0.0258,0.003 0.006,0.003 0.0127,-3e-4 0.0165,0.003 0.003,-0.003 0.006,-0.004 0.009,-0.006 z m -0.91654,0.0462 v 0 c -1.1e-4,-1.1e-4 0.003,8e-5 0.003,-3e-5 -8e-5,-8e-5 -0.003,3e-5 -0.003,3e-5 z m 0.003,-3e-5 c 0.01,0.007 0.0693,0.0305 0.15498,0.0713 -0.0111,-0.0158 -0.0205,-0.0342 -0.0324,-0.0488 -0.0201,-0.005 -0.0435,-0.0109 -0.0685,-0.0173 -0.0163,-0.002 -0.0554,-0.008 -0.054,-0.005 z m 0.0928,0.005 v 0 c 0.0132,0.004 0.0154,0.006 0.0242,0.008 -0.003,-0.003 -0.003,-0.005 -0.005,-0.007 -0.0155,-0.002 -0.007,-1.7e-4 -0.0197,-0.002 z m 1.28276,0.42783 c -0.006,0.0215 -0.0344,0.0317 -0.0455,0.0517 -0.007,0.0123 -0.007,0.0277 -0.008,0.0425 l 0.009,-1.1e-4 c 0.0151,-0.0271 0.0302,-0.054 0.045,-0.0812 -9e-5,-0.004 -5.6e-4,-0.0103 -6.4e-4,-0.013 z" />
    </clipPath>
    <inkscape:path-effect
       effect="spiro"
       id="path-effect997"
       is_visible="true"
       lpeversion="1" />
    <inkscape:path-effect
       effect="spiro"
       id="path-effect949"
       is_visible="true"
       lpeversion="1" />
  </defs>
  <sodipodi:namedview
     id="base"
     pagecolor="#ffffff"
     bordercolor="#666666"
     borderopacity="1.0"
     inkscape:pageopacity="0.0"
     inkscape:pageshadow="2"
     inkscape:zoom="2.8"
     inkscape:cx="349.72847"
     inkscape:cy="108.31745"
     inkscape:document-units="mm"
     inkscape:current-layer="layer1"
     inkscape:document-rotation="0"
     showgrid="false"
     inkscape:window-width="1267"
     inkscape:window-height="728"
     inkscape:window-x="78"
     inkscape:window-y="0"
     inkscape:window-maximized="0" />
  <metadata
     id="metadata222">
    <rdf:RDF>
      <cc:Work
         rdf:about="">
        <dc:format>image/svg+xml</dc:format>
        <dc:type
           rdf:resource="http://purl.org/dc/dcmitype/StillImage" />
        <dc:title />
      </cc:Work>
    </rdf:RDF>
  </metadata>
  <g
     inkscape:label="Layer 1"
     inkscape:groupmode="layer"
     id="layer1"
     transform="translate(-37.419645,-83.910717)">
    <path
       style="fill:none;fill-opacity:1;stroke:#ffffff;stroke-width:0.817123;stroke-linecap:round;stroke-linejoin:bevel;stroke-miterlimit:4;stroke-dasharray:none;stroke-opacity:1"
       d="m 63.075744,110.05678 h -6.552682 l 0.03879,8.42778 8.147774,0.0448"
       id="e4"
       sodipodi:nodetypes="cccc" />
    <path
       style="fill:none;fill-opacity:1;stroke:#ffffff;stroke-width:0.817123;stroke-linecap:round;stroke-linejoin:bevel;stroke-miterlimit:4;stroke-dasharray:none;stroke-opacity:1"
       d="m 57.424993,98.787325 7.355137,-0.072 v 0"
       id="e1" />
    <path
       style="fill:none;fill-opacity:1;stroke:#ffffff;stroke-width:0.817123;stroke-linecap:round;stroke-linejoin:bevel;stroke-miterlimit:4;stroke-dasharray:none;stroke-opacity:1"
       d="m 64.501539,100.44945 -6.647302,-0.0257 -0.009,5.23263"
       id="e3"
       sodipodi:nodetypes="ccc" />
    <path
       style="fill:none;fill-opacity:1;stroke:#ffffff;stroke-width:0.817123;stroke-linecap:round;stroke-linejoin:bevel;stroke-miterlimit:4;stroke-dasharray:none;stroke-opacity:1"
       d="m 57.935753,111.33755 v 5.79268 l 6.004838,0.0448"
       id="e5"
       sodipodi:nodetypes="ccc" />
    <path
       style="fill:none;fill-opacity:1;stroke:#ffffff;stroke-width:0.817123;stroke-linecap:round;stroke-linejoin:bevel;stroke-miterlimit:4;stroke-dasharray:none;stroke-opacity:1"
       d="m 104.44175,96.815395 -0.0667,9.654335 3.81542,-0.005 -0.0495,7.11354 v 0 0"
       id="i2"
       sodipodi:nodetypes="cccccc" />
    <path
       style="fill:none;fill-opacity:1;stroke:#ffffff;stroke-width:0.817123;stroke-linecap:round;stroke-linejoin:bevel;stroke-miterlimit:4;stroke-dasharray:none;stroke-opacity:1"
       d="m 107.02153,98.263645 -0.038,6.453865"
       id="i1"
       sodipodi:nodetypes="cc" />
    <path
       style="fill:none;fill-opacity:1;stroke:#ffffff;stroke-width:0.817123;stroke-linecap:round;stroke-linejoin:bevel;stroke-miterlimit:4;stroke-dasharray:none;stroke-opacity:1"
       d="m 105.55527,108.06547 v 8.13695"
       id="i3" />
    <path
       style="fill:none;fill-opacity:1;stroke:#ffffff;stroke-width:0.817123;stroke-linecap:round;stroke-linejoin:bevel;stroke-miterlimit:4;stroke-dasharray:none;stroke-opacity:1"
       d="m 157.25888,116.00214 -0.0627,-19.052755 7.92243,16.835695"
       id="n1" />
    <path
       style="fill:none;fill-opacity:1;stroke:#ffffff;stroke-width:0.817123;stroke-linecap:round;stroke-linejoin:bevel;stroke-miterlimit:4;stroke-dasharray:none;stroke-opacity:1"
       d="m 159.45951,116.00214 -0.18866,-9.35317"
       id="n2" />
    <path
       style="fill:none;fill-opacity:1;stroke:#ffffff;stroke-width:0.817123;stroke-linecap:round;stroke-linejoin:bevel;stroke-miterlimit:4;stroke-dasharray:none;stroke-opacity:1"
       d="m 161.40868,101.72989 5.15591,9.97672 0.0338,-14.610265"
       id="n3"
       sodipodi:nodetypes="ccc" />
    <path
       style="fill:none;fill-opacity:1;stroke:#ffffff;stroke-width:0.817123;stroke-linecap:round;stroke-linejoin:bevel;stroke-miterlimit:4;stroke-dasharray:none;stroke-opacity:1"
       d="m 168.40331,98.612155 -0.0156,17.459265"
       id="n4"
       sodipodi:nodetypes="cc" />
    <path
       style="opacity:1;fill:none;fill-opacity:1;stroke:#ffffff;stroke-width:0.817123;stroke-linecap:round;stroke-linejoin:bevel;stroke-miterlimit:4;stroke-dasharray:none;stroke-opacity:1;paint-order:markers fill stroke"
       id="r1"
       sodipodi:type="arc"
       sodipodi:cx="76.700737"
       sodipodi:cy="102.32867"
       sodipodi:rx="4.2052536"
       sodipodi:ry="4.9776545"
       sodipodi:start="4.712389"
       sodipodi:end="1.5780045"
       sodipodi:arc-type="arc"
       d="m 76.700737,97.351012 a 4.2052536,4.9776545 0 0 1 3.646898,2.499192 4.2052536,4.9776545 0 0 1 -0.01519,4.987976 4.2052536,4.9776545 0 0 1 -3.662022,2.46801"
       sodipodi:open="true" />
    <path
       style="opacity:1;fill:none;fill-opacity:1;stroke:#ffffff;stroke-width:0.817123;stroke-linecap:round;stroke-linejoin:bevel;stroke-miterlimit:4;stroke-dasharray:none;stroke-opacity:1;paint-order:markers fill stroke"
       id="r2"
       sodipodi:type="arc"
       sodipodi:cx="75.557007"
       sodipodi:cy="102.51098"
       sodipodi:rx="4.0635123"
       sodipodi:ry="3.4898362"
       sodipodi:start="4.712389"
       sodipodi:end="1.5780045"
       sodipodi:arc-type="arc"
       d="m 75.557007,99.021142 a 4.0635123,3.4898362 0 0 1 3.523976,1.752188 4.0635123,3.4898362 0 0 1 -0.01467,3.49707 4.0635123,3.4898362 0 0 1 -3.538591,1.73032"
       sodipodi:open="true" />
    <path
       style="fill:none;fill-opacity:1;stroke:#ffffff;stroke-width:0.817123;stroke-linecap:round;stroke-linejoin:bevel;stroke-miterlimit:4;stroke-dasharray:none;stroke-opacity:1;paint-order:markers fill stroke"
       d="m 72.170289,117.05334 -0.06757,-18.006985 3.564363,-0.0181"
       id="r4"
       sodipodi:nodetypes="ccc" />
    <path
       style="fill:none;fill-opacity:1;stroke:#ffffff;stroke-width:0.817123;stroke-linecap:round;stroke-linejoin:bevel;stroke-miterlimit:4;stroke-dasharray:none;stroke-opacity:1;paint-order:markers fill stroke"
       d="m 76.748594,107.34325 4.780227,9.71009"
       id="r7"
       sodipodi:nodetypes="cc" />
    <path
       style="fill:none;fill-opacity:1;stroke:#ffffff;stroke-width:0.817123;stroke-linecap:round;stroke-linejoin:bevel;stroke-miterlimit:4;stroke-dasharray:none;stroke-opacity:1;paint-order:markers fill stroke"
       d="m 73.315366,108.89217 0.06757,8.11452"
       id="r5"
       sodipodi:nodetypes="cc" />
    <path
       style="fill:none;fill-opacity:1;stroke:#ffffff;stroke-width:0.817123;stroke-linecap:round;stroke-linejoin:bevel;stroke-miterlimit:4;stroke-dasharray:none;stroke-opacity:1;paint-order:markers fill stroke"
       d="m 76.748594,97.359645 -2.723264,0.0431"
       id="r3"
       sodipodi:nodetypes="cc" />
    <path
       style="fill:none;fill-opacity:1;stroke:#ffffff;stroke-width:0.817123;stroke-linecap:round;stroke-linejoin:bevel;stroke-miterlimit:4;stroke-dasharray:none;stroke-opacity:1;paint-order:markers fill stroke"
       d="m 75.771575,108.60835 3.902125,7.92034"
       id="r6" />
    <path
       style="fill:none;fill-opacity:1;stroke:#ffffff;stroke-width:0.817123;stroke-linecap:round;stroke-linejoin:bevel;stroke-miterlimit:4;stroke-dasharray:none;stroke-opacity:1"
       d="m 56.396217,98.692815 v 9.927495 l 6.703766,-0.0885"
       id="e2"
       sodipodi:nodetypes="ccc" />
    <path
       style="fill:none;fill-opacity:1;stroke:#ffffff;stroke-width:0.817123;stroke-linecap:round;stroke-linejoin:bevel;stroke-miterlimit:4;stroke-dasharray:none;stroke-opacity:1"
       d="M 41.463661,102.88325 45.203247,116.863 49.635415,98.824615"
       id="v2" />
    <path
       style="fill:none;fill-opacity:1;stroke:#ffffff;stroke-width:0.817123;stroke-linecap:round;stroke-linejoin:bevel;stroke-miterlimit:4;stroke-dasharray:none;stroke-opacity:1"
       d="M 43.935294,116.97575 39.109066,98.937355"
       id="v1"
       sodipodi:nodetypes="cc" />
    <path
       style="fill:none;fill-opacity:1;stroke:#ffffff;stroke-width:0.817123;stroke-linecap:round;stroke-linejoin:bevel;stroke-miterlimit:4;stroke-dasharray:none;stroke-opacity:1"
       d="m 45.459986,111.15429 2.390949,-9.43027"
       id="v3"
       sodipodi:nodetypes="cc" />
    <path
       style="opacity:1;fill:none;fill-opacity:1;stroke:#ffffff;stroke-width:0.572074;stroke-linecap:round;stroke-linejoin:bevel;stroke-miterlimit:4;stroke-dasharray:none;stroke-opacity:1;paint-order:markers fill stroke"
       id="s3"
       sodipodi:type="arc"
       sodipodi:cx="-589.30804"
       sodipodi:cy="548.90472"
       sodipodi:rx="6.2367706"
       sodipodi:ry="3.6040423"
       sodipodi:start="4.712389"
       sodipodi:end="0"
       sodipodi:open="true"
       sodipodi:arc-type="arc"
       d="m -589.30804,545.30068 a 6.2367706,3.6040423 0 0 1 6.23677,3.60404"
       transform="matrix(1.5622109,-0.21187482,-0.07769299,1.3165074,1052.0854,-745.49568)"
       clip-path="url(#clipPath1214-5-2)" />
    <path
       style="opacity:1;fill:none;fill-opacity:1;stroke:#ffffff;stroke-width:0.830673;stroke-linecap:round;stroke-linejoin:bevel;stroke-miterlimit:4;stroke-dasharray:none;stroke-opacity:1;paint-order:markers fill stroke"
       id="s2"
       sodipodi:type="arc"
       sodipodi:cx="-119.70433"
       sodipodi:cy="-125.14627"
       sodipodi:rx="11.5886"
       sodipodi:ry="4.3599768"
       sodipodi:start="4.712389"
       sodipodi:end="0"
       sodipodi:open="true"
       sodipodi:arc-type="arc"
       d="m -119.70433,-129.50625 a 11.5886,4.3599768 0 0 1 11.5886,4.35998"
       transform="matrix(-0.99757064,0.06966217,0.18428187,-0.98287344,0,0)" />
    <path
       style="font-variation-settings:normal;opacity:0.909677;vector-effect:none;fill:none;fill-opacity:1;fill-rule:evenodd;stroke:#ffffff;stroke-width:2.94456;stroke-linecap:butt;stroke-linejoin:bevel;stroke-miterlimit:4;stroke-dasharray:none;stroke-dashoffset:0;stroke-opacity:1;paint-order:fill markers stroke;stop-color:#000000;stop-opacity:1"
       id="logo16"
       clip-path="url(#clipPath2062-7-3)"
       sodipodi:type="arc"
       sodipodi:cx="151.36722"
       sodipodi:cy="1396.0864"
       sodipodi:rx="60"
       sodipodi:ry="60"
       sodipodi:start="4.7193703"
       sodipodi:end="4.3511058"
       sodipodi:arc-type="arc"
       d="m 151.78609,1336.0879 a 60,60 0 0 1 59.36408,54.8996 60,60 0 0 1 -49.2094,64.1599 60,60 0 0 1 -68.412318,-43.1024 60,60 0 0 1 36.630278,-72.0852"
       sodipodi:open="true"
       transform="matrix(0.22310023,0,0,0.34517272,97.579754,-374.14392)" />
    <a
       id="logo12"
       transform="matrix(0.76309418,0,0,1.0872818,-246.4057,-764.73898)"
       style="fill:none;fill-opacity:1;stroke:#ffffff;stroke-width:0.897074;stroke-miterlimit:4;stroke-dasharray:none;stroke-opacity:1">
      <path
         style="font-variation-settings:normal;opacity:0.999;vector-effect:none;fill:none;fill-opacity:1;fill-rule:evenodd;stroke:#ffffff;stroke-width:2.94456;stroke-linecap:square;stroke-linejoin:miter;stroke-miterlimit:4;stroke-dasharray:none;stroke-dashoffset:0;stroke-opacity:1;paint-order:markers fill stroke;stop-color:#000000;stop-opacity:1"
         id="path1265-8"
         clip-path="url(#clipPath2072-4-4)"
         sodipodi:type="arc"
         sodipodi:cx="151.69203"
         sodipodi:cy="1395.4368"
         sodipodi:rx="46"
         sodipodi:ry="46"
         sodipodi:start="4.9043752"
         sodipodi:end="4.6698728"
         sodipodi:arc-type="arc"
         d="m 160.46925,1350.2819 a 46,46 0 0 1 36.81433,51.2713 46,46 0 0 1 -49.02616,39.7552 46,46 0 0 1 -42.55942,-46.6126 46,46 0 0 1 44.03888,-45.2175"
         sodipodi:open="true"
         transform="matrix(0.29236265,0,0,0.31746385,450.77729,359.23993)" />
    </a>
    <rect
       style="opacity:1;fill:none;fill-opacity:1;fill-rule:evenodd;stroke:#ffffff;stroke-width:0.823188;stroke-linecap:square;stroke-miterlimit:4;stroke-dasharray:none;stroke-opacity:1;paint-order:stroke fill markers"
       id="logo17"
       width="0.82007605"
       height="5.698421"
       x="140.6869"
       y="50.119461"
       ry="0"
       rx="0"
       transform="matrix(0.96578615,0.25933977,-0.09068109,0.99587998,0,0)" />
    <path
       sodipodi:type="star"
       style="font-variation-settings:normal;opacity:1;vector-effect:none;fill:none;fill-opacity:1;fill-rule:evenodd;stroke:#d40000;stroke-width:3.67498;stroke-linecap:round;stroke-linejoin:bevel;stroke-miterlimit:4;stroke-dasharray:none;stroke-dashoffset:0;stroke-opacity:1;paint-order:fill markers stroke;stop-color:#000000;stop-opacity:1"
       id="logo13"
       sodipodi:sides="3"
       sodipodi:cx="85.442474"
       sodipodi:cy="1479.1655"
       sodipodi:r1="17.052399"
       sodipodi:r2="8.5261993"
       sodipodi:arg1="1.0951011"
       sodipodi:arg2="2.1422987"
       inkscape:flatsided="true"
       inkscape:rounded="0.1"
       inkscape:randomized="0"
       d="m 93.251733,1494.3247 c -2.625642,1.3526 -24.983528,-13.0256 -24.842096,-15.9757 0.141432,-2.9502 23.772206,-15.1236 26.256416,-13.5261 2.484209,1.5976 1.211321,28.1492 -1.41432,29.5018 z"
       inkscape:transform-center-x="-0.8958921"
       inkscape:transform-center-y="0.078177104"
       transform="matrix(-0.21115654,0.02035273,-0.01086395,-0.23308522,165.84068,444.35645)" />
    <path
       sodipodi:type="star"
       style="font-variation-settings:normal;opacity:1;vector-effect:none;fill:none;fill-opacity:1;fill-rule:evenodd;stroke:#d40000;stroke-width:3.67498;stroke-linecap:round;stroke-linejoin:bevel;stroke-miterlimit:4;stroke-dasharray:none;stroke-dashoffset:0;stroke-opacity:1;paint-order:fill markers stroke;stop-color:#000000;stop-opacity:1"
       id="logo14"
       sodipodi:sides="3"
       sodipodi:cx="85.442474"
       sodipodi:cy="1479.1655"
       sodipodi:r1="17.052399"
       sodipodi:r2="8.5261993"
       sodipodi:arg1="1.0951011"
       sodipodi:arg2="2.1422987"
       inkscape:flatsided="true"
       inkscape:rounded="0.1"
       inkscape:randomized="0"
       d="m 93.251733,1494.3247 c -2.625642,1.3526 -24.983528,-13.0256 -24.842096,-15.9757 0.141432,-2.9502 23.772206,-15.1236 26.256416,-13.5261 2.484209,1.5976 1.211321,28.1492 -1.41432,29.5018 z"
       inkscape:transform-center-x="-0.89590337"
       inkscape:transform-center-y="0.078127954"
       transform="matrix(-0.21115654,0.02035273,-0.01086395,-0.23308522,165.85848,451.27723)" />
    <path
       sodipodi:type="star"
       style="opacity:1;fill:#d40000;fill-opacity:1;stroke:#d40000;stroke-width:3.1112;stroke-miterlimit:4;stroke-dasharray:none;stroke-opacity:1;paint-order:markers fill stroke"
       id="logo15"
       sodipodi:sides="3"
       sodipodi:cx="312.37033"
       sodipodi:cy="1397.3979"
       sodipodi:r1="8.0126505"
       sodipodi:r2="4.0063252"
       sodipodi:arg1="-2.6651252"
       sodipodi:arg2="-1.6179277"
       inkscape:flatsided="true"
       inkscape:rounded="0.1"
       inkscape:randomized="0"
       d="m 305.25012,1393.723 c 0.63652,-1.2333 13.11314,-1.8217 13.86291,-0.6539 0.74977,1.1679 -4.9789,12.2672 -6.36519,12.3326 -1.38629,0.065 -8.13424,-10.4454 -7.49772,-11.6787 z"
       inkscape:transform-center-x="0.016923549"
       inkscape:transform-center-y="1.0708916"
       transform="matrix(0.09610703,0.08696753,0,0.71773862,99.86223,-915.07703)" />
    <ellipse
       style="fill:none;fill-opacity:1;stroke:#ffffff;stroke-width:0.817123;stroke-linecap:round;stroke-linejoin:bevel;stroke-miterlimit:4;stroke-dasharray:none;stroke-opacity:1"
       id="cc1"
       cx="38.700943"
       cy="97.391342"
       rx="0.87273633"
       ry="1.2177861" />
    <ellipse
       style="fill:none;fill-opacity:1;stroke:#ffffff;stroke-width:0.817123;stroke-linecap:round;stroke-linejoin:bevel;stroke-miterlimit:4;stroke-dasharray:none;stroke-opacity:1"
       id="cc25"
       cx="112.74577"
       cy="95.695663"
       rx="0.6962477"
       ry="0.87368375" />
    <ellipse
       style="fill:none;fill-opacity:1;stroke:#ffffff;stroke-width:0.817123;stroke-linecap:round;stroke-linejoin:bevel;stroke-miterlimit:4;stroke-dasharray:none;stroke-opacity:1"
       id="cc3"
       cx="45.232105"
       cy="118.46598"
       rx="0.87273633"
       ry="1.2177861" />
    <ellipse
       style="fill:none;fill-opacity:1;stroke:#ffffff;stroke-width:0.817123;stroke-linecap:round;stroke-linejoin:bevel;stroke-miterlimit:4;stroke-dasharray:none;stroke-opacity:1"
       id="cc2"
       cx="49.722191"
       cy="97.31002"
       rx="0.87273633"
       ry="1.2177861" />
    <ellipse
       style="fill:none;fill-opacity:1;stroke:#ffffff;stroke-width:0.817123;stroke-linecap:round;stroke-linejoin:bevel;stroke-miterlimit:4;stroke-dasharray:none;stroke-opacity:1"
       id="cc9"
       cx="72.781654"
       cy="97.173798"
       rx="0.81632078"
       ry="1.1632622" />
    <ellipse
       style="fill:none;fill-opacity:1;stroke:#ffffff;stroke-width:0.817123;stroke-linecap:round;stroke-linejoin:bevel;stroke-miterlimit:4;stroke-dasharray:none;stroke-opacity:1"
       id="cc10"
       cx="71.978081"
       cy="118.46848"
       rx="0.57473308"
       ry="0.83426505" />
    <ellipse
       style="fill:none;fill-opacity:1;stroke:#ffffff;stroke-width:0.817123;stroke-linecap:round;stroke-linejoin:bevel;stroke-miterlimit:4;stroke-dasharray:none;stroke-opacity:1"
       id="cc12"
       cx="82.313301"
       cy="118.72852"
       rx="0.81632078"
       ry="1.1632622" />
    <ellipse
       style="fill:none;fill-opacity:1;stroke:#ffffff;stroke-width:0.817123;stroke-linecap:round;stroke-linejoin:bevel;stroke-miterlimit:4;stroke-dasharray:none;stroke-opacity:1"
       id="cc11"
       cx="73.93454"
       cy="118.39267"
       rx="0.57473308"
       ry="0.83426505" />
    <ellipse
       style="fill:none;fill-opacity:1;stroke:#ffffff;stroke-width:0.817123;stroke-linecap:round;stroke-linejoin:bevel;stroke-miterlimit:4;stroke-dasharray:none;stroke-opacity:1"
       id="cc18"
       cx="105.59357"
       cy="118.10421"
       rx="1.2351235"
       ry="1.1118004" />
    <ellipse
       style="fill:none;fill-opacity:1;stroke:#ffffff;stroke-width:0.817123;stroke-linecap:round;stroke-linejoin:bevel;stroke-miterlimit:4;stroke-dasharray:none;stroke-opacity:1"
       id="cc17"
       cx="107.12782"
       cy="96.672539"
       rx="1.2351235"
       ry="1.1118004" />
    <ellipse
       style="fill:none;fill-opacity:1;stroke:#ffffff;stroke-width:0.817123;stroke-linecap:round;stroke-linejoin:bevel;stroke-miterlimit:4;stroke-dasharray:none;stroke-opacity:1"
       id="i4"
       cx="108.19203"
       cy="115.64833"
       rx="0.022924364"
       ry="0.61906326" />
    <ellipse
       style="fill:none;fill-opacity:1;stroke:#ffffff;stroke-width:0.817123;stroke-linecap:round;stroke-linejoin:bevel;stroke-miterlimit:4;stroke-dasharray:none;stroke-opacity:1"
       id="ellipse1313-8"
       cx="87.974327"
       cy="97.382584"
       rx="0.77390277"
       ry="0.91580194" />
    <ellipse
       style="fill:none;fill-opacity:1;stroke:#ffffff;stroke-width:0.817123;stroke-linecap:round;stroke-linejoin:bevel;stroke-miterlimit:4;stroke-dasharray:none;stroke-opacity:1"
       id="cc14"
       cx="98.495766"
       cy="101.93317"
       rx="0.77390277"
       ry="0.91580194" />
    <ellipse
       style="fill:none;fill-opacity:1;stroke:#ffffff;stroke-width:0.817123;stroke-linecap:round;stroke-linejoin:bevel;stroke-miterlimit:4;stroke-dasharray:none;stroke-opacity:1"
       id="cc15"
       cx="97.079536"
       cy="118.77971"
       rx="0.77390277"
       ry="0.91580194" />
    <ellipse
       style="fill:none;fill-opacity:1;stroke:#ffffff;stroke-width:0.817123;stroke-linecap:round;stroke-linejoin:bevel;stroke-miterlimit:4;stroke-dasharray:none;stroke-opacity:1"
       id="cc16"
       cx="84.618011"
       cy="114.0101"
       rx="0.77390277"
       ry="0.91580194"
       inkscape:transform-center-x="-0.053606276" />
    <ellipse
       style="fill:none;fill-opacity:1;stroke:#ffffff;stroke-width:0.994429;stroke-linecap:round;stroke-linejoin:bevel;stroke-miterlimit:4;stroke-dasharray:none;stroke-opacity:1"
       id="s4"
       cx="-38.499634"
       cy="170.36649"
       rx="0.12241069"
       ry="0.50897855"
       transform="matrix(1,0,0.73763725,0.67519722,0,0)"
       inkscape:transform-center-x="0.24478369"
       inkscape:transform-center-y="0.28442006" />
    <ellipse
       style="fill:none;fill-opacity:1;stroke:#ffffff;stroke-width:0.817123;stroke-linecap:round;stroke-linejoin:bevel;stroke-miterlimit:4;stroke-dasharray:none;stroke-opacity:1"
       id="cc4"
       cx="56.373581"
       cy="97.264198"
       rx="0.92704725"
       ry="1.0533442" />
    <ellipse
       style="fill:none;fill-opacity:1;stroke:#ffffff;stroke-width:0.817123;stroke-linecap:round;stroke-linejoin:bevel;stroke-miterlimit:4;stroke-dasharray:none;stroke-opacity:1"
       id="cc5"
       cx="66.025307"
       cy="98.415771"
       rx="0.92704725"
       ry="1.0533442" />
    <ellipse
       style="fill:none;fill-opacity:1;stroke:#ffffff;stroke-width:0.817123;stroke-linecap:round;stroke-linejoin:bevel;stroke-miterlimit:4;stroke-dasharray:none;stroke-opacity:1"
       id="cc6"
       cx="64.005135"
       cy="108.6034"
       rx="0.53670239"
       ry="0.59117007" />
    <ellipse
       style="fill:none;fill-opacity:1;stroke:#ffffff;stroke-width:0.817123;stroke-linecap:round;stroke-linejoin:bevel;stroke-miterlimit:4;stroke-dasharray:none;stroke-opacity:1"
       id="cc8"
       cx="66.025307"
       cy="118.52525"
       rx="0.92704725"
       ry="1.0533442" />
    <ellipse
       style="fill:none;fill-opacity:1;stroke:#ffffff;stroke-width:0.817123;stroke-linecap:round;stroke-linejoin:bevel;stroke-miterlimit:4;stroke-dasharray:none;stroke-opacity:1"
       id="cc7"
       cx="64.005135"
       cy="110.19796"
       rx="0.53670239"
       ry="0.59117007" />
    <ellipse
       style="fill:none;fill-opacity:1;stroke:#ffffff;stroke-width:0.817123;stroke-linecap:round;stroke-linejoin:bevel;stroke-miterlimit:4;stroke-dasharray:none;stroke-opacity:1"
       id="cc19"
       cx="157.19923"
       cy="95.697807"
       rx="1.0737289"
       ry="0.98186737" />
    <ellipse
       style="fill:none;fill-opacity:1;stroke:#ffffff;stroke-width:0.817123;stroke-linecap:round;stroke-linejoin:bevel;stroke-miterlimit:4;stroke-dasharray:none;stroke-opacity:1"
       id="cc20"
       cx="166.51331"
       cy="95.756203"
       rx="1.0737289"
       ry="0.98186737" />
    <ellipse
       style="fill:none;fill-opacity:1;stroke:#ffffff;stroke-width:0.817123;stroke-linecap:round;stroke-linejoin:bevel;stroke-miterlimit:4;stroke-dasharray:none;stroke-opacity:1"
       id="cc22"
       cx="157.26057"
       cy="117.30221"
       rx="1.0737289"
       ry="0.98186737" />
    <ellipse
       style="fill:none;fill-opacity:1;stroke:#ffffff;stroke-width:0.817123;stroke-linecap:round;stroke-linejoin:bevel;stroke-miterlimit:4;stroke-dasharray:none;stroke-opacity:1"
       id="cc21"
       cx="168.22902"
       cy="117.36064"
       rx="1.0737289"
       ry="0.98186737" />
    <ellipse
       style="fill:none;fill-opacity:1;stroke:#ffffff;stroke-width:0.817123;stroke-linecap:round;stroke-linejoin:bevel;stroke-miterlimit:4;stroke-dasharray:none;stroke-opacity:1"
       id="n5"
       cx="168.36977"
       cy="96.910721"
       rx="0.18382944"
       ry="0.46712267" />
    <path
       style="fill:none;fill-opacity:1;stroke:#ffffff;stroke-width:0.817123;stroke-linecap:butt;stroke-linejoin:miter;stroke-miterlimit:4;stroke-dasharray:none;stroke-opacity:1"
       d="m 122.30289,91.617605 -2.02837,-1.74971 -3.43769,5.55586 -1.73775,-1.46697"
       id="logo2" />
    <path
       style="fill:none;fill-opacity:1;stroke:#ffffff;stroke-width:0.817123;stroke-linecap:butt;stroke-linejoin:miter;stroke-miterlimit:4;stroke-dasharray:none;stroke-opacity:1"
       d="m 113.41869,96.437295 1.9987,1.64381 -1.28223,2.697565 3.73342,2.14961"
       id="logo3" />
    <path
       style="fill:none;fill-opacity:1;stroke:#ffffff;stroke-width:0.817123;stroke-linecap:butt;stroke-linejoin:miter;stroke-miterlimit:4;stroke-dasharray:none;stroke-opacity:1"
       d="m 139.69274,124.2791 4.28949,5.607 3.39589,-4.4856 1.42993,1.79424 -6.25565,7.62553"
       id="logo6" />
    <path
       style="fill:none;fill-opacity:1;stroke:#ffffff;stroke-width:0.817123;stroke-linecap:butt;stroke-linejoin:miter;stroke-miterlimit:4;stroke-dasharray:none;stroke-opacity:1"
       d="m 141.74815,126.97045 5.0044,-6.05555 4.64706,5.38273"
       id="logo7" />
    <path
       style="fill:none;fill-opacity:1;stroke:#ffffff;stroke-width:0.817123;stroke-linecap:butt;stroke-linejoin:miter;stroke-miterlimit:4;stroke-dasharray:none;stroke-opacity:1"
       d="m 148.80805,123.38198 2.14475,-2.57923"
       id="logo8" />
    <path
       style="fill:none;fill-opacity:1;stroke:#ffffff;stroke-width:0.817123;stroke-linecap:butt;stroke-linejoin:miter;stroke-miterlimit:4;stroke-dasharray:none;stroke-opacity:1"
       d="m 138.34059,89.562198 2.76402,-3.561323 1.34048,1.00927 -1.69794,2.01851 3.12777,2.80351 0.98304,-1.23355 -1.87663,-1.79424 1.42983,-2.01852 3.03842,2.8035"
       id="logo1"
       sodipodi:nodetypes="ccccccccc" />
    <path
       style="fill:none;fill-opacity:1;stroke:#ffffff;stroke-width:0.817123;stroke-linecap:butt;stroke-linejoin:miter;stroke-miterlimit:4;stroke-dasharray:none;stroke-opacity:1"
       d="m 142.44509,87.010145 0.98921,-1.16887"
       id="logo9" />
    <path
       style="fill:none;fill-opacity:1;stroke:#ffffff;stroke-width:0.817123;stroke-linecap:butt;stroke-linejoin:miter;stroke-miterlimit:4;stroke-dasharray:none;stroke-opacity:1"
       d="m 145.12327,106.44516 2.41287,0.11214 -0.40214,6.39198 1.87663,0.16821"
       id="logo10" />
    <path
       style="fill:none;fill-opacity:1;stroke:#ffffff;stroke-width:0.817123;stroke-linecap:butt;stroke-linejoin:miter;stroke-miterlimit:4;stroke-dasharray:none;stroke-opacity:1"
       d="m 121.35208,122.42508 -1.69795,2.18673 3.52992,4.03703 -1.65319,2.18674"
       id="logo5" />
    <path
       style="fill:none;fill-opacity:1;stroke:#ffffff;stroke-width:0.817123;stroke-linecap:butt;stroke-linejoin:miter;stroke-miterlimit:4;stroke-dasharray:none;stroke-opacity:1"
       d="m 119.30171,118.2252 -3.48525,3.30813"
       id="logo4" />
    <ellipse
       style="fill:none;fill-opacity:1;stroke:#ffffff;stroke-width:0.817123;stroke-linecap:round;stroke-linejoin:bevel;stroke-miterlimit:4;stroke-dasharray:none;stroke-opacity:1"
       id="cc23"
       cx="114.38878"
       cy="93.237534"
       rx="0.6962477"
       ry="0.87368375" />
    <ellipse
       style="fill:none;fill-opacity:1;stroke:#ffffff;stroke-width:0.817123;stroke-linecap:round;stroke-linejoin:bevel;stroke-miterlimit:4;stroke-dasharray:none;stroke-opacity:1"
       id="cc31"
       cx="114.97997"
       cy="122.16067"
       rx="0.6962477"
       ry="0.87368375" />
    <ellipse
       style="fill:none;fill-opacity:1;stroke:#ffffff;stroke-width:0.817123;stroke-linecap:round;stroke-linejoin:bevel;stroke-miterlimit:4;stroke-dasharray:none;stroke-opacity:1"
       id="cc30"
       cx="120.87808"
       cy="131.58035"
       rx="0.6962477"
       ry="0.87368375" />
    <ellipse
       style="fill:none;fill-opacity:1;stroke:#ffffff;stroke-width:0.817123;stroke-linecap:round;stroke-linejoin:bevel;stroke-miterlimit:4;stroke-dasharray:none;stroke-opacity:1"
       id="cc29"
       cx="141.92059"
       cy="135.54514"
       rx="0.6962477"
       ry="0.87368375" />
    <ellipse
       style="fill:none;fill-opacity:1;stroke:#ffffff;stroke-width:0.817123;stroke-linecap:round;stroke-linejoin:bevel;stroke-miterlimit:4;stroke-dasharray:none;stroke-opacity:1"
       id="cc28"
       cx="151.90472"
       cy="126.90206"
       rx="0.6962477"
       ry="0.87368375" />
    <ellipse
       style="fill:none;fill-opacity:1;stroke:#ffffff;stroke-width:0.817123;stroke-linecap:round;stroke-linejoin:bevel;stroke-miterlimit:4;stroke-dasharray:none;stroke-opacity:1"
       id="cc27"
       cx="151.58884"
       cy="120.16193"
       rx="0.6962477"
       ry="0.87368375" />
    <ellipse
       style="fill:none;fill-opacity:1;stroke:#ffffff;stroke-width:0.817123;stroke-linecap:round;stroke-linejoin:bevel;stroke-miterlimit:4;stroke-dasharray:none;stroke-opacity:1"
       id="cc26"
       cx="149.88266"
       cy="113.10474"
       rx="0.6962477"
       ry="0.87368375" />
    <ellipse
       style="fill:none;fill-opacity:1;stroke:#ffffff;stroke-width:0.817123;stroke-linecap:round;stroke-linejoin:bevel;stroke-miterlimit:4;stroke-dasharray:none;stroke-opacity:1"
       id="cc24"
       cx="144.13232"
       cy="85.192963"
       rx="0.6962477"
       ry="0.87368375" />
    <text
       xml:space="preserve"
       style="font-style:normal;font-variant:normal;font-weight:normal;font-stretch:normal;font-size:5.51016px;line-height:1.25;font-family:Arial;-inkscape-font-specification:Arial;fill:none;fill-opacity:0.998246;stroke:#ff0000;stroke-width:0.340127;stroke-miterlimit:4;stroke-dasharray:none;stroke-opacity:1;"
       x="64.808891"
       y="111.45979"
       id="text1"
       transform="scale(0.86920318,1.150479)"><tspan
         sodipodi:role="line"
         id="tspan1391-5"
         x="64.808891"
         y="111.45979"
         style="font-style:normal;font-variant:normal;font-weight:normal;font-stretch:normal;font-family:Arial;-inkscape-font-specification:Arial;fill:none;fill-opacity:0.998246;stroke:#ff0000;stroke-width:0.340127;stroke-miterlimit:4;stroke-dasharray:none;stroke-opacity:1;"><tspan
   style="font-weight:bold;fill:none;fill-opacity:0.998246;stroke:#ff0000;stroke-width:0.340127;stroke-miterlimit:4;stroke-dasharray:none;stroke-opacity:1;"
   id="tspan1387-0">IDE</tspan> FOR YOUR <tspan
   style="font-weight:bold;fill:none;fill-opacity:0.998246;stroke:#ff0000;stroke-width:0.340127;stroke-miterlimit:4;stroke-dasharray:none;stroke-opacity:1;"
   id="tspan1389-9">CODE</tspan></tspan></text>
    <path
       style="fill:none;stroke:#ffffff;stroke-width:0.834001;stroke-linecap:butt;stroke-linejoin:miter;stroke-miterlimit:4;stroke-dasharray:none;stroke-opacity:1"
       d="m 96.346944,100.60602 c -0.600364,-0.30211 -1.2279,-0.55021 -1.87255,-0.740306 -0.451635,-0.13318 -0.911432,-0.237888 -1.37486,-0.32123 -0.775393,-0.139444 -1.5688,-0.219131 -2.3514,-0.12849 -0.417204,0.04832 -0.828212,0.144796 -1.2271,0.27626 -0.428807,0.141325 -0.845572,0.323916 -1.22709,0.565356 -0.227177,0.14377 -0.44194,0.30862 -0.62961,0.50112 -0.317748,0.32593 -0.552709,0.7265 -0.71956,1.15 -0.4124,1.04676 -0.402886,2.26242 0.0707,3.28296 0.204548,0.44078 0.489865,0.84111 0.81593,1.2014 0.852111,0.94156 1.966782,1.60217 3.09422,2.18657 0.579399,0.30033 1.167026,0.58446 1.74991,0.87796 0.432187,0.21762 0.863317,0.44133 1.25922,0.71955 0.209319,0.1471 0.408342,0.30921 0.59107,0.48827 0.143674,0.14079 0.277727,0.2927 0.38547,0.46257 0.103118,0.16258 0.181431,0.34087 0.23129,0.52682 0.08718,0.32515 0.08645,0.66904 0.0385,1.00224 -0.01616,0.11228 -0.03759,0.22381 -0.0642,0.33408"
       id="s5"
       inkscape:original-d="m 96.346944,100.60602 c -0.62392,-0.24651 -1.2481,-0.49328 -1.87255,-0.740306 -0.62445,-0.24703 -0.91631,-0.21389 -1.37486,-0.32123 -0.45856,-0.10734 -1.56734,-0.0854 -2.3514,-0.12849 -0.78407,-0.0431 -0.8178,0.18444 -1.2271,0.27626 -0.4093,0.0918 -0.8178,0.377166 -1.22709,0.565356 -0.4093,0.18819 -0.41948,0.33434 -0.62961,0.50112 -0.21014,0.16677 -0.47944,0.76693 -0.71956,1.15 -0.24011,0.38307 0.0474,2.18891 0.0707,3.28296 0.0233,1.09406 0.54421,0.8012 0.81593,1.2014 0.2717,0.40021 2.06308,1.45798 3.09422,2.18657 1.03115,0.72859 1.16688,0.58557 1.74991,0.87796 0.58304,0.29239 0.83975,0.47997 1.25922,0.71955 0.41948,0.23959 0.39431,0.32578 0.59107,0.48827 0.19675,0.16249 0.257241,0.30866 0.38547,0.46257 0.12823,0.15393 0.15446,0.35149 0.23129,0.52682 0.0768,0.17535 0.0259,0.66842 0.0385,1.00224 0.0126,0.33381 -0.0426,0.22298 -0.0642,0.33408"
       inkscape:path-effect="#path-effect949" />
    <path
       style="fill:none;stroke:#ffffff;stroke-width:0.834001;stroke-linecap:butt;stroke-linejoin:miter;stroke-miterlimit:4;stroke-dasharray:none;stroke-opacity:1"
       d="m 89.855994,104.5494 c 0.263683,0.38534 0.585359,0.73092 0.95084,1.02151 0.549423,0.43683 1.188266,0.74392 1.81816,1.05363 0.742739,0.3652 1.481446,0.73926 2.20363,1.14359 0.537496,0.30093 1.06706,0.61948 1.55475,0.9958 0.467467,0.36072 0.898046,0.77755 1.22067,1.27208 0.160431,0.24591 0.293214,0.50963 0.398331,0.78379 0.190012,0.49557 0.289047,1.02436 0.308379,1.55476 0.01301,0.35694 -0.0098,0.71569 -0.0771,1.06647 -0.07952,0.41462 -0.221948,0.81875 -0.436871,1.18213 -0.339697,0.57434 -0.853011,1.03332 -1.42626,1.37486 -0.570405,0.33984 -1.20637,0.57059 -1.86313,0.66816 -0.530621,0.0788 -1.070068,0.0712 -1.60615,0.0514 -0.632622,-0.0233 -1.26658,-0.0634 -1.88882,-0.17989 -0.509745,-0.0954 -1.009899,-0.24203 -1.49051,-0.43687"
       id="s6"
       inkscape:original-d="m 89.855994,104.5494 c 0.31721,0.34077 0.63416,0.68127 0.95084,1.02151 0.31668,0.34024 1.21237,0.70269 1.81816,1.05363 0.60579,0.35096 1.46935,0.76265 2.20363,1.14359 0.73428,0.38092 1.036771,0.66413 1.55475,0.9958 0.51799,0.33167 0.814051,0.84831 1.22067,1.27208 0.406631,0.42375 0.26582,0.5228 0.398331,0.78379 0.13251,0.261 0.205849,1.03677 0.308379,1.55476 0.10253,0.51798 -0.0511,0.71125 -0.0771,1.06647 -0.0259,0.35523 -0.29098,0.78835 -0.436871,1.18213 -0.14589,0.39378 -0.95057,0.91683 -1.42626,1.37486 -0.475679,0.45802 -1.24182,0.4457 -1.86313,0.66816 -0.62131,0.22245 -1.0705,0.0345 -1.60615,0.0514 -0.53564,0.0169 -1.25895,-0.11966 -1.88882,-0.17989 -0.62988,-0.0602 -0.99341,-0.29098 -1.49051,-0.43687"
       inkscape:path-effect="#path-effect997" />
  </g>
</svg>
