<svg xmlns="http://www.w3.org/2000/svg" xmlns:xlink="http://www.w3.org/1999/xlink" viewBox="0 0 1920 1080"><defs><style>.cls-1{opacity:0.94;}.cls-2{fill:url(#linear-gradient);}.cls-3{fill:url(#linear-gradient-2);}.cls-4{fill:url(#linear-gradient-3);}.cls-5{fill:url(#linear-gradient-4);}.cls-6{fill:url(#linear-gradient-5);}.cls-7{fill:url(#linear-gradient-6);}.cls-8{fill:url(#linear-gradient-7);}.cls-9{fill:url(#linear-gradient-8);}.cls-10{fill:url(#linear-gradient-9);}.cls-11{fill:url(#linear-gradient-10);}.cls-12{fill:url(#linear-gradient-11);}.cls-13{fill:url(#linear-gradient-12);}.cls-14{fill:url(#linear-gradient-13);}.cls-15{fill:url(#linear-gradient-14);}.cls-16{fill:url(#linear-gradient-15);}.cls-17{fill:url(#linear-gradient-16);}.cls-18{fill:url(#linear-gradient-17);}.cls-19{fill:url(#linear-gradient-18);}.cls-20{fill:url(#linear-gradient-19);}.cls-21{fill:url(#linear-gradient-20);}.cls-22{fill:url(#linear-gradient-21);}.cls-23{fill:url(#linear-gradient-22);}.cls-24{fill:url(#linear-gradient-23);}.cls-25{fill:url(#linear-gradient-24);}.cls-26{fill:url(#linear-gradient-25);}.cls-27{fill:#fff;stroke:#000;stroke-miterlimit:10;}.cls-28{fill:url(#linear-gradient-26);}.cls-29{fill:url(#linear-gradient-27);}.cls-30{fill:url(#linear-gradient-28);}.cls-31{fill:#fcfcfc;}.cls-32{fill:url(#linear-gradient-29);}.cls-33{fill:url(#linear-gradient-30);}.cls-34{fill:url(#linear-gradient-31);}.cls-35{fill:url(#linear-gradient-32);}.cls-36{fill:url(#linear-gradient-33);}.cls-37{fill:url(#linear-gradient-34);}.cls-38{fill:url(#linear-gradient-35);}.cls-39{fill:url(#linear-gradient-36);}.cls-40{fill:url(#linear-gradient-37);}.cls-41{fill:url(#linear-gradient-38);}.cls-42{fill:url(#linear-gradient-39);}.cls-43{fill:url(#linear-gradient-40);}.cls-44{fill:url(#linear-gradient-41);}.cls-45{fill:url(#linear-gradient-42);}.cls-46{fill:url(#linear-gradient-43);}.cls-47{fill:url(#linear-gradient-44);}.cls-48{fill:url(#linear-gradient-45);}.cls-49{fill:url(#linear-gradient-46);}.cls-50{fill:url(#linear-gradient-47);}.cls-51{fill:url(#linear-gradient-48);}.cls-52{fill:url(#linear-gradient-49);}.cls-53{fill:url(#linear-gradient-50);}.cls-54{fill:url(#linear-gradient-51);}.cls-55{fill:url(#linear-gradient-52);}.cls-56{fill:url(#linear-gradient-53);}.cls-57{fill:url(#linear-gradient-54);}.cls-58{fill:url(#linear-gradient-55);}.cls-59{fill:url(#linear-gradient-56);}.cls-60{fill:url(#linear-gradient-57);}.cls-61{fill:url(#linear-gradient-58);}.cls-62{fill:url(#linear-gradient-59);}.cls-63{fill:url(#linear-gradient-60);}.cls-64{fill:url(#linear-gradient-61);}.cls-65{fill:url(#linear-gradient-62);}.cls-66{fill:url(#linear-gradient-63);}.cls-67{fill:url(#linear-gradient-64);}.cls-68{fill:url(#linear-gradient-65);}.cls-69{fill:url(#linear-gradient-66);}.cls-70{fill:url(#linear-gradient-67);}</style><linearGradient id="linear-gradient" x1="960" y1="1080" x2="960" gradientUnits="userSpaceOnUse"><stop offset="0" stop-color="#7b0094"/><stop offset="0.03" stop-color="#75008e"/><stop offset="0.21" stop-color="#51006a"/><stop offset="0.4" stop-color="#36004e"/><stop offset="0.59" stop-color="#22003a"/><stop offset="0.78" stop-color="#16002e"/><stop offset="0.97" stop-color="#12002a"/></linearGradient><linearGradient id="linear-gradient-2" x1="2" y1="773.4" x2="288" y2="773.4" gradientUnits="userSpaceOnUse"><stop offset="0" stop-color="#7b0094"/><stop offset="0.06" stop-color="#88199f"/><stop offset="0.21" stop-color="#a755b8"/><stop offset="0.35" stop-color="#c289ce"/><stop offset="0.5" stop-color="#d8b3df"/><stop offset="0.64" stop-color="#e9d4ed"/><stop offset="0.77" stop-color="#f5ecf7"/><stop offset="0.89" stop-color="#fcfafd"/><stop offset="1" stop-color="#fff"/></linearGradient><linearGradient id="linear-gradient-3" y1="810.4" x2="287.77" y2="810.4" xlink:href="#linear-gradient-2"/><linearGradient id="linear-gradient-4" y1="869.94" x2="431" y2="869.94" xlink:href="#linear-gradient-2"/><linearGradient id="linear-gradient-5" y1="913.13" x2="430.66" y2="913.13" xlink:href="#linear-gradient-2"/><linearGradient id="linear-gradient-6" x1="0" y1="704.26" x2="175" y2="704.26" xlink:href="#linear-gradient-2"/><linearGradient id="linear-gradient-7" x1="0" y1="726.74" x2="175" y2="726.74" xlink:href="#linear-gradient-2"/><linearGradient id="linear-gradient-8" x1="10.9" y1="532.93" x2="54.52" y2="532.93" xlink:href="#linear-gradient-2"/><linearGradient id="linear-gradient-9" x1="1578.71" y1="90.59" x2="1592.12" y2="113.81" xlink:href="#linear-gradient-2"/><linearGradient id="linear-gradient-10" x1="1486.41" y1="206.95" x2="1500.91" y2="232.05" xlink:href="#linear-gradient-2"/><linearGradient id="linear-gradient-11" x1="405.68" y1="765.59" x2="440.38" y2="765.59" xlink:href="#linear-gradient-2"/><linearGradient id="linear-gradient-12" x1="1825.84" y1="337.25" x2="1840.07" y2="361.89" xlink:href="#linear-gradient-2"/><linearGradient id="linear-gradient-13" x1="1799.06" y1="60.84" x2="1814.3" y2="87.23" xlink:href="#linear-gradient-2"/><linearGradient id="linear-gradient-14" x1="1745.26" y1="464.19" x2="1763.15" y2="495.17" xlink:href="#linear-gradient-2"/><linearGradient id="linear-gradient-15" x1="1256.81" y1="186.51" x2="1273.21" y2="214.91" xlink:href="#linear-gradient-2"/><linearGradient id="linear-gradient-16" x1="1536.87" y1="312.57" x2="1552.07" y2="338.9" xlink:href="#linear-gradient-2"/><linearGradient id="linear-gradient-17" x1="231.84" y1="1048.08" x2="282.62" y2="1048.08" xlink:href="#linear-gradient-2"/><linearGradient id="linear-gradient-18" x1="177.88" y1="486.54" x2="210.95" y2="486.54" xlink:href="#linear-gradient-2"/><linearGradient id="linear-gradient-19" x1="415.5" y1="1057.75" x2="488.5" y2="1057.75" xlink:href="#linear-gradient-2"/><linearGradient id="linear-gradient-20" x1="3" y1="414" x2="47.5" y2="414" xlink:href="#linear-gradient-2"/><linearGradient id="linear-gradient-21" x1="2.5" y1="240" x2="33.5" y2="240" xlink:href="#linear-gradient-2"/><linearGradient id="linear-gradient-22" x1="111.5" y1="259" x2="136.5" y2="259" xlink:href="#linear-gradient-2"/><linearGradient id="linear-gradient-23" x1="1292.5" y1="15.75" x2="1352.5" y2="15.75" xlink:href="#linear-gradient-2"/><linearGradient id="linear-gradient-24" x1="1875.5" y1="595.5" x2="1920" y2="595.5" xlink:href="#linear-gradient-2"/><linearGradient id="linear-gradient-25" x1="1832.5" y1="1027" x2="1887.5" y2="1027" xlink:href="#linear-gradient-2"/><linearGradient id="linear-gradient-26" x1="1208" y1="65.61" x2="1220" y2="86.39" xlink:href="#linear-gradient-2"/><linearGradient id="linear-gradient-27" x1="1104.75" y1="5.15" x2="1128.25" y2="45.85" xlink:href="#linear-gradient-2"/><linearGradient id="linear-gradient-28" x1="106" y1="428" x2="134" y2="428" xlink:href="#linear-gradient-2"/><linearGradient id="linear-gradient-29" x1="28.25" y1="627.94" x2="42.75" y2="653.06" xlink:href="#linear-gradient-2"/><linearGradient id="linear-gradient-30" x1="1724.75" y1="809.88" x2="1746.25" y2="847.12" xlink:href="#linear-gradient-2"/><linearGradient id="linear-gradient-31" x1="1653.75" y1="386.07" x2="1669.25" y2="412.93" xlink:href="#linear-gradient-2"/><linearGradient id="linear-gradient-32" x1="524" y1="1013.5" x2="553" y2="1013.5" xlink:href="#linear-gradient-2"/><linearGradient id="linear-gradient-33" x1="281" y1="554.5" x2="296" y2="554.5" xlink:href="#linear-gradient-2"/><linearGradient id="linear-gradient-34" x1="120" y1="524.5" x2="145" y2="524.5" xlink:href="#linear-gradient-2"/><linearGradient id="linear-gradient-35" x1="328" y1="753" x2="354" y2="753" xlink:href="#linear-gradient-2"/><linearGradient id="linear-gradient-36" x1="82" y1="1013" x2="124" y2="1013" xlink:href="#linear-gradient-2"/><linearGradient id="linear-gradient-37" x1="331" y1="999" x2="351" y2="999" xlink:href="#linear-gradient-2"/><linearGradient id="linear-gradient-38" x1="497" y1="824" x2="521" y2="824" xlink:href="#linear-gradient-2"/><linearGradient id="linear-gradient-39" x1="1886.25" y1="257.94" x2="1900.75" y2="283.06" xlink:href="#linear-gradient-2"/><linearGradient id="linear-gradient-40" x1="118" y1="308.61" x2="130" y2="329.39" xlink:href="#linear-gradient-2"/><linearGradient id="linear-gradient-41" x1="203" y1="629.61" x2="215" y2="650.39" xlink:href="#linear-gradient-2"/><linearGradient id="linear-gradient-42" x1="1676" y1="665.61" x2="1688" y2="686.39" xlink:href="#linear-gradient-2"/><linearGradient id="linear-gradient-43" x1="1839" y1="902.61" x2="1851" y2="923.39" xlink:href="#linear-gradient-2"/><linearGradient id="linear-gradient-44" x1="29" y1="975.61" x2="41" y2="996.39" xlink:href="#linear-gradient-2"/><linearGradient id="linear-gradient-45" x1="1827" y1="680.61" x2="1839" y2="701.39" xlink:href="#linear-gradient-2"/><linearGradient id="linear-gradient-46" x1="1619" y1="902.61" x2="1631" y2="923.39" xlink:href="#linear-gradient-2"/><linearGradient id="linear-gradient-47" x1="1593" y1="493.61" x2="1605" y2="514.39" xlink:href="#linear-gradient-2"/><linearGradient id="linear-gradient-48" x1="1839" y1="467.61" x2="1851" y2="488.39" xlink:href="#linear-gradient-2"/><linearGradient id="linear-gradient-49" x1="1462" y1="26.61" x2="1474" y2="47.39" xlink:href="#linear-gradient-2"/><linearGradient id="linear-gradient-50" x1="41" y1="373.61" x2="53" y2="394.39" xlink:href="#linear-gradient-2"/><linearGradient id="linear-gradient-51" x1="1603.13" y1="753.14" x2="1634.72" y2="807.86" xlink:href="#linear-gradient-2"/><linearGradient id="linear-gradient-52" x1="243.6" y1="266.89" x2="276.83" y2="324.45" gradientTransform="translate(-253 518.81) rotate(-29.49)" xlink:href="#linear-gradient-2"/><linearGradient id="linear-gradient-53" x1="1410.37" y1="1330.94" x2="1444.81" y2="1351.23" gradientTransform="matrix(0.38, -0.87, 1.18, 0.26, -381.64, 1545.23)" xlink:href="#linear-gradient-2"/><linearGradient id="linear-gradient-54" x1="1720.62" y1="291.55" x2="1770.95" y2="245.87" gradientTransform="translate(1696.7 2233.71) rotate(-142.22)" xlink:href="#linear-gradient-2"/><linearGradient id="linear-gradient-55" x1="1570.86" y1="1359.45" x2="1613.55" y2="1301.75" gradientTransform="translate(184.36 2010.55) rotate(-75.63)" xlink:href="#linear-gradient-2"/><linearGradient id="linear-gradient-56" x1="1748.75" y1="998.77" x2="1712.8" y2="954.57" xlink:href="#linear-gradient-2"/><linearGradient id="linear-gradient-57" x1="1524.32" y1="1028.92" x2="1496.95" y2="995.28" xlink:href="#linear-gradient-2"/><linearGradient id="linear-gradient-58" x1="1537.76" y1="-31.82" x2="1675.25" y2="206.31" xlink:href="#linear-gradient-2"/><linearGradient id="linear-gradient-59" x1="1685.8" y1="107.98" x2="1780.15" y2="271.41" xlink:href="#linear-gradient-2"/><linearGradient id="linear-gradient-60" x1="1786.7" y1="140.11" x2="1861.76" y2="270.12" xlink:href="#linear-gradient-2"/><linearGradient id="linear-gradient-61" x1="1691.4" y1="188.17" x2="1742.6" y2="276.83" xlink:href="#linear-gradient-2"/><linearGradient id="linear-gradient-62" x1="1568.6" y1="152.26" x2="1684.33" y2="352.7" xlink:href="#linear-gradient-2"/><linearGradient id="linear-gradient-63" x1="1637.56" y1="252.96" x2="1725.94" y2="406.04" xlink:href="#linear-gradient-2"/><linearGradient id="linear-gradient-64" x1="1429.97" y1="287.72" x2="1462.8" y2="344.57" xlink:href="#linear-gradient-2"/><linearGradient id="linear-gradient-65" x1="1761.46" y1="72.27" x2="1815.27" y2="165.46" xlink:href="#linear-gradient-2"/><linearGradient id="linear-gradient-66" x1="1742.2" y1="318.12" x2="1789.5" y2="400.05" xlink:href="#linear-gradient-2"/><linearGradient id="linear-gradient-67" x1="1886.35" y1="371.12" x2="1900.65" y2="395.88" xlink:href="#linear-gradient-2"/></defs><title>Artboard 1</title><g id="Layer_1" data-name="Layer 1"><g class="cls-1"><rect class="cls-2" width="1920" height="1080"/></g></g><g id="Layer_2" data-name="Layer 2"><g class="cls-1"><path class="cls-3" d="M288,787.8H2V759H252.07C270.79,759,286.19,771.63,288,787.8Z"/></g><g class="cls-1"><path class="cls-4" d="M287.77,796.8a30.75,30.75,0,0,1-10.17,17.82A38.41,38.41,0,0,1,252.07,824H2V796.8Z"/></g><g class="cls-1"><path class="cls-5" d="M431,886.75H2V853.14H377.1C405.19,853.14,428.29,867.88,431,886.75Z"/></g><g class="cls-1"><path class="cls-6" d="M430.66,897.25c-1.76,8.07-7.27,15.3-15.26,20.81-9.8,6.76-23.35,10.94-38.3,10.94H2V897.25Z"/></g><g class="cls-1"><path class="cls-7" d="M175,712.52H0V696H156.06C165.93,696,174.05,703.24,175,712.52Z"/></g><g class="cls-1"><path class="cls-8" d="M175,718.48c-.95,9.28-9.07,16.52-18.94,16.52H0V718.48Z"/></g></g><g id="Layer_3" data-name="Layer 3"><g class="cls-1"><polygon class="cls-9" points="54.52 552.17 10.9 555.01 40.24 510.85 54.52 552.17"/></g><g class="cls-1"><polygon class="cls-10" points="1572.96 104.36 1588.99 84.66 1597.56 110.67 1572.96 104.36"/></g><g class="cls-1"><polygon class="cls-11" points="1472.16 215.18 1503.46 203.56 1501 232 1472.16 215.18"/></g><g class="cls-1"><polygon class="cls-12" points="436.46 746.69 440.38 784.5 405.68 768.99 436.46 746.69"/></g><g class="cls-1"><polygon class="cls-13" points="1840.74 331.77 1838.04 363.07 1812.29 345.08 1840.74 331.77"/></g><g class="cls-1"><polygon class="cls-14" points="1802.95 58.6 1827.75 79.47 1798.36 90.68 1802.95 58.6"/></g><g class="cls-1"><polygon class="cls-15" points="1763 456.95 1763.43 495 1728.82 473.68 1763 456.95"/></g><g class="cls-1"><polygon class="cls-16" points="1276.91 192.57 1261.87 221.46 1244.36 193.7 1276.91 192.57"/></g><g class="cls-1"><polygon class="cls-17" points="1549.56 305.25 1558.13 335.41 1529.77 329.56 1549.56 305.25"/></g><g class="cls-1"><polygon class="cls-18" points="282.62 1037.83 243.68 1073.98 231.84 1022.18 282.62 1037.83"/></g><g class="cls-1"><polygon class="cls-19" points="210.95 469.98 202.16 503.09 177.88 478.92 210.95 469.98"/></g><path class="cls-20" d="M487.62,1080a36.5,36.5,0,1,0-71.24,0Z"/><path class="cls-21" d="M47.5,414A44.5,44.5,0,0,1,3,458.5v-89a44.4,44.4,0,0,1,32,13.61,44.54,44.54,0,0,1,8.43,12.36A44.3,44.3,0,0,1,47.5,414Z"/><circle class="cls-22" cx="18" cy="240" r="15.5"/><circle class="cls-23" cx="124" cy="259" r="12.5"/><path class="cls-24" d="M1352.5,1.5a30,30,0,0,1-60,0c0-.5,0-1,0-1.5h59.92C1352.49.49,1352.5,1,1352.5,1.5Z"/><path class="cls-25" d="M1920,625a32,32,0,1,1,0-58.94Z"/><circle class="cls-26" cx="1860" cy="1027" r="27.5"/><circle class="cls-27" cx="1761.5" cy="1060.5" r="6"/><circle class="cls-27" cx="1628" cy="1036" r="8.5"/></g><g id="Layer_4" data-name="Layer 4"><g class="cls-1"><circle class="cls-28" cx="1214" cy="76" r="12"/></g><g class="cls-1"><circle class="cls-29" cx="1116.5" cy="25.5" r="23.5"/></g><g class="cls-1"><circle class="cls-30" cx="120" cy="428" r="14"/></g><g class="cls-1"><circle class="cls-31" cx="1584.5" cy="248.11" r="4.52"/></g><g class="cls-1"><circle class="cls-31" cx="1438.5" cy="366.11" r="4.52"/></g><g class="cls-1"><circle class="cls-31" cx="1573.5" cy="431.11" r="4.52"/></g><g class="cls-1"><circle class="cls-31" cx="1862.5" cy="383.11" r="4.52"/></g><g class="cls-1"><circle class="cls-31" cx="1848.5" cy="217.11" r="4.52"/></g><g class="cls-1"><circle class="cls-31" cx="1847.5" cy="246.11" r="4.52"/></g><g class="cls-1"><circle class="cls-31" cx="1611.5" cy="403.11" r="4.52"/></g><g class="cls-1"><circle class="cls-31" cx="1387.5" cy="319.11" r="4.52"/></g><g class="cls-1"><circle class="cls-31" cx="1506.5" cy="324.11" r="4.52"/></g><g class="cls-1"><circle class="cls-31" cx="1399.5" cy="248.11" r="4.52"/></g><g class="cls-1"><circle class="cls-32" cx="35.5" cy="640.5" r="14.5"/></g><g class="cls-1"><circle class="cls-33" cx="1735.5" cy="828.5" r="21.5"/></g><g class="cls-1"><circle class="cls-34" cx="1661.5" cy="399.5" r="15.5"/></g><g class="cls-1"><circle class="cls-35" cx="538.5" cy="1013.5" r="14.5"/></g><g class="cls-1"><circle class="cls-36" cx="288.5" cy="554.5" r="7.5"/></g><g class="cls-1"><circle class="cls-37" cx="132.5" cy="524.5" r="12.5"/></g><g class="cls-1"><circle class="cls-38" cx="341" cy="753" r="13"/></g><g class="cls-1"><circle class="cls-39" cx="103" cy="1013" r="21"/></g><g class="cls-1"><circle class="cls-40" cx="341" cy="999" r="10"/></g><g class="cls-1"><circle class="cls-41" cx="509" cy="824" r="12"/></g><g class="cls-1"><circle class="cls-42" cx="1893.5" cy="270.5" r="14.5"/></g><g class="cls-1"><circle class="cls-43" cx="124" cy="319" r="12"/></g><g class="cls-1"><circle class="cls-44" cx="209" cy="640" r="12"/></g><g class="cls-1"><circle class="cls-45" cx="1682" cy="676" r="12"/></g><g class="cls-1"><circle class="cls-46" cx="1845" cy="913" r="12"/></g><g class="cls-1"><circle class="cls-47" cx="35" cy="986" r="12"/></g><g class="cls-1"><circle class="cls-31" cx="1658.5" cy="146.5" r="4.5"/></g><g class="cls-1"><circle class="cls-31" cx="1723.5" cy="175.5" r="4.5"/></g><g class="cls-1"><circle class="cls-31" cx="1540.5" cy="190.5" r="4.5"/></g><g class="cls-1"><circle class="cls-31" cx="1288.5" cy="111.5" r="4.5"/></g><g class="cls-1"><circle class="cls-48" cx="1833" cy="691" r="12"/></g><g class="cls-1"><circle class="cls-49" cx="1625" cy="913" r="12"/></g><g class="cls-1"><circle class="cls-50" cx="1599" cy="504" r="12"/></g><g class="cls-1"><circle class="cls-51" cx="1845" cy="478" r="12"/></g><g class="cls-1"><circle class="cls-52" cx="1468" cy="37" r="12"/></g><g class="cls-1"><circle class="cls-53" cx="47" cy="384" r="12"/></g><polygon class="cls-54" points="1657.34 794.8 1594.16 793.15 1627.18 739.26 1657.34 794.8"/><polygon class="cls-55" points="162.37 640 104.81 673.23 104.81 606.77 162.37 640"/><polygon class="cls-56" points="1756.02 617.72 1784 650 1730.96 652.31 1756.02 617.72"/><polygon class="cls-57" points="446.82 945.33 512.49 913.19 507.49 986.13 446.82 945.33"/><polygon class="cls-58" points="1870.24 750.76 1914.48 807.3 1843.4 817.34 1870.24 750.76"/><polygon class="cls-59" points="1773.02 977.14 1723.56 1019.26 1711.82 955.37 1773.02 977.14"/><polygon class="cls-60" points="1518.69 984.92 1520.5 1032.03 1478.8 1010.04 1518.69 984.92"/></g><g id="Layer_5" data-name="Layer 5"><g class="cls-1"><polygon class="cls-61" points="1604.1 135 1455.4 134.42 1425 111.01 1293.02 112.5 1292.98 109.5 1426 107.99 1456.43 131.43 1602.9 132 1676.9 62 1920 62 1920 65 1678.1 65 1604.1 135"/></g><g class="cls-1"><polygon class="cls-62" points="1920 186.67 1920 190.67 1858.93 136.99 1718.01 135.01 1648.82 189.95 1648.32 189.96 1545.53 192 1545.47 189 1647.75 186.97 1716.99 131.99 1717.52 132 1860.07 134.01 1920 186.67"/></g><g class="cls-1"><polygon class="cls-63" points="1920 232.44 1920 236.5 1854.92 177 1728 177 1728 174 1856.08 174 1920 232.44"/></g><g class="cls-1"><polygon class="cls-64" points="1686.01 250 1589.5 250 1589.5 247 1684.99 247 1726.99 215 1844.5 215 1844.5 218 1728.01 218 1686.01 250"/></g><g class="cls-1"><polygon class="cls-65" points="1786 294 1525.96 294 1472.96 250 1404.5 250 1404.5 247 1474.04 247 1527.04 291 1785 291 1843.6 247.3 1845.4 249.7 1786 294"/></g><g class="cls-1"><polygon class="cls-66" points="1551.02 368 1443.5 368 1443.5 365 1549.98 365 1605.98 321 1796.07 321 1844.07 291 1920 291 1920 294 1844.93 294 1796.93 324 1607.02 324 1551.02 368"/></g><g class="cls-1"><polygon class="cls-67" points="1502.52 321.64 1473.01 296.2 1426.92 293.03 1391.36 317.73 1389.64 315.27 1426.08 289.97 1474.21 293.27 1504.48 319.36 1502.52 321.64"/></g><g class="cls-1"><polygon class="cls-68" points="1662.45 144.66 1660.55 142.34 1709.97 102 1920 102 1920 105 1711.03 105 1662.45 144.66"/></g><g class="cls-1"><polygon class="cls-69" points="1616.41 402.69 1614.59 400.31 1660.99 365 1822.79 365 1857.79 322 1919.5 322 1919.5 325 1859.21 325 1824.21 368 1662.01 368 1616.41 402.69"/></g><g class="cls-1"><rect class="cls-70" x="1867.5" y="382" width="52" height="3"/></g></g></svg>